G04 #@! TF.GenerationSoftware,KiCad,Pcbnew,(5.1.0)-1*
G04 #@! TF.CreationDate,2019-04-05T23:44:47+02:00*
G04 #@! TF.ProjectId,BT_module,42545f6d-6f64-4756-9c65-2e6b69636164,rev?*
G04 #@! TF.SameCoordinates,Original*
G04 #@! TF.FileFunction,Soldermask,Top*
G04 #@! TF.FilePolarity,Negative*
%FSLAX46Y46*%
G04 Gerber Fmt 4.6, Leading zero omitted, Abs format (unit mm)*
G04 Created by KiCad (PCBNEW (5.1.0)-1) date 2019-04-05 23:44:47*
%MOMM*%
%LPD*%
G04 APERTURE LIST*
%ADD10C,0.100000*%
G04 APERTURE END LIST*
D10*
G36*
X128888442Y-96895518D02*
G01*
X128954627Y-96902037D01*
X129124466Y-96953557D01*
X129280991Y-97037222D01*
X129316729Y-97066552D01*
X129418186Y-97149814D01*
X129501448Y-97251271D01*
X129530778Y-97287009D01*
X129614443Y-97443534D01*
X129665963Y-97613373D01*
X129683359Y-97790000D01*
X129665963Y-97966627D01*
X129614443Y-98136466D01*
X129530778Y-98292991D01*
X129501448Y-98328729D01*
X129418186Y-98430186D01*
X129316729Y-98513448D01*
X129280991Y-98542778D01*
X129124466Y-98626443D01*
X128954627Y-98677963D01*
X128888442Y-98684482D01*
X128822260Y-98691000D01*
X128733740Y-98691000D01*
X128667558Y-98684482D01*
X128601373Y-98677963D01*
X128431534Y-98626443D01*
X128275009Y-98542778D01*
X128239271Y-98513448D01*
X128137814Y-98430186D01*
X128054552Y-98328729D01*
X128025222Y-98292991D01*
X127941557Y-98136466D01*
X127890037Y-97966627D01*
X127872641Y-97790000D01*
X127890037Y-97613373D01*
X127941557Y-97443534D01*
X128025222Y-97287009D01*
X128054552Y-97251271D01*
X128137814Y-97149814D01*
X128239271Y-97066552D01*
X128275009Y-97037222D01*
X128431534Y-96953557D01*
X128601373Y-96902037D01*
X128667558Y-96895518D01*
X128733740Y-96889000D01*
X128822260Y-96889000D01*
X128888442Y-96895518D01*
X128888442Y-96895518D01*
G37*
G36*
X131428442Y-96895518D02*
G01*
X131494627Y-96902037D01*
X131664466Y-96953557D01*
X131820991Y-97037222D01*
X131856729Y-97066552D01*
X131958186Y-97149814D01*
X132041448Y-97251271D01*
X132070778Y-97287009D01*
X132154443Y-97443534D01*
X132205963Y-97613373D01*
X132223359Y-97790000D01*
X132205963Y-97966627D01*
X132154443Y-98136466D01*
X132070778Y-98292991D01*
X132041448Y-98328729D01*
X131958186Y-98430186D01*
X131856729Y-98513448D01*
X131820991Y-98542778D01*
X131664466Y-98626443D01*
X131494627Y-98677963D01*
X131428442Y-98684482D01*
X131362260Y-98691000D01*
X131273740Y-98691000D01*
X131207558Y-98684482D01*
X131141373Y-98677963D01*
X130971534Y-98626443D01*
X130815009Y-98542778D01*
X130779271Y-98513448D01*
X130677814Y-98430186D01*
X130594552Y-98328729D01*
X130565222Y-98292991D01*
X130481557Y-98136466D01*
X130430037Y-97966627D01*
X130412641Y-97790000D01*
X130430037Y-97613373D01*
X130481557Y-97443534D01*
X130565222Y-97287009D01*
X130594552Y-97251271D01*
X130677814Y-97149814D01*
X130779271Y-97066552D01*
X130815009Y-97037222D01*
X130971534Y-96953557D01*
X131141373Y-96902037D01*
X131207558Y-96895518D01*
X131273740Y-96889000D01*
X131362260Y-96889000D01*
X131428442Y-96895518D01*
X131428442Y-96895518D01*
G37*
G36*
X133968442Y-96895518D02*
G01*
X134034627Y-96902037D01*
X134204466Y-96953557D01*
X134360991Y-97037222D01*
X134396729Y-97066552D01*
X134498186Y-97149814D01*
X134581448Y-97251271D01*
X134610778Y-97287009D01*
X134694443Y-97443534D01*
X134745963Y-97613373D01*
X134763359Y-97790000D01*
X134745963Y-97966627D01*
X134694443Y-98136466D01*
X134610778Y-98292991D01*
X134581448Y-98328729D01*
X134498186Y-98430186D01*
X134396729Y-98513448D01*
X134360991Y-98542778D01*
X134204466Y-98626443D01*
X134034627Y-98677963D01*
X133968442Y-98684482D01*
X133902260Y-98691000D01*
X133813740Y-98691000D01*
X133747558Y-98684482D01*
X133681373Y-98677963D01*
X133511534Y-98626443D01*
X133355009Y-98542778D01*
X133319271Y-98513448D01*
X133217814Y-98430186D01*
X133134552Y-98328729D01*
X133105222Y-98292991D01*
X133021557Y-98136466D01*
X132970037Y-97966627D01*
X132952641Y-97790000D01*
X132970037Y-97613373D01*
X133021557Y-97443534D01*
X133105222Y-97287009D01*
X133134552Y-97251271D01*
X133217814Y-97149814D01*
X133319271Y-97066552D01*
X133355009Y-97037222D01*
X133511534Y-96953557D01*
X133681373Y-96902037D01*
X133747558Y-96895518D01*
X133813740Y-96889000D01*
X133902260Y-96889000D01*
X133968442Y-96895518D01*
X133968442Y-96895518D01*
G37*
G36*
X127139000Y-98691000D02*
G01*
X125337000Y-98691000D01*
X125337000Y-96889000D01*
X127139000Y-96889000D01*
X127139000Y-98691000D01*
X127139000Y-98691000D01*
G37*
G36*
X133684674Y-94374465D02*
G01*
X133722367Y-94385899D01*
X133757103Y-94404466D01*
X133787548Y-94429452D01*
X133812534Y-94459897D01*
X133831101Y-94494633D01*
X133842535Y-94532326D01*
X133847000Y-94577661D01*
X133847000Y-95414339D01*
X133842535Y-95459674D01*
X133831101Y-95497367D01*
X133812534Y-95532103D01*
X133787548Y-95562548D01*
X133757103Y-95587534D01*
X133722367Y-95606101D01*
X133684674Y-95617535D01*
X133639339Y-95622000D01*
X132552661Y-95622000D01*
X132507326Y-95617535D01*
X132469633Y-95606101D01*
X132434897Y-95587534D01*
X132404452Y-95562548D01*
X132379466Y-95532103D01*
X132360899Y-95497367D01*
X132349465Y-95459674D01*
X132345000Y-95414339D01*
X132345000Y-94577661D01*
X132349465Y-94532326D01*
X132360899Y-94494633D01*
X132379466Y-94459897D01*
X132404452Y-94429452D01*
X132434897Y-94404466D01*
X132469633Y-94385899D01*
X132507326Y-94374465D01*
X132552661Y-94370000D01*
X133639339Y-94370000D01*
X133684674Y-94374465D01*
X133684674Y-94374465D01*
G37*
G36*
X137349890Y-93830017D02*
G01*
X137468364Y-93879091D01*
X137574988Y-93950335D01*
X137665665Y-94041012D01*
X137736910Y-94147638D01*
X137785983Y-94266110D01*
X137810769Y-94390718D01*
X137811000Y-94391882D01*
X137811000Y-94520118D01*
X137785983Y-94645890D01*
X137736909Y-94764364D01*
X137665665Y-94870988D01*
X137574988Y-94961665D01*
X137468364Y-95032909D01*
X137468363Y-95032910D01*
X137468362Y-95032910D01*
X137349890Y-95081983D01*
X137224119Y-95107000D01*
X137095881Y-95107000D01*
X136970110Y-95081983D01*
X136851638Y-95032910D01*
X136851637Y-95032910D01*
X136851636Y-95032909D01*
X136745012Y-94961665D01*
X136654335Y-94870988D01*
X136583091Y-94764364D01*
X136534017Y-94645890D01*
X136509000Y-94520118D01*
X136509000Y-94391882D01*
X136509232Y-94390718D01*
X136534017Y-94266110D01*
X136583090Y-94147638D01*
X136654335Y-94041012D01*
X136745012Y-93950335D01*
X136851636Y-93879091D01*
X136970110Y-93830017D01*
X137095881Y-93805000D01*
X137224119Y-93805000D01*
X137349890Y-93830017D01*
X137349890Y-93830017D01*
G37*
G36*
X133684674Y-92324465D02*
G01*
X133722367Y-92335899D01*
X133757103Y-92354466D01*
X133787548Y-92379452D01*
X133812534Y-92409897D01*
X133831101Y-92444633D01*
X133842535Y-92482326D01*
X133847000Y-92527661D01*
X133847000Y-93364339D01*
X133842535Y-93409674D01*
X133831101Y-93447367D01*
X133812534Y-93482103D01*
X133787548Y-93512548D01*
X133757103Y-93537534D01*
X133722367Y-93556101D01*
X133684674Y-93567535D01*
X133639339Y-93572000D01*
X132552661Y-93572000D01*
X132507326Y-93567535D01*
X132469633Y-93556101D01*
X132434897Y-93537534D01*
X132404452Y-93512548D01*
X132379466Y-93482103D01*
X132360899Y-93447367D01*
X132349465Y-93409674D01*
X132345000Y-93364339D01*
X132345000Y-92527661D01*
X132349465Y-92482326D01*
X132360899Y-92444633D01*
X132379466Y-92409897D01*
X132404452Y-92379452D01*
X132434897Y-92354466D01*
X132469633Y-92335899D01*
X132507326Y-92324465D01*
X132552661Y-92320000D01*
X133639339Y-92320000D01*
X133684674Y-92324465D01*
X133684674Y-92324465D01*
G37*
G36*
X137811000Y-93107000D02*
G01*
X136509000Y-93107000D01*
X136509000Y-91805000D01*
X137811000Y-91805000D01*
X137811000Y-93107000D01*
X137811000Y-93107000D01*
G37*
G36*
X129482720Y-87609520D02*
G01*
X129671881Y-87666901D01*
X129846212Y-87760083D01*
X129999015Y-87885485D01*
X130124417Y-88038288D01*
X130168182Y-88120167D01*
X130217598Y-88212617D01*
X130217599Y-88212620D01*
X130274980Y-88401781D01*
X130289500Y-88549207D01*
X130289500Y-88742794D01*
X130274980Y-88890220D01*
X130217599Y-89079381D01*
X130124417Y-89253712D01*
X129999015Y-89406515D01*
X129846212Y-89531917D01*
X129764333Y-89575682D01*
X129671883Y-89625098D01*
X129671880Y-89625099D01*
X129482719Y-89682480D01*
X129286000Y-89701855D01*
X129089280Y-89682480D01*
X128900119Y-89625099D01*
X128725788Y-89531917D01*
X128572985Y-89406515D01*
X128447583Y-89253712D01*
X128403818Y-89171833D01*
X128354402Y-89079383D01*
X128354401Y-89079380D01*
X128297020Y-88890219D01*
X128282500Y-88742793D01*
X128282500Y-88549206D01*
X128297020Y-88401780D01*
X128354401Y-88212619D01*
X128447583Y-88038288D01*
X128572985Y-87885485D01*
X128725788Y-87760083D01*
X128900120Y-87666901D01*
X129089281Y-87609520D01*
X129286000Y-87590145D01*
X129482720Y-87609520D01*
X129482720Y-87609520D01*
G37*
G36*
X126942720Y-87609520D02*
G01*
X127131881Y-87666901D01*
X127306212Y-87760083D01*
X127459015Y-87885485D01*
X127584417Y-88038288D01*
X127628182Y-88120167D01*
X127677598Y-88212617D01*
X127677599Y-88212620D01*
X127734980Y-88401781D01*
X127749500Y-88549207D01*
X127749500Y-88742794D01*
X127734980Y-88890220D01*
X127677599Y-89079381D01*
X127584417Y-89253712D01*
X127459015Y-89406515D01*
X127306212Y-89531917D01*
X127224333Y-89575682D01*
X127131883Y-89625098D01*
X127131880Y-89625099D01*
X126942719Y-89682480D01*
X126746000Y-89701855D01*
X126549280Y-89682480D01*
X126360119Y-89625099D01*
X126185788Y-89531917D01*
X126032985Y-89406515D01*
X125907583Y-89253712D01*
X125863818Y-89171833D01*
X125814402Y-89079383D01*
X125814401Y-89079380D01*
X125757020Y-88890219D01*
X125742500Y-88742793D01*
X125742500Y-88549206D01*
X125757020Y-88401780D01*
X125814401Y-88212619D01*
X125907583Y-88038288D01*
X126032985Y-87885485D01*
X126185788Y-87760083D01*
X126360120Y-87666901D01*
X126549281Y-87609520D01*
X126746000Y-87590145D01*
X126942720Y-87609520D01*
X126942720Y-87609520D01*
G37*
G36*
X132829500Y-89697000D02*
G01*
X130822500Y-89697000D01*
X130822500Y-87595000D01*
X132829500Y-87595000D01*
X132829500Y-89697000D01*
X132829500Y-89697000D01*
G37*
G36*
X137825001Y-82491001D02*
G01*
X136200000Y-82491001D01*
X136175614Y-82493403D01*
X136152165Y-82500516D01*
X136130554Y-82512067D01*
X136111612Y-82527612D01*
X136096067Y-82546554D01*
X136084516Y-82568165D01*
X136077403Y-82591614D01*
X136075001Y-82616000D01*
X136075001Y-84641001D01*
X134973001Y-84641001D01*
X134973001Y-82739001D01*
X135598002Y-82739001D01*
X135622388Y-82736599D01*
X135645837Y-82729486D01*
X135667448Y-82717935D01*
X135686390Y-82702390D01*
X135701935Y-82683448D01*
X135713486Y-82661837D01*
X135720599Y-82638388D01*
X135723001Y-82614002D01*
X135723001Y-81389001D01*
X137825001Y-81389001D01*
X137825001Y-82491001D01*
X137825001Y-82491001D01*
G37*
G36*
X131575001Y-84641001D02*
G01*
X130473001Y-84641001D01*
X130473001Y-82739001D01*
X131575001Y-82739001D01*
X131575001Y-84641001D01*
X131575001Y-84641001D01*
G37*
G36*
X130075001Y-84641001D02*
G01*
X128973001Y-84641001D01*
X128973001Y-82739001D01*
X130075001Y-82739001D01*
X130075001Y-84641001D01*
X130075001Y-84641001D01*
G37*
G36*
X128575001Y-84641001D02*
G01*
X127473001Y-84641001D01*
X127473001Y-82739001D01*
X128575001Y-82739001D01*
X128575001Y-84641001D01*
X128575001Y-84641001D01*
G37*
G36*
X127075001Y-84641001D02*
G01*
X125973001Y-84641001D01*
X125973001Y-82739001D01*
X127075001Y-82739001D01*
X127075001Y-84641001D01*
X127075001Y-84641001D01*
G37*
G36*
X124825001Y-82614002D02*
G01*
X124827403Y-82638388D01*
X124834516Y-82661837D01*
X124846067Y-82683448D01*
X124861612Y-82702390D01*
X124880554Y-82717935D01*
X124902165Y-82729486D01*
X124925614Y-82736599D01*
X124950000Y-82739001D01*
X125575001Y-82739001D01*
X125575001Y-84641001D01*
X124473001Y-84641001D01*
X124473001Y-82616000D01*
X124470599Y-82591614D01*
X124463486Y-82568165D01*
X124451935Y-82546554D01*
X124436390Y-82527612D01*
X124417448Y-82512067D01*
X124395837Y-82500516D01*
X124372388Y-82493403D01*
X124348002Y-82491001D01*
X122723001Y-82491001D01*
X122723001Y-81389001D01*
X124825001Y-81389001D01*
X124825001Y-82614002D01*
X124825001Y-82614002D01*
G37*
G36*
X133075001Y-84641001D02*
G01*
X131973001Y-84641001D01*
X131973001Y-82739001D01*
X133075001Y-82739001D01*
X133075001Y-84641001D01*
X133075001Y-84641001D01*
G37*
G36*
X134575001Y-84641001D02*
G01*
X133473001Y-84641001D01*
X133473001Y-82739001D01*
X134575001Y-82739001D01*
X134575001Y-84641001D01*
X134575001Y-84641001D01*
G37*
G36*
X137825001Y-80991001D02*
G01*
X135723001Y-80991001D01*
X135723001Y-79889001D01*
X137825001Y-79889001D01*
X137825001Y-80991001D01*
X137825001Y-80991001D01*
G37*
G36*
X124825001Y-80991001D02*
G01*
X122723001Y-80991001D01*
X122723001Y-79889001D01*
X124825001Y-79889001D01*
X124825001Y-80991001D01*
X124825001Y-80991001D01*
G37*
G36*
X137825001Y-79491001D02*
G01*
X135723001Y-79491001D01*
X135723001Y-78389001D01*
X137825001Y-78389001D01*
X137825001Y-79491001D01*
X137825001Y-79491001D01*
G37*
G36*
X124825001Y-79491001D02*
G01*
X122723001Y-79491001D01*
X122723001Y-78389001D01*
X124825001Y-78389001D01*
X124825001Y-79491001D01*
X124825001Y-79491001D01*
G37*
G36*
X137825001Y-77991001D02*
G01*
X135723001Y-77991001D01*
X135723001Y-76889001D01*
X137825001Y-76889001D01*
X137825001Y-77991001D01*
X137825001Y-77991001D01*
G37*
G36*
X124825001Y-77991001D02*
G01*
X122723001Y-77991001D01*
X122723001Y-76889001D01*
X124825001Y-76889001D01*
X124825001Y-77991001D01*
X124825001Y-77991001D01*
G37*
G36*
X137825001Y-76491001D02*
G01*
X135723001Y-76491001D01*
X135723001Y-75389001D01*
X137825001Y-75389001D01*
X137825001Y-76491001D01*
X137825001Y-76491001D01*
G37*
G36*
X124825001Y-76491001D02*
G01*
X122723001Y-76491001D01*
X122723001Y-75389001D01*
X124825001Y-75389001D01*
X124825001Y-76491001D01*
X124825001Y-76491001D01*
G37*
G36*
X137825001Y-74991001D02*
G01*
X135723001Y-74991001D01*
X135723001Y-73889001D01*
X137825001Y-73889001D01*
X137825001Y-74991001D01*
X137825001Y-74991001D01*
G37*
G36*
X124825001Y-74991001D02*
G01*
X122723001Y-74991001D01*
X122723001Y-73889001D01*
X124825001Y-73889001D01*
X124825001Y-74991001D01*
X124825001Y-74991001D01*
G37*
G36*
X137825001Y-73491001D02*
G01*
X135723001Y-73491001D01*
X135723001Y-72389001D01*
X137825001Y-72389001D01*
X137825001Y-73491001D01*
X137825001Y-73491001D01*
G37*
G36*
X124825001Y-73491001D02*
G01*
X122723001Y-73491001D01*
X122723001Y-72389001D01*
X124825001Y-72389001D01*
X124825001Y-73491001D01*
X124825001Y-73491001D01*
G37*
G36*
X124825001Y-71991001D02*
G01*
X122723001Y-71991001D01*
X122723001Y-70889001D01*
X124825001Y-70889001D01*
X124825001Y-71991001D01*
X124825001Y-71991001D01*
G37*
G36*
X137825001Y-71991001D02*
G01*
X135723001Y-71991001D01*
X135723001Y-70889001D01*
X137825001Y-70889001D01*
X137825001Y-71991001D01*
X137825001Y-71991001D01*
G37*
G36*
X137825001Y-70491001D02*
G01*
X135723001Y-70491001D01*
X135723001Y-69389001D01*
X137825001Y-69389001D01*
X137825001Y-70491001D01*
X137825001Y-70491001D01*
G37*
G36*
X124825001Y-70491001D02*
G01*
X122723001Y-70491001D01*
X122723001Y-69389001D01*
X124825001Y-69389001D01*
X124825001Y-70491001D01*
X124825001Y-70491001D01*
G37*
G36*
X137825001Y-68991001D02*
G01*
X135723001Y-68991001D01*
X135723001Y-67889001D01*
X137825001Y-67889001D01*
X137825001Y-68991001D01*
X137825001Y-68991001D01*
G37*
G36*
X124825001Y-68991001D02*
G01*
X122723001Y-68991001D01*
X122723001Y-67889001D01*
X124825001Y-67889001D01*
X124825001Y-68991001D01*
X124825001Y-68991001D01*
G37*
G36*
X137825001Y-67491001D02*
G01*
X135723001Y-67491001D01*
X135723001Y-66389001D01*
X137825001Y-66389001D01*
X137825001Y-67491001D01*
X137825001Y-67491001D01*
G37*
G36*
X124825001Y-67491001D02*
G01*
X122723001Y-67491001D01*
X122723001Y-66389001D01*
X124825001Y-66389001D01*
X124825001Y-67491001D01*
X124825001Y-67491001D01*
G37*
G36*
X124825001Y-65991001D02*
G01*
X122723001Y-65991001D01*
X122723001Y-64889001D01*
X124825001Y-64889001D01*
X124825001Y-65991001D01*
X124825001Y-65991001D01*
G37*
G36*
X137825001Y-65991001D02*
G01*
X135723001Y-65991001D01*
X135723001Y-64889001D01*
X137825001Y-64889001D01*
X137825001Y-65991001D01*
X137825001Y-65991001D01*
G37*
G36*
X137825001Y-64491001D02*
G01*
X135723001Y-64491001D01*
X135723001Y-63389001D01*
X137825001Y-63389001D01*
X137825001Y-64491001D01*
X137825001Y-64491001D01*
G37*
G36*
X124825001Y-64491001D02*
G01*
X122723001Y-64491001D01*
X122723001Y-63389001D01*
X124825001Y-63389001D01*
X124825001Y-64491001D01*
X124825001Y-64491001D01*
G37*
M02*
