G04 #@! TF.GenerationSoftware,KiCad,Pcbnew,(5.1.0)-1*
G04 #@! TF.CreationDate,2019-04-05T23:44:47+02:00*
G04 #@! TF.ProjectId,BT_module,42545f6d-6f64-4756-9c65-2e6b69636164,rev?*
G04 #@! TF.SameCoordinates,Original*
G04 #@! TF.FileFunction,Copper,L2,Bot*
G04 #@! TF.FilePolarity,Positive*
%FSLAX46Y46*%
G04 Gerber Fmt 4.6, Leading zero omitted, Abs format (unit mm)*
G04 Created by KiCad (PCBNEW (5.1.0)-1) date 2019-04-05 23:44:47*
%MOMM*%
%LPD*%
G04 APERTURE LIST*
%ADD10R,1.200000X1.200000*%
%ADD11C,1.200000*%
%ADD12R,1.700000X1.700000*%
%ADD13O,1.700000X1.700000*%
%ADD14R,1.905000X2.000000*%
%ADD15O,1.905000X2.000000*%
%ADD16C,0.254000*%
G04 APERTURE END LIST*
D10*
X137160000Y-92456000D03*
D11*
X137160000Y-94456000D03*
D12*
X126238000Y-97790000D03*
D13*
X128778000Y-97790000D03*
X131318000Y-97790000D03*
X133858000Y-97790000D03*
D14*
X131826000Y-88646000D03*
D15*
X129286000Y-88646000D03*
X126746000Y-88646000D03*
D16*
G36*
X140056000Y-99416000D02*
G01*
X120040000Y-99416000D01*
X120040000Y-96940000D01*
X124749928Y-96940000D01*
X124749928Y-98640000D01*
X124762188Y-98764482D01*
X124798498Y-98884180D01*
X124857463Y-98994494D01*
X124936815Y-99091185D01*
X125033506Y-99170537D01*
X125143820Y-99229502D01*
X125263518Y-99265812D01*
X125388000Y-99278072D01*
X127088000Y-99278072D01*
X127212482Y-99265812D01*
X127332180Y-99229502D01*
X127442494Y-99170537D01*
X127539185Y-99091185D01*
X127618537Y-98994494D01*
X127677502Y-98884180D01*
X127698393Y-98815313D01*
X127722866Y-98845134D01*
X127948986Y-99030706D01*
X128206966Y-99168599D01*
X128486889Y-99253513D01*
X128705050Y-99275000D01*
X128850950Y-99275000D01*
X129069111Y-99253513D01*
X129349034Y-99168599D01*
X129607014Y-99030706D01*
X129833134Y-98845134D01*
X130018706Y-98619014D01*
X130048000Y-98564209D01*
X130077294Y-98619014D01*
X130262866Y-98845134D01*
X130488986Y-99030706D01*
X130746966Y-99168599D01*
X131026889Y-99253513D01*
X131245050Y-99275000D01*
X131390950Y-99275000D01*
X131609111Y-99253513D01*
X131889034Y-99168599D01*
X132147014Y-99030706D01*
X132373134Y-98845134D01*
X132558706Y-98619014D01*
X132593201Y-98554477D01*
X132662822Y-98671355D01*
X132857731Y-98887588D01*
X133091080Y-99061641D01*
X133353901Y-99186825D01*
X133501110Y-99231476D01*
X133731000Y-99110155D01*
X133731000Y-97917000D01*
X133985000Y-97917000D01*
X133985000Y-99110155D01*
X134214890Y-99231476D01*
X134362099Y-99186825D01*
X134624920Y-99061641D01*
X134858269Y-98887588D01*
X135053178Y-98671355D01*
X135202157Y-98421252D01*
X135299481Y-98146891D01*
X135178814Y-97917000D01*
X133985000Y-97917000D01*
X133731000Y-97917000D01*
X133711000Y-97917000D01*
X133711000Y-97663000D01*
X133731000Y-97663000D01*
X133731000Y-96469845D01*
X133985000Y-96469845D01*
X133985000Y-97663000D01*
X135178814Y-97663000D01*
X135299481Y-97433109D01*
X135202157Y-97158748D01*
X135053178Y-96908645D01*
X134858269Y-96692412D01*
X134624920Y-96518359D01*
X134362099Y-96393175D01*
X134214890Y-96348524D01*
X133985000Y-96469845D01*
X133731000Y-96469845D01*
X133501110Y-96348524D01*
X133353901Y-96393175D01*
X133091080Y-96518359D01*
X132857731Y-96692412D01*
X132662822Y-96908645D01*
X132593201Y-97025523D01*
X132558706Y-96960986D01*
X132373134Y-96734866D01*
X132147014Y-96549294D01*
X131889034Y-96411401D01*
X131609111Y-96326487D01*
X131390950Y-96305000D01*
X131245050Y-96305000D01*
X131026889Y-96326487D01*
X130746966Y-96411401D01*
X130488986Y-96549294D01*
X130262866Y-96734866D01*
X130077294Y-96960986D01*
X130048000Y-97015791D01*
X130018706Y-96960986D01*
X129833134Y-96734866D01*
X129607014Y-96549294D01*
X129349034Y-96411401D01*
X129069111Y-96326487D01*
X128850950Y-96305000D01*
X128705050Y-96305000D01*
X128486889Y-96326487D01*
X128206966Y-96411401D01*
X127948986Y-96549294D01*
X127722866Y-96734866D01*
X127698393Y-96764687D01*
X127677502Y-96695820D01*
X127618537Y-96585506D01*
X127539185Y-96488815D01*
X127442494Y-96409463D01*
X127332180Y-96350498D01*
X127212482Y-96314188D01*
X127088000Y-96301928D01*
X125388000Y-96301928D01*
X125263518Y-96314188D01*
X125143820Y-96350498D01*
X125033506Y-96409463D01*
X124936815Y-96488815D01*
X124857463Y-96585506D01*
X124798498Y-96695820D01*
X124762188Y-96815518D01*
X124749928Y-96940000D01*
X120040000Y-96940000D01*
X120040000Y-95305764D01*
X136489841Y-95305764D01*
X136537148Y-95529348D01*
X136758516Y-95630237D01*
X136995313Y-95686000D01*
X137238438Y-95694495D01*
X137478549Y-95655395D01*
X137706418Y-95570202D01*
X137782852Y-95529348D01*
X137830159Y-95305764D01*
X137160000Y-94635605D01*
X136489841Y-95305764D01*
X120040000Y-95305764D01*
X120040000Y-94534438D01*
X135921505Y-94534438D01*
X135960605Y-94774549D01*
X136045798Y-95002418D01*
X136086652Y-95078852D01*
X136310236Y-95126159D01*
X136980395Y-94456000D01*
X136966253Y-94441858D01*
X137145858Y-94262253D01*
X137160000Y-94276395D01*
X137174143Y-94262253D01*
X137353748Y-94441858D01*
X137339605Y-94456000D01*
X138009764Y-95126159D01*
X138233348Y-95078852D01*
X138334237Y-94857484D01*
X138390000Y-94620687D01*
X138398495Y-94377562D01*
X138359395Y-94137451D01*
X138274202Y-93909582D01*
X138233348Y-93833148D01*
X138009766Y-93785842D01*
X138126872Y-93668736D01*
X138068994Y-93610858D01*
X138114494Y-93586537D01*
X138211185Y-93507185D01*
X138290537Y-93410494D01*
X138349502Y-93300180D01*
X138385812Y-93180482D01*
X138398072Y-93056000D01*
X138398072Y-91856000D01*
X138385812Y-91731518D01*
X138349502Y-91611820D01*
X138290537Y-91501506D01*
X138211185Y-91404815D01*
X138114494Y-91325463D01*
X138004180Y-91266498D01*
X137884482Y-91230188D01*
X137760000Y-91217928D01*
X136560000Y-91217928D01*
X136435518Y-91230188D01*
X136315820Y-91266498D01*
X136205506Y-91325463D01*
X136108815Y-91404815D01*
X136029463Y-91501506D01*
X135970498Y-91611820D01*
X135934188Y-91731518D01*
X135921928Y-91856000D01*
X135921928Y-93056000D01*
X135934188Y-93180482D01*
X135970498Y-93300180D01*
X136029463Y-93410494D01*
X136108815Y-93507185D01*
X136205506Y-93586537D01*
X136251006Y-93610858D01*
X136193128Y-93668736D01*
X136310234Y-93785842D01*
X136086652Y-93833148D01*
X135985763Y-94054516D01*
X135930000Y-94291313D01*
X135921505Y-94534438D01*
X120040000Y-94534438D01*
X120040000Y-88520514D01*
X125158500Y-88520514D01*
X125158500Y-88771485D01*
X125181470Y-89004703D01*
X125272245Y-89303948D01*
X125419655Y-89579734D01*
X125618037Y-89821463D01*
X125859765Y-90019845D01*
X126135551Y-90167255D01*
X126434796Y-90258030D01*
X126746000Y-90288681D01*
X127057203Y-90258030D01*
X127356448Y-90167255D01*
X127632234Y-90019845D01*
X127873963Y-89821463D01*
X128021163Y-89642101D01*
X128176563Y-89827315D01*
X128419077Y-90021969D01*
X128694906Y-90165571D01*
X128913020Y-90236563D01*
X129159000Y-90116594D01*
X129159000Y-88773000D01*
X129139000Y-88773000D01*
X129139000Y-88519000D01*
X129159000Y-88519000D01*
X129159000Y-87175406D01*
X129413000Y-87175406D01*
X129413000Y-88519000D01*
X129433000Y-88519000D01*
X129433000Y-88773000D01*
X129413000Y-88773000D01*
X129413000Y-90116594D01*
X129658980Y-90236563D01*
X129877094Y-90165571D01*
X130152923Y-90021969D01*
X130293941Y-89908781D01*
X130342963Y-90000494D01*
X130422315Y-90097185D01*
X130519006Y-90176537D01*
X130629320Y-90235502D01*
X130749018Y-90271812D01*
X130873500Y-90284072D01*
X132778500Y-90284072D01*
X132902982Y-90271812D01*
X133022680Y-90235502D01*
X133132994Y-90176537D01*
X133229685Y-90097185D01*
X133309037Y-90000494D01*
X133368002Y-89890180D01*
X133404312Y-89770482D01*
X133416572Y-89646000D01*
X133416572Y-87646000D01*
X133404312Y-87521518D01*
X133368002Y-87401820D01*
X133309037Y-87291506D01*
X133229685Y-87194815D01*
X133132994Y-87115463D01*
X133022680Y-87056498D01*
X132902982Y-87020188D01*
X132778500Y-87007928D01*
X130873500Y-87007928D01*
X130749018Y-87020188D01*
X130629320Y-87056498D01*
X130519006Y-87115463D01*
X130422315Y-87194815D01*
X130342963Y-87291506D01*
X130293941Y-87383219D01*
X130152923Y-87270031D01*
X129877094Y-87126429D01*
X129658980Y-87055437D01*
X129413000Y-87175406D01*
X129159000Y-87175406D01*
X128913020Y-87055437D01*
X128694906Y-87126429D01*
X128419077Y-87270031D01*
X128176563Y-87464685D01*
X128021162Y-87649900D01*
X127873963Y-87470537D01*
X127632235Y-87272155D01*
X127356449Y-87124745D01*
X127057204Y-87033970D01*
X126746000Y-87003319D01*
X126434797Y-87033970D01*
X126135552Y-87124745D01*
X125859766Y-87272155D01*
X125618037Y-87470537D01*
X125419655Y-87712265D01*
X125272245Y-87988051D01*
X125181470Y-88287296D01*
X125158500Y-88520514D01*
X120040000Y-88520514D01*
X120040000Y-51460000D01*
X140056001Y-51460000D01*
X140056000Y-99416000D01*
X140056000Y-99416000D01*
G37*
X140056000Y-99416000D02*
X120040000Y-99416000D01*
X120040000Y-96940000D01*
X124749928Y-96940000D01*
X124749928Y-98640000D01*
X124762188Y-98764482D01*
X124798498Y-98884180D01*
X124857463Y-98994494D01*
X124936815Y-99091185D01*
X125033506Y-99170537D01*
X125143820Y-99229502D01*
X125263518Y-99265812D01*
X125388000Y-99278072D01*
X127088000Y-99278072D01*
X127212482Y-99265812D01*
X127332180Y-99229502D01*
X127442494Y-99170537D01*
X127539185Y-99091185D01*
X127618537Y-98994494D01*
X127677502Y-98884180D01*
X127698393Y-98815313D01*
X127722866Y-98845134D01*
X127948986Y-99030706D01*
X128206966Y-99168599D01*
X128486889Y-99253513D01*
X128705050Y-99275000D01*
X128850950Y-99275000D01*
X129069111Y-99253513D01*
X129349034Y-99168599D01*
X129607014Y-99030706D01*
X129833134Y-98845134D01*
X130018706Y-98619014D01*
X130048000Y-98564209D01*
X130077294Y-98619014D01*
X130262866Y-98845134D01*
X130488986Y-99030706D01*
X130746966Y-99168599D01*
X131026889Y-99253513D01*
X131245050Y-99275000D01*
X131390950Y-99275000D01*
X131609111Y-99253513D01*
X131889034Y-99168599D01*
X132147014Y-99030706D01*
X132373134Y-98845134D01*
X132558706Y-98619014D01*
X132593201Y-98554477D01*
X132662822Y-98671355D01*
X132857731Y-98887588D01*
X133091080Y-99061641D01*
X133353901Y-99186825D01*
X133501110Y-99231476D01*
X133731000Y-99110155D01*
X133731000Y-97917000D01*
X133985000Y-97917000D01*
X133985000Y-99110155D01*
X134214890Y-99231476D01*
X134362099Y-99186825D01*
X134624920Y-99061641D01*
X134858269Y-98887588D01*
X135053178Y-98671355D01*
X135202157Y-98421252D01*
X135299481Y-98146891D01*
X135178814Y-97917000D01*
X133985000Y-97917000D01*
X133731000Y-97917000D01*
X133711000Y-97917000D01*
X133711000Y-97663000D01*
X133731000Y-97663000D01*
X133731000Y-96469845D01*
X133985000Y-96469845D01*
X133985000Y-97663000D01*
X135178814Y-97663000D01*
X135299481Y-97433109D01*
X135202157Y-97158748D01*
X135053178Y-96908645D01*
X134858269Y-96692412D01*
X134624920Y-96518359D01*
X134362099Y-96393175D01*
X134214890Y-96348524D01*
X133985000Y-96469845D01*
X133731000Y-96469845D01*
X133501110Y-96348524D01*
X133353901Y-96393175D01*
X133091080Y-96518359D01*
X132857731Y-96692412D01*
X132662822Y-96908645D01*
X132593201Y-97025523D01*
X132558706Y-96960986D01*
X132373134Y-96734866D01*
X132147014Y-96549294D01*
X131889034Y-96411401D01*
X131609111Y-96326487D01*
X131390950Y-96305000D01*
X131245050Y-96305000D01*
X131026889Y-96326487D01*
X130746966Y-96411401D01*
X130488986Y-96549294D01*
X130262866Y-96734866D01*
X130077294Y-96960986D01*
X130048000Y-97015791D01*
X130018706Y-96960986D01*
X129833134Y-96734866D01*
X129607014Y-96549294D01*
X129349034Y-96411401D01*
X129069111Y-96326487D01*
X128850950Y-96305000D01*
X128705050Y-96305000D01*
X128486889Y-96326487D01*
X128206966Y-96411401D01*
X127948986Y-96549294D01*
X127722866Y-96734866D01*
X127698393Y-96764687D01*
X127677502Y-96695820D01*
X127618537Y-96585506D01*
X127539185Y-96488815D01*
X127442494Y-96409463D01*
X127332180Y-96350498D01*
X127212482Y-96314188D01*
X127088000Y-96301928D01*
X125388000Y-96301928D01*
X125263518Y-96314188D01*
X125143820Y-96350498D01*
X125033506Y-96409463D01*
X124936815Y-96488815D01*
X124857463Y-96585506D01*
X124798498Y-96695820D01*
X124762188Y-96815518D01*
X124749928Y-96940000D01*
X120040000Y-96940000D01*
X120040000Y-95305764D01*
X136489841Y-95305764D01*
X136537148Y-95529348D01*
X136758516Y-95630237D01*
X136995313Y-95686000D01*
X137238438Y-95694495D01*
X137478549Y-95655395D01*
X137706418Y-95570202D01*
X137782852Y-95529348D01*
X137830159Y-95305764D01*
X137160000Y-94635605D01*
X136489841Y-95305764D01*
X120040000Y-95305764D01*
X120040000Y-94534438D01*
X135921505Y-94534438D01*
X135960605Y-94774549D01*
X136045798Y-95002418D01*
X136086652Y-95078852D01*
X136310236Y-95126159D01*
X136980395Y-94456000D01*
X136966253Y-94441858D01*
X137145858Y-94262253D01*
X137160000Y-94276395D01*
X137174143Y-94262253D01*
X137353748Y-94441858D01*
X137339605Y-94456000D01*
X138009764Y-95126159D01*
X138233348Y-95078852D01*
X138334237Y-94857484D01*
X138390000Y-94620687D01*
X138398495Y-94377562D01*
X138359395Y-94137451D01*
X138274202Y-93909582D01*
X138233348Y-93833148D01*
X138009766Y-93785842D01*
X138126872Y-93668736D01*
X138068994Y-93610858D01*
X138114494Y-93586537D01*
X138211185Y-93507185D01*
X138290537Y-93410494D01*
X138349502Y-93300180D01*
X138385812Y-93180482D01*
X138398072Y-93056000D01*
X138398072Y-91856000D01*
X138385812Y-91731518D01*
X138349502Y-91611820D01*
X138290537Y-91501506D01*
X138211185Y-91404815D01*
X138114494Y-91325463D01*
X138004180Y-91266498D01*
X137884482Y-91230188D01*
X137760000Y-91217928D01*
X136560000Y-91217928D01*
X136435518Y-91230188D01*
X136315820Y-91266498D01*
X136205506Y-91325463D01*
X136108815Y-91404815D01*
X136029463Y-91501506D01*
X135970498Y-91611820D01*
X135934188Y-91731518D01*
X135921928Y-91856000D01*
X135921928Y-93056000D01*
X135934188Y-93180482D01*
X135970498Y-93300180D01*
X136029463Y-93410494D01*
X136108815Y-93507185D01*
X136205506Y-93586537D01*
X136251006Y-93610858D01*
X136193128Y-93668736D01*
X136310234Y-93785842D01*
X136086652Y-93833148D01*
X135985763Y-94054516D01*
X135930000Y-94291313D01*
X135921505Y-94534438D01*
X120040000Y-94534438D01*
X120040000Y-88520514D01*
X125158500Y-88520514D01*
X125158500Y-88771485D01*
X125181470Y-89004703D01*
X125272245Y-89303948D01*
X125419655Y-89579734D01*
X125618037Y-89821463D01*
X125859765Y-90019845D01*
X126135551Y-90167255D01*
X126434796Y-90258030D01*
X126746000Y-90288681D01*
X127057203Y-90258030D01*
X127356448Y-90167255D01*
X127632234Y-90019845D01*
X127873963Y-89821463D01*
X128021163Y-89642101D01*
X128176563Y-89827315D01*
X128419077Y-90021969D01*
X128694906Y-90165571D01*
X128913020Y-90236563D01*
X129159000Y-90116594D01*
X129159000Y-88773000D01*
X129139000Y-88773000D01*
X129139000Y-88519000D01*
X129159000Y-88519000D01*
X129159000Y-87175406D01*
X129413000Y-87175406D01*
X129413000Y-88519000D01*
X129433000Y-88519000D01*
X129433000Y-88773000D01*
X129413000Y-88773000D01*
X129413000Y-90116594D01*
X129658980Y-90236563D01*
X129877094Y-90165571D01*
X130152923Y-90021969D01*
X130293941Y-89908781D01*
X130342963Y-90000494D01*
X130422315Y-90097185D01*
X130519006Y-90176537D01*
X130629320Y-90235502D01*
X130749018Y-90271812D01*
X130873500Y-90284072D01*
X132778500Y-90284072D01*
X132902982Y-90271812D01*
X133022680Y-90235502D01*
X133132994Y-90176537D01*
X133229685Y-90097185D01*
X133309037Y-90000494D01*
X133368002Y-89890180D01*
X133404312Y-89770482D01*
X133416572Y-89646000D01*
X133416572Y-87646000D01*
X133404312Y-87521518D01*
X133368002Y-87401820D01*
X133309037Y-87291506D01*
X133229685Y-87194815D01*
X133132994Y-87115463D01*
X133022680Y-87056498D01*
X132902982Y-87020188D01*
X132778500Y-87007928D01*
X130873500Y-87007928D01*
X130749018Y-87020188D01*
X130629320Y-87056498D01*
X130519006Y-87115463D01*
X130422315Y-87194815D01*
X130342963Y-87291506D01*
X130293941Y-87383219D01*
X130152923Y-87270031D01*
X129877094Y-87126429D01*
X129658980Y-87055437D01*
X129413000Y-87175406D01*
X129159000Y-87175406D01*
X128913020Y-87055437D01*
X128694906Y-87126429D01*
X128419077Y-87270031D01*
X128176563Y-87464685D01*
X128021162Y-87649900D01*
X127873963Y-87470537D01*
X127632235Y-87272155D01*
X127356449Y-87124745D01*
X127057204Y-87033970D01*
X126746000Y-87003319D01*
X126434797Y-87033970D01*
X126135552Y-87124745D01*
X125859766Y-87272155D01*
X125618037Y-87470537D01*
X125419655Y-87712265D01*
X125272245Y-87988051D01*
X125181470Y-88287296D01*
X125158500Y-88520514D01*
X120040000Y-88520514D01*
X120040000Y-51460000D01*
X140056001Y-51460000D01*
X140056000Y-99416000D01*
M02*
