G04 #@! TF.GenerationSoftware,KiCad,Pcbnew,(5.1.0)-1*
G04 #@! TF.CreationDate,2019-04-05T23:44:47+02:00*
G04 #@! TF.ProjectId,BT_module,42545f6d-6f64-4756-9c65-2e6b69636164,rev?*
G04 #@! TF.SameCoordinates,Original*
G04 #@! TF.FileFunction,Legend,Top*
G04 #@! TF.FilePolarity,Positive*
%FSLAX46Y46*%
G04 Gerber Fmt 4.6, Leading zero omitted, Abs format (unit mm)*
G04 Created by KiCad (PCBNEW (5.1.0)-1) date 2019-04-05 23:44:47*
%MOMM*%
%LPD*%
G04 APERTURE LIST*
%ADD10C,0.150000*%
%ADD11C,0.120000*%
%ADD12C,0.200000*%
G04 APERTURE END LIST*
D10*
X124754000Y-94956380D02*
X125325428Y-94956380D01*
X125039714Y-95956380D02*
X125039714Y-94956380D01*
X125563523Y-94956380D02*
X126230190Y-95956380D01*
X126230190Y-94956380D02*
X125563523Y-95956380D01*
X128706380Y-95956380D02*
X128373047Y-95480190D01*
X128134952Y-95956380D02*
X128134952Y-94956380D01*
X128515904Y-94956380D01*
X128611142Y-95004000D01*
X128658761Y-95051619D01*
X128706380Y-95146857D01*
X128706380Y-95289714D01*
X128658761Y-95384952D01*
X128611142Y-95432571D01*
X128515904Y-95480190D01*
X128134952Y-95480190D01*
X129039714Y-94956380D02*
X129706380Y-95956380D01*
X129706380Y-94956380D02*
X129039714Y-95956380D01*
D11*
X133806000Y-93709748D02*
X133806000Y-94232252D01*
X132386000Y-93709748D02*
X132386000Y-94232252D01*
X139280000Y-93456000D02*
G75*
G03X139280000Y-93456000I-2120000J0D01*
G01*
X139240000Y-93456000D02*
X135080000Y-93456000D01*
X139240000Y-93496000D02*
X135080000Y-93496000D01*
X139239000Y-93536000D02*
X135081000Y-93536000D01*
X139237000Y-93576000D02*
X135083000Y-93576000D01*
X139234000Y-93616000D02*
X135086000Y-93616000D01*
X139231000Y-93656000D02*
X138000000Y-93656000D01*
X136320000Y-93656000D02*
X135089000Y-93656000D01*
X139227000Y-93696000D02*
X138000000Y-93696000D01*
X136320000Y-93696000D02*
X135093000Y-93696000D01*
X139222000Y-93736000D02*
X138000000Y-93736000D01*
X136320000Y-93736000D02*
X135098000Y-93736000D01*
X139216000Y-93776000D02*
X138000000Y-93776000D01*
X136320000Y-93776000D02*
X135104000Y-93776000D01*
X139210000Y-93816000D02*
X138000000Y-93816000D01*
X136320000Y-93816000D02*
X135110000Y-93816000D01*
X139202000Y-93856000D02*
X138000000Y-93856000D01*
X136320000Y-93856000D02*
X135118000Y-93856000D01*
X139194000Y-93896000D02*
X138000000Y-93896000D01*
X136320000Y-93896000D02*
X135126000Y-93896000D01*
X139185000Y-93936000D02*
X138000000Y-93936000D01*
X136320000Y-93936000D02*
X135135000Y-93936000D01*
X139176000Y-93976000D02*
X138000000Y-93976000D01*
X136320000Y-93976000D02*
X135144000Y-93976000D01*
X139165000Y-94016000D02*
X138000000Y-94016000D01*
X136320000Y-94016000D02*
X135155000Y-94016000D01*
X139154000Y-94056000D02*
X138000000Y-94056000D01*
X136320000Y-94056000D02*
X135166000Y-94056000D01*
X139142000Y-94096000D02*
X138000000Y-94096000D01*
X136320000Y-94096000D02*
X135178000Y-94096000D01*
X139128000Y-94136000D02*
X138000000Y-94136000D01*
X136320000Y-94136000D02*
X135192000Y-94136000D01*
X139114000Y-94177000D02*
X138000000Y-94177000D01*
X136320000Y-94177000D02*
X135206000Y-94177000D01*
X139100000Y-94217000D02*
X138000000Y-94217000D01*
X136320000Y-94217000D02*
X135220000Y-94217000D01*
X139084000Y-94257000D02*
X138000000Y-94257000D01*
X136320000Y-94257000D02*
X135236000Y-94257000D01*
X139067000Y-94297000D02*
X138000000Y-94297000D01*
X136320000Y-94297000D02*
X135253000Y-94297000D01*
X139049000Y-94337000D02*
X138000000Y-94337000D01*
X136320000Y-94337000D02*
X135271000Y-94337000D01*
X139030000Y-94377000D02*
X138000000Y-94377000D01*
X136320000Y-94377000D02*
X135290000Y-94377000D01*
X139011000Y-94417000D02*
X138000000Y-94417000D01*
X136320000Y-94417000D02*
X135309000Y-94417000D01*
X138990000Y-94457000D02*
X138000000Y-94457000D01*
X136320000Y-94457000D02*
X135330000Y-94457000D01*
X138968000Y-94497000D02*
X138000000Y-94497000D01*
X136320000Y-94497000D02*
X135352000Y-94497000D01*
X138945000Y-94537000D02*
X138000000Y-94537000D01*
X136320000Y-94537000D02*
X135375000Y-94537000D01*
X138920000Y-94577000D02*
X138000000Y-94577000D01*
X136320000Y-94577000D02*
X135400000Y-94577000D01*
X138895000Y-94617000D02*
X138000000Y-94617000D01*
X136320000Y-94617000D02*
X135425000Y-94617000D01*
X138868000Y-94657000D02*
X138000000Y-94657000D01*
X136320000Y-94657000D02*
X135452000Y-94657000D01*
X138840000Y-94697000D02*
X138000000Y-94697000D01*
X136320000Y-94697000D02*
X135480000Y-94697000D01*
X138810000Y-94737000D02*
X138000000Y-94737000D01*
X136320000Y-94737000D02*
X135510000Y-94737000D01*
X138779000Y-94777000D02*
X138000000Y-94777000D01*
X136320000Y-94777000D02*
X135541000Y-94777000D01*
X138747000Y-94817000D02*
X138000000Y-94817000D01*
X136320000Y-94817000D02*
X135573000Y-94817000D01*
X138712000Y-94857000D02*
X138000000Y-94857000D01*
X136320000Y-94857000D02*
X135608000Y-94857000D01*
X138676000Y-94897000D02*
X138000000Y-94897000D01*
X136320000Y-94897000D02*
X135644000Y-94897000D01*
X138638000Y-94937000D02*
X138000000Y-94937000D01*
X136320000Y-94937000D02*
X135682000Y-94937000D01*
X138598000Y-94977000D02*
X138000000Y-94977000D01*
X136320000Y-94977000D02*
X135722000Y-94977000D01*
X138556000Y-95017000D02*
X138000000Y-95017000D01*
X136320000Y-95017000D02*
X135764000Y-95017000D01*
X138511000Y-95057000D02*
X138000000Y-95057000D01*
X136320000Y-95057000D02*
X135809000Y-95057000D01*
X138464000Y-95097000D02*
X138000000Y-95097000D01*
X136320000Y-95097000D02*
X135856000Y-95097000D01*
X138414000Y-95137000D02*
X138000000Y-95137000D01*
X136320000Y-95137000D02*
X135906000Y-95137000D01*
X138360000Y-95177000D02*
X138000000Y-95177000D01*
X136320000Y-95177000D02*
X135960000Y-95177000D01*
X138302000Y-95217000D02*
X138000000Y-95217000D01*
X136320000Y-95217000D02*
X136018000Y-95217000D01*
X138240000Y-95257000D02*
X138000000Y-95257000D01*
X136320000Y-95257000D02*
X136080000Y-95257000D01*
X138173000Y-95297000D02*
X136147000Y-95297000D01*
X138100000Y-95337000D02*
X136220000Y-95337000D01*
X138019000Y-95377000D02*
X136301000Y-95377000D01*
X137928000Y-95417000D02*
X136392000Y-95417000D01*
X137824000Y-95457000D02*
X136496000Y-95457000D01*
X137697000Y-95497000D02*
X136623000Y-95497000D01*
X137530000Y-95537000D02*
X136790000Y-95537000D01*
X138355000Y-91186199D02*
X138355000Y-91586199D01*
X138555000Y-91386199D02*
X138155000Y-91386199D01*
X127508000Y-99120000D02*
X127508000Y-96460000D01*
X127508000Y-99120000D02*
X135188000Y-99120000D01*
X135188000Y-99120000D02*
X135188000Y-96460000D01*
X127508000Y-96460000D02*
X135188000Y-96460000D01*
X124908000Y-96460000D02*
X126238000Y-96460000D01*
X124908000Y-97790000D02*
X124908000Y-96460000D01*
X134406000Y-91916000D02*
X124166000Y-91916000D01*
X134406000Y-87275000D02*
X124166000Y-87275000D01*
X134406000Y-91916000D02*
X134406000Y-87275000D01*
X124166000Y-91916000D02*
X124166000Y-87275000D01*
X134406000Y-90406000D02*
X124166000Y-90406000D01*
X131136000Y-91916000D02*
X131136000Y-90406000D01*
X127435000Y-91916000D02*
X127435000Y-90406000D01*
D12*
X138274001Y-85190001D02*
X122274001Y-85190001D01*
X138274001Y-53440001D02*
X138274001Y-85190001D01*
X122274001Y-53440001D02*
X138274001Y-53440001D01*
X122274001Y-85190001D02*
X122274001Y-53440001D01*
D10*
X135103142Y-94137666D02*
X135150761Y-94185285D01*
X135198380Y-94328142D01*
X135198380Y-94423380D01*
X135150761Y-94566238D01*
X135055523Y-94661476D01*
X134960285Y-94709095D01*
X134769809Y-94756714D01*
X134626952Y-94756714D01*
X134436476Y-94709095D01*
X134341238Y-94661476D01*
X134246000Y-94566238D01*
X134198380Y-94423380D01*
X134198380Y-94328142D01*
X134246000Y-94185285D01*
X134293619Y-94137666D01*
X135198380Y-93185285D02*
X135198380Y-93756714D01*
X135198380Y-93471000D02*
X134198380Y-93471000D01*
X134341238Y-93566238D01*
X134436476Y-93661476D01*
X134484095Y-93756714D01*
X140767142Y-93622666D02*
X140814761Y-93670285D01*
X140862380Y-93813142D01*
X140862380Y-93908380D01*
X140814761Y-94051238D01*
X140719523Y-94146476D01*
X140624285Y-94194095D01*
X140433809Y-94241714D01*
X140290952Y-94241714D01*
X140100476Y-94194095D01*
X140005238Y-94146476D01*
X139910000Y-94051238D01*
X139862380Y-93908380D01*
X139862380Y-93813142D01*
X139910000Y-93670285D01*
X139957619Y-93622666D01*
X139957619Y-93241714D02*
X139910000Y-93194095D01*
X139862380Y-93098857D01*
X139862380Y-92860761D01*
X139910000Y-92765523D01*
X139957619Y-92717904D01*
X140052857Y-92670285D01*
X140148095Y-92670285D01*
X140290952Y-92717904D01*
X140862380Y-93289333D01*
X140862380Y-92670285D01*
X122920380Y-98123333D02*
X123634666Y-98123333D01*
X123777523Y-98170952D01*
X123872761Y-98266190D01*
X123920380Y-98409047D01*
X123920380Y-98504285D01*
X123920380Y-97123333D02*
X123920380Y-97694761D01*
X123920380Y-97409047D02*
X122920380Y-97409047D01*
X123063238Y-97504285D01*
X123158476Y-97599523D01*
X123206095Y-97694761D01*
X128524095Y-92368380D02*
X128524095Y-93177904D01*
X128571714Y-93273142D01*
X128619333Y-93320761D01*
X128714571Y-93368380D01*
X128905047Y-93368380D01*
X129000285Y-93320761D01*
X129047904Y-93273142D01*
X129095523Y-93177904D01*
X129095523Y-92368380D01*
X130095523Y-93368380D02*
X129524095Y-93368380D01*
X129809809Y-93368380D02*
X129809809Y-92368380D01*
X129714571Y-92511238D01*
X129619333Y-92606476D01*
X129524095Y-92654095D01*
D12*
X129512096Y-85892381D02*
X129512096Y-86701905D01*
X129559715Y-86797143D01*
X129607334Y-86844762D01*
X129702572Y-86892381D01*
X129893048Y-86892381D01*
X129988286Y-86844762D01*
X130035905Y-86797143D01*
X130083524Y-86701905D01*
X130083524Y-85892381D01*
X130512096Y-85987620D02*
X130559715Y-85940001D01*
X130654953Y-85892381D01*
X130893048Y-85892381D01*
X130988286Y-85940001D01*
X131035905Y-85987620D01*
X131083524Y-86082858D01*
X131083524Y-86178096D01*
X131035905Y-86320953D01*
X130464477Y-86892381D01*
X131083524Y-86892381D01*
X125559715Y-52642381D02*
X125559715Y-51642381D01*
X125559715Y-52118572D02*
X126131143Y-52118572D01*
X126131143Y-52642381D02*
X126131143Y-51642381D01*
X127178762Y-52547143D02*
X127131143Y-52594762D01*
X126988286Y-52642381D01*
X126893048Y-52642381D01*
X126750191Y-52594762D01*
X126654953Y-52499524D01*
X126607334Y-52404286D01*
X126559715Y-52213810D01*
X126559715Y-52070953D01*
X126607334Y-51880477D01*
X126654953Y-51785239D01*
X126750191Y-51690001D01*
X126893048Y-51642381D01*
X126988286Y-51642381D01*
X127131143Y-51690001D01*
X127178762Y-51737620D01*
X127607334Y-52261429D02*
X128369239Y-52261429D01*
X129035905Y-51642381D02*
X129131143Y-51642381D01*
X129226381Y-51690001D01*
X129274001Y-51737620D01*
X129321620Y-51832858D01*
X129369239Y-52023334D01*
X129369239Y-52261429D01*
X129321620Y-52451905D01*
X129274001Y-52547143D01*
X129226381Y-52594762D01*
X129131143Y-52642381D01*
X129035905Y-52642381D01*
X128940667Y-52594762D01*
X128893048Y-52547143D01*
X128845429Y-52451905D01*
X128797810Y-52261429D01*
X128797810Y-52023334D01*
X128845429Y-51832858D01*
X128893048Y-51737620D01*
X128940667Y-51690001D01*
X129035905Y-51642381D01*
X130226381Y-51642381D02*
X130035905Y-51642381D01*
X129940667Y-51690001D01*
X129893048Y-51737620D01*
X129797810Y-51880477D01*
X129750191Y-52070953D01*
X129750191Y-52451905D01*
X129797810Y-52547143D01*
X129845429Y-52594762D01*
X129940667Y-52642381D01*
X130131143Y-52642381D01*
X130226381Y-52594762D01*
X130274001Y-52547143D01*
X130321620Y-52451905D01*
X130321620Y-52213810D01*
X130274001Y-52118572D01*
X130226381Y-52070953D01*
X130131143Y-52023334D01*
X129940667Y-52023334D01*
X129845429Y-52070953D01*
X129797810Y-52118572D01*
X129750191Y-52213810D01*
X130512096Y-52737620D02*
X131274001Y-52737620D01*
X131512096Y-52642381D02*
X131512096Y-51642381D01*
X131512096Y-52023334D02*
X131607334Y-51975715D01*
X131797810Y-51975715D01*
X131893048Y-52023334D01*
X131940667Y-52070953D01*
X131988286Y-52166191D01*
X131988286Y-52451905D01*
X131940667Y-52547143D01*
X131893048Y-52594762D01*
X131797810Y-52642381D01*
X131607334Y-52642381D01*
X131512096Y-52594762D01*
X132845429Y-52642381D02*
X132845429Y-52118572D01*
X132797810Y-52023334D01*
X132702572Y-51975715D01*
X132512096Y-51975715D01*
X132416858Y-52023334D01*
X132845429Y-52594762D02*
X132750191Y-52642381D01*
X132512096Y-52642381D01*
X132416858Y-52594762D01*
X132369239Y-52499524D01*
X132369239Y-52404286D01*
X132416858Y-52309048D01*
X132512096Y-52261429D01*
X132750191Y-52261429D01*
X132845429Y-52213810D01*
X133274001Y-52594762D02*
X133369239Y-52642381D01*
X133559715Y-52642381D01*
X133654953Y-52594762D01*
X133702572Y-52499524D01*
X133702572Y-52451905D01*
X133654953Y-52356667D01*
X133559715Y-52309048D01*
X133416858Y-52309048D01*
X133321620Y-52261429D01*
X133274001Y-52166191D01*
X133274001Y-52118572D01*
X133321620Y-52023334D01*
X133416858Y-51975715D01*
X133559715Y-51975715D01*
X133654953Y-52023334D01*
X134131143Y-52642381D02*
X134131143Y-51975715D01*
X134131143Y-51642381D02*
X134083524Y-51690001D01*
X134131143Y-51737620D01*
X134178762Y-51690001D01*
X134131143Y-51642381D01*
X134131143Y-51737620D01*
X135035905Y-52594762D02*
X134940667Y-52642381D01*
X134750191Y-52642381D01*
X134654953Y-52594762D01*
X134607334Y-52547143D01*
X134559715Y-52451905D01*
X134559715Y-52166191D01*
X134607334Y-52070953D01*
X134654953Y-52023334D01*
X134750191Y-51975715D01*
X134940667Y-51975715D01*
X135035905Y-52023334D01*
M02*
