M48
; DRILL file {KiCad (5.1.0)-1} date 05.04.2019 22:26:41
; FORMAT={-:-/ absolute / metric / decimal}
; #@! TF.CreationDate,2019-04-05T22:26:41+02:00
; #@! TF.GenerationSoftware,Kicad,Pcbnew,(5.1.0)-1
; #@! TF.FileFunction,Plated,1,2,PTH
FMAT,2
METRIC
T1C0.400
T2C0.750
T3C0.762
T4C0.800
T5C0.920
T6C1.000
T7C1.100
T8C2.330
T9C3.200
%
G90
G05
T1
X25.157Y-66.029
X35.052Y-71.374
X38.354Y-66.294
X39.116Y-29.464
X41.148Y-58.674
X41.656Y-31.496
X64.262Y-79.248
X71.12Y-27.178
X73.66Y-70.358
X76.454Y-26.67
X77.216Y-28.702
X107.188Y-84.582
T2
X71.882Y-45.466
X93.98Y-93.218
X95.25Y-91.948
X95.25Y-94.488
X83.566Y-26.162
X84.836Y-24.892
X84.836Y-27.432
X20.32Y-80.01
X21.59Y-78.74
X21.59Y-81.28
X83.693Y-55.626
X84.963Y-54.356
X84.963Y-56.896
X20.32Y-92.71
X21.59Y-91.44
X21.59Y-93.98
X93.98Y-80.01
X95.25Y-78.74
X95.25Y-81.28
X83.693Y-42.291
X84.963Y-41.166
X84.963Y-43.561
X83.566Y-12.446
X84.836Y-11.176
X84.836Y-13.716
T3
X45.11Y-17.501
X45.11Y-20.041
X45.11Y-22.581
X45.11Y-25.121
X45.11Y-27.661
X45.11Y-30.201
X45.11Y-32.741
X45.11Y-35.281
X45.11Y-37.821
X45.11Y-40.361
X45.11Y-42.901
X45.11Y-45.441
X45.11Y-47.981
X45.11Y-50.521
X45.11Y-53.061
X45.11Y-55.601
X45.11Y-58.141
X45.11Y-60.681
X45.11Y-63.221
X45.11Y-65.761
X60.35Y-17.501
X60.35Y-20.041
X60.35Y-22.581
X60.35Y-25.121
X60.35Y-27.661
X60.35Y-30.201
X60.35Y-32.741
X60.35Y-35.281
X60.35Y-37.821
X60.35Y-40.361
X60.35Y-42.901
X60.35Y-45.441
X60.35Y-47.981
X60.35Y-50.521
X60.35Y-53.061
X60.35Y-55.601
X60.35Y-58.141
X60.35Y-60.681
X60.35Y-63.221
X60.35Y-65.761
X14.986Y-10.795
X14.986Y-50.165
X32.766Y-10.795
X32.766Y-50.165
T4
X119.38Y-74.676
X127.0Y-74.676
X109.22Y-21.082
X116.84Y-21.082
X45.974Y-74.676
X53.594Y-74.676
X99.06Y-21.082
X106.68Y-21.082
X109.093Y-36.576
X116.713Y-36.576
X36.068Y-87.63
X43.688Y-87.63
X68.834Y-32.766
X68.834Y-35.306
X68.834Y-37.846
X68.834Y-40.386
X68.834Y-42.926
X68.834Y-45.466
X68.834Y-48.006
X76.454Y-32.766
X76.454Y-35.306
X76.454Y-37.846
X76.454Y-40.386
X76.454Y-42.926
X76.454Y-45.466
X76.454Y-48.006
X119.38Y-87.884
X127.0Y-87.884
X36.068Y-74.676
X43.688Y-74.676
X99.06Y-7.112
X106.68Y-7.112
X109.22Y-7.112
X116.84Y-7.112
X29.75Y-68.58
X31.75Y-68.58
X109.22Y-74.676
X116.84Y-74.676
X109.22Y-87.884
X116.84Y-87.884
X98.933Y-36.576
X106.553Y-36.576
X45.974Y-87.63
X53.594Y-87.63
X98.933Y-50.546
X106.553Y-50.546
X109.093Y-50.546
X116.713Y-50.546
X68.834Y-7.62
X68.834Y-10.16
X68.834Y-12.7
X68.834Y-15.24
X68.834Y-17.78
X68.834Y-20.32
X68.834Y-22.86
X76.454Y-7.62
X76.454Y-10.16
X76.454Y-12.7
X76.454Y-15.24
X76.454Y-17.78
X76.454Y-20.32
X76.454Y-22.86
T5
X14.002Y-62.016
X14.002Y-64.516
X16.002Y-62.016
X16.002Y-64.516
T6
X85.598Y-86.614
X88.138Y-86.614
X60.452Y-86.614
X62.992Y-86.614
X7.366Y-21.336
X7.366Y-23.876
X7.366Y-26.416
X7.366Y-28.956
X5.588Y-10.922
X8.128Y-10.922
X38.608Y-10.414
X41.148Y-10.414
X43.688Y-10.414
X123.063Y-44.831
X123.063Y-47.371
X39.878Y-46.736
X39.878Y-49.276
X7.366Y-36.83
X7.366Y-39.37
X7.366Y-41.91
X7.366Y-44.45
X48.768Y-10.414
X51.308Y-10.414
X53.848Y-10.414
X71.882Y-80.264
X74.422Y-80.264
X76.962Y-80.264
X122.936Y-15.24
X122.936Y-17.78
X69.342Y-86.614
X71.882Y-86.614
X74.422Y-86.614
X76.962Y-86.614
X79.502Y-86.614
T7
X116.84Y-93.218
X119.38Y-93.218
X121.92Y-93.218
X43.434Y-92.964
X45.974Y-92.964
X48.514Y-92.964
X93.98Y-26.162
X96.52Y-26.162
X99.06Y-26.162
X93.853Y-42.291
X96.393Y-42.291
X98.933Y-42.291
X104.14Y-80.264
X106.68Y-80.264
X109.22Y-80.264
X116.84Y-80.264
X119.38Y-80.264
X121.92Y-80.264
X30.988Y-92.964
X33.528Y-92.964
X36.068Y-92.964
X93.853Y-55.626
X96.393Y-55.626
X98.933Y-55.626
X30.988Y-80.264
X33.528Y-80.264
X36.068Y-80.264
X93.98Y-12.7
X96.52Y-12.7
X99.06Y-12.7
X104.14Y-93.218
X106.68Y-93.218
X109.22Y-93.218
X106.68Y-26.162
X109.22Y-26.162
X111.76Y-26.162
X43.434Y-80.264
X45.974Y-80.264
X48.514Y-80.264
X106.68Y-12.7
X109.22Y-12.7
X111.76Y-12.7
X106.553Y-42.291
X109.093Y-42.291
X111.633Y-42.291
X106.553Y-55.626
X109.093Y-55.626
X111.633Y-55.626
T8
X11.292Y-57.246
X11.292Y-69.286
T9
X3.556Y-3.556
X3.556Y-97.79
X125.73Y-98.044
X125.984Y-3.556
T0
M30
