G04 #@! TF.GenerationSoftware,KiCad,Pcbnew,(5.1.0)-1*
G04 #@! TF.CreationDate,2019-04-05T22:30:36+02:00*
G04 #@! TF.ProjectId,Motor_driver_pcb,4d6f746f-725f-4647-9269-7665725f7063,rev?*
G04 #@! TF.SameCoordinates,PX292dfe0PYc1c960*
G04 #@! TF.FileFunction,Paste,Top*
G04 #@! TF.FilePolarity,Positive*
%FSLAX46Y46*%
G04 Gerber Fmt 4.6, Leading zero omitted, Abs format (unit mm)*
G04 Created by KiCad (PCBNEW (5.1.0)-1) date 2019-04-05 22:30:36*
%MOMM*%
%LPD*%
G04 APERTURE LIST*
%ADD10C,0.100000*%
%ADD11C,1.150000*%
%ADD12R,0.450000X1.750000*%
G04 APERTURE END LIST*
D10*
G36*
X89374505Y-4488204D02*
G01*
X89398773Y-4491804D01*
X89422572Y-4497765D01*
X89445671Y-4506030D01*
X89467850Y-4516520D01*
X89488893Y-4529132D01*
X89508599Y-4543747D01*
X89526777Y-4560223D01*
X89543253Y-4578401D01*
X89557868Y-4598107D01*
X89570480Y-4619150D01*
X89580970Y-4641329D01*
X89589235Y-4664428D01*
X89595196Y-4688227D01*
X89598796Y-4712495D01*
X89600000Y-4736999D01*
X89600000Y-5387001D01*
X89598796Y-5411505D01*
X89595196Y-5435773D01*
X89589235Y-5459572D01*
X89580970Y-5482671D01*
X89570480Y-5504850D01*
X89557868Y-5525893D01*
X89543253Y-5545599D01*
X89526777Y-5563777D01*
X89508599Y-5580253D01*
X89488893Y-5594868D01*
X89467850Y-5607480D01*
X89445671Y-5617970D01*
X89422572Y-5626235D01*
X89398773Y-5632196D01*
X89374505Y-5635796D01*
X89350001Y-5637000D01*
X88449999Y-5637000D01*
X88425495Y-5635796D01*
X88401227Y-5632196D01*
X88377428Y-5626235D01*
X88354329Y-5617970D01*
X88332150Y-5607480D01*
X88311107Y-5594868D01*
X88291401Y-5580253D01*
X88273223Y-5563777D01*
X88256747Y-5545599D01*
X88242132Y-5525893D01*
X88229520Y-5504850D01*
X88219030Y-5482671D01*
X88210765Y-5459572D01*
X88204804Y-5435773D01*
X88201204Y-5411505D01*
X88200000Y-5387001D01*
X88200000Y-4736999D01*
X88201204Y-4712495D01*
X88204804Y-4688227D01*
X88210765Y-4664428D01*
X88219030Y-4641329D01*
X88229520Y-4619150D01*
X88242132Y-4598107D01*
X88256747Y-4578401D01*
X88273223Y-4560223D01*
X88291401Y-4543747D01*
X88311107Y-4529132D01*
X88332150Y-4516520D01*
X88354329Y-4506030D01*
X88377428Y-4497765D01*
X88401227Y-4491804D01*
X88425495Y-4488204D01*
X88449999Y-4487000D01*
X89350001Y-4487000D01*
X89374505Y-4488204D01*
X89374505Y-4488204D01*
G37*
D11*
X88900000Y-5062000D03*
D10*
G36*
X89374505Y-6538204D02*
G01*
X89398773Y-6541804D01*
X89422572Y-6547765D01*
X89445671Y-6556030D01*
X89467850Y-6566520D01*
X89488893Y-6579132D01*
X89508599Y-6593747D01*
X89526777Y-6610223D01*
X89543253Y-6628401D01*
X89557868Y-6648107D01*
X89570480Y-6669150D01*
X89580970Y-6691329D01*
X89589235Y-6714428D01*
X89595196Y-6738227D01*
X89598796Y-6762495D01*
X89600000Y-6786999D01*
X89600000Y-7437001D01*
X89598796Y-7461505D01*
X89595196Y-7485773D01*
X89589235Y-7509572D01*
X89580970Y-7532671D01*
X89570480Y-7554850D01*
X89557868Y-7575893D01*
X89543253Y-7595599D01*
X89526777Y-7613777D01*
X89508599Y-7630253D01*
X89488893Y-7644868D01*
X89467850Y-7657480D01*
X89445671Y-7667970D01*
X89422572Y-7676235D01*
X89398773Y-7682196D01*
X89374505Y-7685796D01*
X89350001Y-7687000D01*
X88449999Y-7687000D01*
X88425495Y-7685796D01*
X88401227Y-7682196D01*
X88377428Y-7676235D01*
X88354329Y-7667970D01*
X88332150Y-7657480D01*
X88311107Y-7644868D01*
X88291401Y-7630253D01*
X88273223Y-7613777D01*
X88256747Y-7595599D01*
X88242132Y-7575893D01*
X88229520Y-7554850D01*
X88219030Y-7532671D01*
X88210765Y-7509572D01*
X88204804Y-7485773D01*
X88201204Y-7461505D01*
X88200000Y-7437001D01*
X88200000Y-6786999D01*
X88201204Y-6762495D01*
X88204804Y-6738227D01*
X88210765Y-6714428D01*
X88219030Y-6691329D01*
X88229520Y-6669150D01*
X88242132Y-6648107D01*
X88256747Y-6628401D01*
X88273223Y-6610223D01*
X88291401Y-6593747D01*
X88311107Y-6579132D01*
X88332150Y-6566520D01*
X88354329Y-6556030D01*
X88377428Y-6547765D01*
X88401227Y-6541804D01*
X88425495Y-6538204D01*
X88449999Y-6537000D01*
X89350001Y-6537000D01*
X89374505Y-6538204D01*
X89374505Y-6538204D01*
G37*
D11*
X88900000Y-7112000D03*
D10*
G36*
X89374505Y-8570204D02*
G01*
X89398773Y-8573804D01*
X89422572Y-8579765D01*
X89445671Y-8588030D01*
X89467850Y-8598520D01*
X89488893Y-8611132D01*
X89508599Y-8625747D01*
X89526777Y-8642223D01*
X89543253Y-8660401D01*
X89557868Y-8680107D01*
X89570480Y-8701150D01*
X89580970Y-8723329D01*
X89589235Y-8746428D01*
X89595196Y-8770227D01*
X89598796Y-8794495D01*
X89600000Y-8818999D01*
X89600000Y-9469001D01*
X89598796Y-9493505D01*
X89595196Y-9517773D01*
X89589235Y-9541572D01*
X89580970Y-9564671D01*
X89570480Y-9586850D01*
X89557868Y-9607893D01*
X89543253Y-9627599D01*
X89526777Y-9645777D01*
X89508599Y-9662253D01*
X89488893Y-9676868D01*
X89467850Y-9689480D01*
X89445671Y-9699970D01*
X89422572Y-9708235D01*
X89398773Y-9714196D01*
X89374505Y-9717796D01*
X89350001Y-9719000D01*
X88449999Y-9719000D01*
X88425495Y-9717796D01*
X88401227Y-9714196D01*
X88377428Y-9708235D01*
X88354329Y-9699970D01*
X88332150Y-9689480D01*
X88311107Y-9676868D01*
X88291401Y-9662253D01*
X88273223Y-9645777D01*
X88256747Y-9627599D01*
X88242132Y-9607893D01*
X88229520Y-9586850D01*
X88219030Y-9564671D01*
X88210765Y-9541572D01*
X88204804Y-9517773D01*
X88201204Y-9493505D01*
X88200000Y-9469001D01*
X88200000Y-8818999D01*
X88201204Y-8794495D01*
X88204804Y-8770227D01*
X88210765Y-8746428D01*
X88219030Y-8723329D01*
X88229520Y-8701150D01*
X88242132Y-8680107D01*
X88256747Y-8660401D01*
X88273223Y-8642223D01*
X88291401Y-8625747D01*
X88311107Y-8611132D01*
X88332150Y-8598520D01*
X88354329Y-8588030D01*
X88377428Y-8579765D01*
X88401227Y-8573804D01*
X88425495Y-8570204D01*
X88449999Y-8569000D01*
X89350001Y-8569000D01*
X89374505Y-8570204D01*
X89374505Y-8570204D01*
G37*
D11*
X88900000Y-9144000D03*
D10*
G36*
X89374505Y-10620204D02*
G01*
X89398773Y-10623804D01*
X89422572Y-10629765D01*
X89445671Y-10638030D01*
X89467850Y-10648520D01*
X89488893Y-10661132D01*
X89508599Y-10675747D01*
X89526777Y-10692223D01*
X89543253Y-10710401D01*
X89557868Y-10730107D01*
X89570480Y-10751150D01*
X89580970Y-10773329D01*
X89589235Y-10796428D01*
X89595196Y-10820227D01*
X89598796Y-10844495D01*
X89600000Y-10868999D01*
X89600000Y-11519001D01*
X89598796Y-11543505D01*
X89595196Y-11567773D01*
X89589235Y-11591572D01*
X89580970Y-11614671D01*
X89570480Y-11636850D01*
X89557868Y-11657893D01*
X89543253Y-11677599D01*
X89526777Y-11695777D01*
X89508599Y-11712253D01*
X89488893Y-11726868D01*
X89467850Y-11739480D01*
X89445671Y-11749970D01*
X89422572Y-11758235D01*
X89398773Y-11764196D01*
X89374505Y-11767796D01*
X89350001Y-11769000D01*
X88449999Y-11769000D01*
X88425495Y-11767796D01*
X88401227Y-11764196D01*
X88377428Y-11758235D01*
X88354329Y-11749970D01*
X88332150Y-11739480D01*
X88311107Y-11726868D01*
X88291401Y-11712253D01*
X88273223Y-11695777D01*
X88256747Y-11677599D01*
X88242132Y-11657893D01*
X88229520Y-11636850D01*
X88219030Y-11614671D01*
X88210765Y-11591572D01*
X88204804Y-11567773D01*
X88201204Y-11543505D01*
X88200000Y-11519001D01*
X88200000Y-10868999D01*
X88201204Y-10844495D01*
X88204804Y-10820227D01*
X88210765Y-10796428D01*
X88219030Y-10773329D01*
X88229520Y-10751150D01*
X88242132Y-10730107D01*
X88256747Y-10710401D01*
X88273223Y-10692223D01*
X88291401Y-10675747D01*
X88311107Y-10661132D01*
X88332150Y-10648520D01*
X88354329Y-10638030D01*
X88377428Y-10629765D01*
X88401227Y-10623804D01*
X88425495Y-10620204D01*
X88449999Y-10619000D01*
X89350001Y-10619000D01*
X89374505Y-10620204D01*
X89374505Y-10620204D01*
G37*
D11*
X88900000Y-11194000D03*
D10*
G36*
X92422505Y-4488204D02*
G01*
X92446773Y-4491804D01*
X92470572Y-4497765D01*
X92493671Y-4506030D01*
X92515850Y-4516520D01*
X92536893Y-4529132D01*
X92556599Y-4543747D01*
X92574777Y-4560223D01*
X92591253Y-4578401D01*
X92605868Y-4598107D01*
X92618480Y-4619150D01*
X92628970Y-4641329D01*
X92637235Y-4664428D01*
X92643196Y-4688227D01*
X92646796Y-4712495D01*
X92648000Y-4736999D01*
X92648000Y-5387001D01*
X92646796Y-5411505D01*
X92643196Y-5435773D01*
X92637235Y-5459572D01*
X92628970Y-5482671D01*
X92618480Y-5504850D01*
X92605868Y-5525893D01*
X92591253Y-5545599D01*
X92574777Y-5563777D01*
X92556599Y-5580253D01*
X92536893Y-5594868D01*
X92515850Y-5607480D01*
X92493671Y-5617970D01*
X92470572Y-5626235D01*
X92446773Y-5632196D01*
X92422505Y-5635796D01*
X92398001Y-5637000D01*
X91497999Y-5637000D01*
X91473495Y-5635796D01*
X91449227Y-5632196D01*
X91425428Y-5626235D01*
X91402329Y-5617970D01*
X91380150Y-5607480D01*
X91359107Y-5594868D01*
X91339401Y-5580253D01*
X91321223Y-5563777D01*
X91304747Y-5545599D01*
X91290132Y-5525893D01*
X91277520Y-5504850D01*
X91267030Y-5482671D01*
X91258765Y-5459572D01*
X91252804Y-5435773D01*
X91249204Y-5411505D01*
X91248000Y-5387001D01*
X91248000Y-4736999D01*
X91249204Y-4712495D01*
X91252804Y-4688227D01*
X91258765Y-4664428D01*
X91267030Y-4641329D01*
X91277520Y-4619150D01*
X91290132Y-4598107D01*
X91304747Y-4578401D01*
X91321223Y-4560223D01*
X91339401Y-4543747D01*
X91359107Y-4529132D01*
X91380150Y-4516520D01*
X91402329Y-4506030D01*
X91425428Y-4497765D01*
X91449227Y-4491804D01*
X91473495Y-4488204D01*
X91497999Y-4487000D01*
X92398001Y-4487000D01*
X92422505Y-4488204D01*
X92422505Y-4488204D01*
G37*
D11*
X91948000Y-5062000D03*
D10*
G36*
X92422505Y-6538204D02*
G01*
X92446773Y-6541804D01*
X92470572Y-6547765D01*
X92493671Y-6556030D01*
X92515850Y-6566520D01*
X92536893Y-6579132D01*
X92556599Y-6593747D01*
X92574777Y-6610223D01*
X92591253Y-6628401D01*
X92605868Y-6648107D01*
X92618480Y-6669150D01*
X92628970Y-6691329D01*
X92637235Y-6714428D01*
X92643196Y-6738227D01*
X92646796Y-6762495D01*
X92648000Y-6786999D01*
X92648000Y-7437001D01*
X92646796Y-7461505D01*
X92643196Y-7485773D01*
X92637235Y-7509572D01*
X92628970Y-7532671D01*
X92618480Y-7554850D01*
X92605868Y-7575893D01*
X92591253Y-7595599D01*
X92574777Y-7613777D01*
X92556599Y-7630253D01*
X92536893Y-7644868D01*
X92515850Y-7657480D01*
X92493671Y-7667970D01*
X92470572Y-7676235D01*
X92446773Y-7682196D01*
X92422505Y-7685796D01*
X92398001Y-7687000D01*
X91497999Y-7687000D01*
X91473495Y-7685796D01*
X91449227Y-7682196D01*
X91425428Y-7676235D01*
X91402329Y-7667970D01*
X91380150Y-7657480D01*
X91359107Y-7644868D01*
X91339401Y-7630253D01*
X91321223Y-7613777D01*
X91304747Y-7595599D01*
X91290132Y-7575893D01*
X91277520Y-7554850D01*
X91267030Y-7532671D01*
X91258765Y-7509572D01*
X91252804Y-7485773D01*
X91249204Y-7461505D01*
X91248000Y-7437001D01*
X91248000Y-6786999D01*
X91249204Y-6762495D01*
X91252804Y-6738227D01*
X91258765Y-6714428D01*
X91267030Y-6691329D01*
X91277520Y-6669150D01*
X91290132Y-6648107D01*
X91304747Y-6628401D01*
X91321223Y-6610223D01*
X91339401Y-6593747D01*
X91359107Y-6579132D01*
X91380150Y-6566520D01*
X91402329Y-6556030D01*
X91425428Y-6547765D01*
X91449227Y-6541804D01*
X91473495Y-6538204D01*
X91497999Y-6537000D01*
X92398001Y-6537000D01*
X92422505Y-6538204D01*
X92422505Y-6538204D01*
G37*
D11*
X91948000Y-7112000D03*
D10*
G36*
X117314505Y-10602204D02*
G01*
X117338773Y-10605804D01*
X117362572Y-10611765D01*
X117385671Y-10620030D01*
X117407850Y-10630520D01*
X117428893Y-10643132D01*
X117448599Y-10657747D01*
X117466777Y-10674223D01*
X117483253Y-10692401D01*
X117497868Y-10712107D01*
X117510480Y-10733150D01*
X117520970Y-10755329D01*
X117529235Y-10778428D01*
X117535196Y-10802227D01*
X117538796Y-10826495D01*
X117540000Y-10850999D01*
X117540000Y-11501001D01*
X117538796Y-11525505D01*
X117535196Y-11549773D01*
X117529235Y-11573572D01*
X117520970Y-11596671D01*
X117510480Y-11618850D01*
X117497868Y-11639893D01*
X117483253Y-11659599D01*
X117466777Y-11677777D01*
X117448599Y-11694253D01*
X117428893Y-11708868D01*
X117407850Y-11721480D01*
X117385671Y-11731970D01*
X117362572Y-11740235D01*
X117338773Y-11746196D01*
X117314505Y-11749796D01*
X117290001Y-11751000D01*
X116389999Y-11751000D01*
X116365495Y-11749796D01*
X116341227Y-11746196D01*
X116317428Y-11740235D01*
X116294329Y-11731970D01*
X116272150Y-11721480D01*
X116251107Y-11708868D01*
X116231401Y-11694253D01*
X116213223Y-11677777D01*
X116196747Y-11659599D01*
X116182132Y-11639893D01*
X116169520Y-11618850D01*
X116159030Y-11596671D01*
X116150765Y-11573572D01*
X116144804Y-11549773D01*
X116141204Y-11525505D01*
X116140000Y-11501001D01*
X116140000Y-10850999D01*
X116141204Y-10826495D01*
X116144804Y-10802227D01*
X116150765Y-10778428D01*
X116159030Y-10755329D01*
X116169520Y-10733150D01*
X116182132Y-10712107D01*
X116196747Y-10692401D01*
X116213223Y-10674223D01*
X116231401Y-10657747D01*
X116251107Y-10643132D01*
X116272150Y-10630520D01*
X116294329Y-10620030D01*
X116317428Y-10611765D01*
X116341227Y-10605804D01*
X116365495Y-10602204D01*
X116389999Y-10601000D01*
X117290001Y-10601000D01*
X117314505Y-10602204D01*
X117314505Y-10602204D01*
G37*
D11*
X116840000Y-11176000D03*
D10*
G36*
X117314505Y-12652204D02*
G01*
X117338773Y-12655804D01*
X117362572Y-12661765D01*
X117385671Y-12670030D01*
X117407850Y-12680520D01*
X117428893Y-12693132D01*
X117448599Y-12707747D01*
X117466777Y-12724223D01*
X117483253Y-12742401D01*
X117497868Y-12762107D01*
X117510480Y-12783150D01*
X117520970Y-12805329D01*
X117529235Y-12828428D01*
X117535196Y-12852227D01*
X117538796Y-12876495D01*
X117540000Y-12900999D01*
X117540000Y-13551001D01*
X117538796Y-13575505D01*
X117535196Y-13599773D01*
X117529235Y-13623572D01*
X117520970Y-13646671D01*
X117510480Y-13668850D01*
X117497868Y-13689893D01*
X117483253Y-13709599D01*
X117466777Y-13727777D01*
X117448599Y-13744253D01*
X117428893Y-13758868D01*
X117407850Y-13771480D01*
X117385671Y-13781970D01*
X117362572Y-13790235D01*
X117338773Y-13796196D01*
X117314505Y-13799796D01*
X117290001Y-13801000D01*
X116389999Y-13801000D01*
X116365495Y-13799796D01*
X116341227Y-13796196D01*
X116317428Y-13790235D01*
X116294329Y-13781970D01*
X116272150Y-13771480D01*
X116251107Y-13758868D01*
X116231401Y-13744253D01*
X116213223Y-13727777D01*
X116196747Y-13709599D01*
X116182132Y-13689893D01*
X116169520Y-13668850D01*
X116159030Y-13646671D01*
X116150765Y-13623572D01*
X116144804Y-13599773D01*
X116141204Y-13575505D01*
X116140000Y-13551001D01*
X116140000Y-12900999D01*
X116141204Y-12876495D01*
X116144804Y-12852227D01*
X116150765Y-12828428D01*
X116159030Y-12805329D01*
X116169520Y-12783150D01*
X116182132Y-12762107D01*
X116196747Y-12742401D01*
X116213223Y-12724223D01*
X116231401Y-12707747D01*
X116251107Y-12693132D01*
X116272150Y-12680520D01*
X116294329Y-12670030D01*
X116317428Y-12661765D01*
X116341227Y-12655804D01*
X116365495Y-12652204D01*
X116389999Y-12651000D01*
X117290001Y-12651000D01*
X117314505Y-12652204D01*
X117314505Y-12652204D01*
G37*
D11*
X116840000Y-13226000D03*
D10*
G36*
X92422505Y-20254204D02*
G01*
X92446773Y-20257804D01*
X92470572Y-20263765D01*
X92493671Y-20272030D01*
X92515850Y-20282520D01*
X92536893Y-20295132D01*
X92556599Y-20309747D01*
X92574777Y-20326223D01*
X92591253Y-20344401D01*
X92605868Y-20364107D01*
X92618480Y-20385150D01*
X92628970Y-20407329D01*
X92637235Y-20430428D01*
X92643196Y-20454227D01*
X92646796Y-20478495D01*
X92648000Y-20502999D01*
X92648000Y-21153001D01*
X92646796Y-21177505D01*
X92643196Y-21201773D01*
X92637235Y-21225572D01*
X92628970Y-21248671D01*
X92618480Y-21270850D01*
X92605868Y-21291893D01*
X92591253Y-21311599D01*
X92574777Y-21329777D01*
X92556599Y-21346253D01*
X92536893Y-21360868D01*
X92515850Y-21373480D01*
X92493671Y-21383970D01*
X92470572Y-21392235D01*
X92446773Y-21398196D01*
X92422505Y-21401796D01*
X92398001Y-21403000D01*
X91497999Y-21403000D01*
X91473495Y-21401796D01*
X91449227Y-21398196D01*
X91425428Y-21392235D01*
X91402329Y-21383970D01*
X91380150Y-21373480D01*
X91359107Y-21360868D01*
X91339401Y-21346253D01*
X91321223Y-21329777D01*
X91304747Y-21311599D01*
X91290132Y-21291893D01*
X91277520Y-21270850D01*
X91267030Y-21248671D01*
X91258765Y-21225572D01*
X91252804Y-21201773D01*
X91249204Y-21177505D01*
X91248000Y-21153001D01*
X91248000Y-20502999D01*
X91249204Y-20478495D01*
X91252804Y-20454227D01*
X91258765Y-20430428D01*
X91267030Y-20407329D01*
X91277520Y-20385150D01*
X91290132Y-20364107D01*
X91304747Y-20344401D01*
X91321223Y-20326223D01*
X91339401Y-20309747D01*
X91359107Y-20295132D01*
X91380150Y-20282520D01*
X91402329Y-20272030D01*
X91425428Y-20263765D01*
X91449227Y-20257804D01*
X91473495Y-20254204D01*
X91497999Y-20253000D01*
X92398001Y-20253000D01*
X92422505Y-20254204D01*
X92422505Y-20254204D01*
G37*
D11*
X91948000Y-20828000D03*
D10*
G36*
X92422505Y-18204204D02*
G01*
X92446773Y-18207804D01*
X92470572Y-18213765D01*
X92493671Y-18222030D01*
X92515850Y-18232520D01*
X92536893Y-18245132D01*
X92556599Y-18259747D01*
X92574777Y-18276223D01*
X92591253Y-18294401D01*
X92605868Y-18314107D01*
X92618480Y-18335150D01*
X92628970Y-18357329D01*
X92637235Y-18380428D01*
X92643196Y-18404227D01*
X92646796Y-18428495D01*
X92648000Y-18452999D01*
X92648000Y-19103001D01*
X92646796Y-19127505D01*
X92643196Y-19151773D01*
X92637235Y-19175572D01*
X92628970Y-19198671D01*
X92618480Y-19220850D01*
X92605868Y-19241893D01*
X92591253Y-19261599D01*
X92574777Y-19279777D01*
X92556599Y-19296253D01*
X92536893Y-19310868D01*
X92515850Y-19323480D01*
X92493671Y-19333970D01*
X92470572Y-19342235D01*
X92446773Y-19348196D01*
X92422505Y-19351796D01*
X92398001Y-19353000D01*
X91497999Y-19353000D01*
X91473495Y-19351796D01*
X91449227Y-19348196D01*
X91425428Y-19342235D01*
X91402329Y-19333970D01*
X91380150Y-19323480D01*
X91359107Y-19310868D01*
X91339401Y-19296253D01*
X91321223Y-19279777D01*
X91304747Y-19261599D01*
X91290132Y-19241893D01*
X91277520Y-19220850D01*
X91267030Y-19198671D01*
X91258765Y-19175572D01*
X91252804Y-19151773D01*
X91249204Y-19127505D01*
X91248000Y-19103001D01*
X91248000Y-18452999D01*
X91249204Y-18428495D01*
X91252804Y-18404227D01*
X91258765Y-18380428D01*
X91267030Y-18357329D01*
X91277520Y-18335150D01*
X91290132Y-18314107D01*
X91304747Y-18294401D01*
X91321223Y-18276223D01*
X91339401Y-18259747D01*
X91359107Y-18245132D01*
X91380150Y-18232520D01*
X91402329Y-18222030D01*
X91425428Y-18213765D01*
X91449227Y-18207804D01*
X91473495Y-18204204D01*
X91497999Y-18203000D01*
X92398001Y-18203000D01*
X92422505Y-18204204D01*
X92422505Y-18204204D01*
G37*
D11*
X91948000Y-18778000D03*
D10*
G36*
X106031505Y-29273204D02*
G01*
X106055773Y-29276804D01*
X106079572Y-29282765D01*
X106102671Y-29291030D01*
X106124850Y-29301520D01*
X106145893Y-29314132D01*
X106165599Y-29328747D01*
X106183777Y-29345223D01*
X106200253Y-29363401D01*
X106214868Y-29383107D01*
X106227480Y-29404150D01*
X106237970Y-29426329D01*
X106246235Y-29449428D01*
X106252196Y-29473227D01*
X106255796Y-29497495D01*
X106257000Y-29521999D01*
X106257000Y-30422001D01*
X106255796Y-30446505D01*
X106252196Y-30470773D01*
X106246235Y-30494572D01*
X106237970Y-30517671D01*
X106227480Y-30539850D01*
X106214868Y-30560893D01*
X106200253Y-30580599D01*
X106183777Y-30598777D01*
X106165599Y-30615253D01*
X106145893Y-30629868D01*
X106124850Y-30642480D01*
X106102671Y-30652970D01*
X106079572Y-30661235D01*
X106055773Y-30667196D01*
X106031505Y-30670796D01*
X106007001Y-30672000D01*
X105356999Y-30672000D01*
X105332495Y-30670796D01*
X105308227Y-30667196D01*
X105284428Y-30661235D01*
X105261329Y-30652970D01*
X105239150Y-30642480D01*
X105218107Y-30629868D01*
X105198401Y-30615253D01*
X105180223Y-30598777D01*
X105163747Y-30580599D01*
X105149132Y-30560893D01*
X105136520Y-30539850D01*
X105126030Y-30517671D01*
X105117765Y-30494572D01*
X105111804Y-30470773D01*
X105108204Y-30446505D01*
X105107000Y-30422001D01*
X105107000Y-29521999D01*
X105108204Y-29497495D01*
X105111804Y-29473227D01*
X105117765Y-29449428D01*
X105126030Y-29426329D01*
X105136520Y-29404150D01*
X105149132Y-29383107D01*
X105163747Y-29363401D01*
X105180223Y-29345223D01*
X105198401Y-29328747D01*
X105218107Y-29314132D01*
X105239150Y-29301520D01*
X105261329Y-29291030D01*
X105284428Y-29282765D01*
X105308227Y-29276804D01*
X105332495Y-29273204D01*
X105356999Y-29272000D01*
X106007001Y-29272000D01*
X106031505Y-29273204D01*
X106031505Y-29273204D01*
G37*
D11*
X105682000Y-29972000D03*
D10*
G36*
X103981505Y-29273204D02*
G01*
X104005773Y-29276804D01*
X104029572Y-29282765D01*
X104052671Y-29291030D01*
X104074850Y-29301520D01*
X104095893Y-29314132D01*
X104115599Y-29328747D01*
X104133777Y-29345223D01*
X104150253Y-29363401D01*
X104164868Y-29383107D01*
X104177480Y-29404150D01*
X104187970Y-29426329D01*
X104196235Y-29449428D01*
X104202196Y-29473227D01*
X104205796Y-29497495D01*
X104207000Y-29521999D01*
X104207000Y-30422001D01*
X104205796Y-30446505D01*
X104202196Y-30470773D01*
X104196235Y-30494572D01*
X104187970Y-30517671D01*
X104177480Y-30539850D01*
X104164868Y-30560893D01*
X104150253Y-30580599D01*
X104133777Y-30598777D01*
X104115599Y-30615253D01*
X104095893Y-30629868D01*
X104074850Y-30642480D01*
X104052671Y-30652970D01*
X104029572Y-30661235D01*
X104005773Y-30667196D01*
X103981505Y-30670796D01*
X103957001Y-30672000D01*
X103306999Y-30672000D01*
X103282495Y-30670796D01*
X103258227Y-30667196D01*
X103234428Y-30661235D01*
X103211329Y-30652970D01*
X103189150Y-30642480D01*
X103168107Y-30629868D01*
X103148401Y-30615253D01*
X103130223Y-30598777D01*
X103113747Y-30580599D01*
X103099132Y-30560893D01*
X103086520Y-30539850D01*
X103076030Y-30517671D01*
X103067765Y-30494572D01*
X103061804Y-30470773D01*
X103058204Y-30446505D01*
X103057000Y-30422001D01*
X103057000Y-29521999D01*
X103058204Y-29497495D01*
X103061804Y-29473227D01*
X103067765Y-29449428D01*
X103076030Y-29426329D01*
X103086520Y-29404150D01*
X103099132Y-29383107D01*
X103113747Y-29363401D01*
X103130223Y-29345223D01*
X103148401Y-29328747D01*
X103168107Y-29314132D01*
X103189150Y-29301520D01*
X103211329Y-29291030D01*
X103234428Y-29282765D01*
X103258227Y-29276804D01*
X103282495Y-29273204D01*
X103306999Y-29272000D01*
X103957001Y-29272000D01*
X103981505Y-29273204D01*
X103981505Y-29273204D01*
G37*
D11*
X103632000Y-29972000D03*
D10*
G36*
X89374505Y-18213204D02*
G01*
X89398773Y-18216804D01*
X89422572Y-18222765D01*
X89445671Y-18231030D01*
X89467850Y-18241520D01*
X89488893Y-18254132D01*
X89508599Y-18268747D01*
X89526777Y-18285223D01*
X89543253Y-18303401D01*
X89557868Y-18323107D01*
X89570480Y-18344150D01*
X89580970Y-18366329D01*
X89589235Y-18389428D01*
X89595196Y-18413227D01*
X89598796Y-18437495D01*
X89600000Y-18461999D01*
X89600000Y-19112001D01*
X89598796Y-19136505D01*
X89595196Y-19160773D01*
X89589235Y-19184572D01*
X89580970Y-19207671D01*
X89570480Y-19229850D01*
X89557868Y-19250893D01*
X89543253Y-19270599D01*
X89526777Y-19288777D01*
X89508599Y-19305253D01*
X89488893Y-19319868D01*
X89467850Y-19332480D01*
X89445671Y-19342970D01*
X89422572Y-19351235D01*
X89398773Y-19357196D01*
X89374505Y-19360796D01*
X89350001Y-19362000D01*
X88449999Y-19362000D01*
X88425495Y-19360796D01*
X88401227Y-19357196D01*
X88377428Y-19351235D01*
X88354329Y-19342970D01*
X88332150Y-19332480D01*
X88311107Y-19319868D01*
X88291401Y-19305253D01*
X88273223Y-19288777D01*
X88256747Y-19270599D01*
X88242132Y-19250893D01*
X88229520Y-19229850D01*
X88219030Y-19207671D01*
X88210765Y-19184572D01*
X88204804Y-19160773D01*
X88201204Y-19136505D01*
X88200000Y-19112001D01*
X88200000Y-18461999D01*
X88201204Y-18437495D01*
X88204804Y-18413227D01*
X88210765Y-18389428D01*
X88219030Y-18366329D01*
X88229520Y-18344150D01*
X88242132Y-18323107D01*
X88256747Y-18303401D01*
X88273223Y-18285223D01*
X88291401Y-18268747D01*
X88311107Y-18254132D01*
X88332150Y-18241520D01*
X88354329Y-18231030D01*
X88377428Y-18222765D01*
X88401227Y-18216804D01*
X88425495Y-18213204D01*
X88449999Y-18212000D01*
X89350001Y-18212000D01*
X89374505Y-18213204D01*
X89374505Y-18213204D01*
G37*
D11*
X88900000Y-18787000D03*
D10*
G36*
X89374505Y-20263204D02*
G01*
X89398773Y-20266804D01*
X89422572Y-20272765D01*
X89445671Y-20281030D01*
X89467850Y-20291520D01*
X89488893Y-20304132D01*
X89508599Y-20318747D01*
X89526777Y-20335223D01*
X89543253Y-20353401D01*
X89557868Y-20373107D01*
X89570480Y-20394150D01*
X89580970Y-20416329D01*
X89589235Y-20439428D01*
X89595196Y-20463227D01*
X89598796Y-20487495D01*
X89600000Y-20511999D01*
X89600000Y-21162001D01*
X89598796Y-21186505D01*
X89595196Y-21210773D01*
X89589235Y-21234572D01*
X89580970Y-21257671D01*
X89570480Y-21279850D01*
X89557868Y-21300893D01*
X89543253Y-21320599D01*
X89526777Y-21338777D01*
X89508599Y-21355253D01*
X89488893Y-21369868D01*
X89467850Y-21382480D01*
X89445671Y-21392970D01*
X89422572Y-21401235D01*
X89398773Y-21407196D01*
X89374505Y-21410796D01*
X89350001Y-21412000D01*
X88449999Y-21412000D01*
X88425495Y-21410796D01*
X88401227Y-21407196D01*
X88377428Y-21401235D01*
X88354329Y-21392970D01*
X88332150Y-21382480D01*
X88311107Y-21369868D01*
X88291401Y-21355253D01*
X88273223Y-21338777D01*
X88256747Y-21320599D01*
X88242132Y-21300893D01*
X88229520Y-21279850D01*
X88219030Y-21257671D01*
X88210765Y-21234572D01*
X88204804Y-21210773D01*
X88201204Y-21186505D01*
X88200000Y-21162001D01*
X88200000Y-20511999D01*
X88201204Y-20487495D01*
X88204804Y-20463227D01*
X88210765Y-20439428D01*
X88219030Y-20416329D01*
X88229520Y-20394150D01*
X88242132Y-20373107D01*
X88256747Y-20353401D01*
X88273223Y-20335223D01*
X88291401Y-20318747D01*
X88311107Y-20304132D01*
X88332150Y-20291520D01*
X88354329Y-20281030D01*
X88377428Y-20272765D01*
X88401227Y-20266804D01*
X88425495Y-20263204D01*
X88449999Y-20262000D01*
X89350001Y-20262000D01*
X89374505Y-20263204D01*
X89374505Y-20263204D01*
G37*
D11*
X88900000Y-20837000D03*
D10*
G36*
X89374505Y-24318204D02*
G01*
X89398773Y-24321804D01*
X89422572Y-24327765D01*
X89445671Y-24336030D01*
X89467850Y-24346520D01*
X89488893Y-24359132D01*
X89508599Y-24373747D01*
X89526777Y-24390223D01*
X89543253Y-24408401D01*
X89557868Y-24428107D01*
X89570480Y-24449150D01*
X89580970Y-24471329D01*
X89589235Y-24494428D01*
X89595196Y-24518227D01*
X89598796Y-24542495D01*
X89600000Y-24566999D01*
X89600000Y-25217001D01*
X89598796Y-25241505D01*
X89595196Y-25265773D01*
X89589235Y-25289572D01*
X89580970Y-25312671D01*
X89570480Y-25334850D01*
X89557868Y-25355893D01*
X89543253Y-25375599D01*
X89526777Y-25393777D01*
X89508599Y-25410253D01*
X89488893Y-25424868D01*
X89467850Y-25437480D01*
X89445671Y-25447970D01*
X89422572Y-25456235D01*
X89398773Y-25462196D01*
X89374505Y-25465796D01*
X89350001Y-25467000D01*
X88449999Y-25467000D01*
X88425495Y-25465796D01*
X88401227Y-25462196D01*
X88377428Y-25456235D01*
X88354329Y-25447970D01*
X88332150Y-25437480D01*
X88311107Y-25424868D01*
X88291401Y-25410253D01*
X88273223Y-25393777D01*
X88256747Y-25375599D01*
X88242132Y-25355893D01*
X88229520Y-25334850D01*
X88219030Y-25312671D01*
X88210765Y-25289572D01*
X88204804Y-25265773D01*
X88201204Y-25241505D01*
X88200000Y-25217001D01*
X88200000Y-24566999D01*
X88201204Y-24542495D01*
X88204804Y-24518227D01*
X88210765Y-24494428D01*
X88219030Y-24471329D01*
X88229520Y-24449150D01*
X88242132Y-24428107D01*
X88256747Y-24408401D01*
X88273223Y-24390223D01*
X88291401Y-24373747D01*
X88311107Y-24359132D01*
X88332150Y-24346520D01*
X88354329Y-24336030D01*
X88377428Y-24327765D01*
X88401227Y-24321804D01*
X88425495Y-24318204D01*
X88449999Y-24317000D01*
X89350001Y-24317000D01*
X89374505Y-24318204D01*
X89374505Y-24318204D01*
G37*
D11*
X88900000Y-24892000D03*
D10*
G36*
X89374505Y-22268204D02*
G01*
X89398773Y-22271804D01*
X89422572Y-22277765D01*
X89445671Y-22286030D01*
X89467850Y-22296520D01*
X89488893Y-22309132D01*
X89508599Y-22323747D01*
X89526777Y-22340223D01*
X89543253Y-22358401D01*
X89557868Y-22378107D01*
X89570480Y-22399150D01*
X89580970Y-22421329D01*
X89589235Y-22444428D01*
X89595196Y-22468227D01*
X89598796Y-22492495D01*
X89600000Y-22516999D01*
X89600000Y-23167001D01*
X89598796Y-23191505D01*
X89595196Y-23215773D01*
X89589235Y-23239572D01*
X89580970Y-23262671D01*
X89570480Y-23284850D01*
X89557868Y-23305893D01*
X89543253Y-23325599D01*
X89526777Y-23343777D01*
X89508599Y-23360253D01*
X89488893Y-23374868D01*
X89467850Y-23387480D01*
X89445671Y-23397970D01*
X89422572Y-23406235D01*
X89398773Y-23412196D01*
X89374505Y-23415796D01*
X89350001Y-23417000D01*
X88449999Y-23417000D01*
X88425495Y-23415796D01*
X88401227Y-23412196D01*
X88377428Y-23406235D01*
X88354329Y-23397970D01*
X88332150Y-23387480D01*
X88311107Y-23374868D01*
X88291401Y-23360253D01*
X88273223Y-23343777D01*
X88256747Y-23325599D01*
X88242132Y-23305893D01*
X88229520Y-23284850D01*
X88219030Y-23262671D01*
X88210765Y-23239572D01*
X88204804Y-23215773D01*
X88201204Y-23191505D01*
X88200000Y-23167001D01*
X88200000Y-22516999D01*
X88201204Y-22492495D01*
X88204804Y-22468227D01*
X88210765Y-22444428D01*
X88219030Y-22421329D01*
X88229520Y-22399150D01*
X88242132Y-22378107D01*
X88256747Y-22358401D01*
X88273223Y-22340223D01*
X88291401Y-22323747D01*
X88311107Y-22309132D01*
X88332150Y-22296520D01*
X88354329Y-22286030D01*
X88377428Y-22277765D01*
X88401227Y-22271804D01*
X88425495Y-22268204D01*
X88449999Y-22267000D01*
X89350001Y-22267000D01*
X89374505Y-22268204D01*
X89374505Y-22268204D01*
G37*
D11*
X88900000Y-22842000D03*
D10*
G36*
X89247505Y-34587204D02*
G01*
X89271773Y-34590804D01*
X89295572Y-34596765D01*
X89318671Y-34605030D01*
X89340850Y-34615520D01*
X89361893Y-34628132D01*
X89381599Y-34642747D01*
X89399777Y-34659223D01*
X89416253Y-34677401D01*
X89430868Y-34697107D01*
X89443480Y-34718150D01*
X89453970Y-34740329D01*
X89462235Y-34763428D01*
X89468196Y-34787227D01*
X89471796Y-34811495D01*
X89473000Y-34835999D01*
X89473000Y-35486001D01*
X89471796Y-35510505D01*
X89468196Y-35534773D01*
X89462235Y-35558572D01*
X89453970Y-35581671D01*
X89443480Y-35603850D01*
X89430868Y-35624893D01*
X89416253Y-35644599D01*
X89399777Y-35662777D01*
X89381599Y-35679253D01*
X89361893Y-35693868D01*
X89340850Y-35706480D01*
X89318671Y-35716970D01*
X89295572Y-35725235D01*
X89271773Y-35731196D01*
X89247505Y-35734796D01*
X89223001Y-35736000D01*
X88322999Y-35736000D01*
X88298495Y-35734796D01*
X88274227Y-35731196D01*
X88250428Y-35725235D01*
X88227329Y-35716970D01*
X88205150Y-35706480D01*
X88184107Y-35693868D01*
X88164401Y-35679253D01*
X88146223Y-35662777D01*
X88129747Y-35644599D01*
X88115132Y-35624893D01*
X88102520Y-35603850D01*
X88092030Y-35581671D01*
X88083765Y-35558572D01*
X88077804Y-35534773D01*
X88074204Y-35510505D01*
X88073000Y-35486001D01*
X88073000Y-34835999D01*
X88074204Y-34811495D01*
X88077804Y-34787227D01*
X88083765Y-34763428D01*
X88092030Y-34740329D01*
X88102520Y-34718150D01*
X88115132Y-34697107D01*
X88129747Y-34677401D01*
X88146223Y-34659223D01*
X88164401Y-34642747D01*
X88184107Y-34628132D01*
X88205150Y-34615520D01*
X88227329Y-34605030D01*
X88250428Y-34596765D01*
X88274227Y-34590804D01*
X88298495Y-34587204D01*
X88322999Y-34586000D01*
X89223001Y-34586000D01*
X89247505Y-34587204D01*
X89247505Y-34587204D01*
G37*
D11*
X88773000Y-35161000D03*
D10*
G36*
X89247505Y-36637204D02*
G01*
X89271773Y-36640804D01*
X89295572Y-36646765D01*
X89318671Y-36655030D01*
X89340850Y-36665520D01*
X89361893Y-36678132D01*
X89381599Y-36692747D01*
X89399777Y-36709223D01*
X89416253Y-36727401D01*
X89430868Y-36747107D01*
X89443480Y-36768150D01*
X89453970Y-36790329D01*
X89462235Y-36813428D01*
X89468196Y-36837227D01*
X89471796Y-36861495D01*
X89473000Y-36885999D01*
X89473000Y-37536001D01*
X89471796Y-37560505D01*
X89468196Y-37584773D01*
X89462235Y-37608572D01*
X89453970Y-37631671D01*
X89443480Y-37653850D01*
X89430868Y-37674893D01*
X89416253Y-37694599D01*
X89399777Y-37712777D01*
X89381599Y-37729253D01*
X89361893Y-37743868D01*
X89340850Y-37756480D01*
X89318671Y-37766970D01*
X89295572Y-37775235D01*
X89271773Y-37781196D01*
X89247505Y-37784796D01*
X89223001Y-37786000D01*
X88322999Y-37786000D01*
X88298495Y-37784796D01*
X88274227Y-37781196D01*
X88250428Y-37775235D01*
X88227329Y-37766970D01*
X88205150Y-37756480D01*
X88184107Y-37743868D01*
X88164401Y-37729253D01*
X88146223Y-37712777D01*
X88129747Y-37694599D01*
X88115132Y-37674893D01*
X88102520Y-37653850D01*
X88092030Y-37631671D01*
X88083765Y-37608572D01*
X88077804Y-37584773D01*
X88074204Y-37560505D01*
X88073000Y-37536001D01*
X88073000Y-36885999D01*
X88074204Y-36861495D01*
X88077804Y-36837227D01*
X88083765Y-36813428D01*
X88092030Y-36790329D01*
X88102520Y-36768150D01*
X88115132Y-36747107D01*
X88129747Y-36727401D01*
X88146223Y-36709223D01*
X88164401Y-36692747D01*
X88184107Y-36678132D01*
X88205150Y-36665520D01*
X88227329Y-36655030D01*
X88250428Y-36646765D01*
X88274227Y-36640804D01*
X88298495Y-36637204D01*
X88322999Y-36636000D01*
X89223001Y-36636000D01*
X89247505Y-36637204D01*
X89247505Y-36637204D01*
G37*
D11*
X88773000Y-37211000D03*
D10*
G36*
X89247505Y-40592204D02*
G01*
X89271773Y-40595804D01*
X89295572Y-40601765D01*
X89318671Y-40610030D01*
X89340850Y-40620520D01*
X89361893Y-40633132D01*
X89381599Y-40647747D01*
X89399777Y-40664223D01*
X89416253Y-40682401D01*
X89430868Y-40702107D01*
X89443480Y-40723150D01*
X89453970Y-40745329D01*
X89462235Y-40768428D01*
X89468196Y-40792227D01*
X89471796Y-40816495D01*
X89473000Y-40840999D01*
X89473000Y-41491001D01*
X89471796Y-41515505D01*
X89468196Y-41539773D01*
X89462235Y-41563572D01*
X89453970Y-41586671D01*
X89443480Y-41608850D01*
X89430868Y-41629893D01*
X89416253Y-41649599D01*
X89399777Y-41667777D01*
X89381599Y-41684253D01*
X89361893Y-41698868D01*
X89340850Y-41711480D01*
X89318671Y-41721970D01*
X89295572Y-41730235D01*
X89271773Y-41736196D01*
X89247505Y-41739796D01*
X89223001Y-41741000D01*
X88322999Y-41741000D01*
X88298495Y-41739796D01*
X88274227Y-41736196D01*
X88250428Y-41730235D01*
X88227329Y-41721970D01*
X88205150Y-41711480D01*
X88184107Y-41698868D01*
X88164401Y-41684253D01*
X88146223Y-41667777D01*
X88129747Y-41649599D01*
X88115132Y-41629893D01*
X88102520Y-41608850D01*
X88092030Y-41586671D01*
X88083765Y-41563572D01*
X88077804Y-41539773D01*
X88074204Y-41515505D01*
X88073000Y-41491001D01*
X88073000Y-40840999D01*
X88074204Y-40816495D01*
X88077804Y-40792227D01*
X88083765Y-40768428D01*
X88092030Y-40745329D01*
X88102520Y-40723150D01*
X88115132Y-40702107D01*
X88129747Y-40682401D01*
X88146223Y-40664223D01*
X88164401Y-40647747D01*
X88184107Y-40633132D01*
X88205150Y-40620520D01*
X88227329Y-40610030D01*
X88250428Y-40601765D01*
X88274227Y-40595804D01*
X88298495Y-40592204D01*
X88322999Y-40591000D01*
X89223001Y-40591000D01*
X89247505Y-40592204D01*
X89247505Y-40592204D01*
G37*
D11*
X88773000Y-41166000D03*
D10*
G36*
X89247505Y-38542204D02*
G01*
X89271773Y-38545804D01*
X89295572Y-38551765D01*
X89318671Y-38560030D01*
X89340850Y-38570520D01*
X89361893Y-38583132D01*
X89381599Y-38597747D01*
X89399777Y-38614223D01*
X89416253Y-38632401D01*
X89430868Y-38652107D01*
X89443480Y-38673150D01*
X89453970Y-38695329D01*
X89462235Y-38718428D01*
X89468196Y-38742227D01*
X89471796Y-38766495D01*
X89473000Y-38790999D01*
X89473000Y-39441001D01*
X89471796Y-39465505D01*
X89468196Y-39489773D01*
X89462235Y-39513572D01*
X89453970Y-39536671D01*
X89443480Y-39558850D01*
X89430868Y-39579893D01*
X89416253Y-39599599D01*
X89399777Y-39617777D01*
X89381599Y-39634253D01*
X89361893Y-39648868D01*
X89340850Y-39661480D01*
X89318671Y-39671970D01*
X89295572Y-39680235D01*
X89271773Y-39686196D01*
X89247505Y-39689796D01*
X89223001Y-39691000D01*
X88322999Y-39691000D01*
X88298495Y-39689796D01*
X88274227Y-39686196D01*
X88250428Y-39680235D01*
X88227329Y-39671970D01*
X88205150Y-39661480D01*
X88184107Y-39648868D01*
X88164401Y-39634253D01*
X88146223Y-39617777D01*
X88129747Y-39599599D01*
X88115132Y-39579893D01*
X88102520Y-39558850D01*
X88092030Y-39536671D01*
X88083765Y-39513572D01*
X88077804Y-39489773D01*
X88074204Y-39465505D01*
X88073000Y-39441001D01*
X88073000Y-38790999D01*
X88074204Y-38766495D01*
X88077804Y-38742227D01*
X88083765Y-38718428D01*
X88092030Y-38695329D01*
X88102520Y-38673150D01*
X88115132Y-38652107D01*
X88129747Y-38632401D01*
X88146223Y-38614223D01*
X88164401Y-38597747D01*
X88184107Y-38583132D01*
X88205150Y-38570520D01*
X88227329Y-38560030D01*
X88250428Y-38551765D01*
X88274227Y-38545804D01*
X88298495Y-38542204D01*
X88322999Y-38541000D01*
X89223001Y-38541000D01*
X89247505Y-38542204D01*
X89247505Y-38542204D01*
G37*
D11*
X88773000Y-39116000D03*
D10*
G36*
X92422505Y-34587204D02*
G01*
X92446773Y-34590804D01*
X92470572Y-34596765D01*
X92493671Y-34605030D01*
X92515850Y-34615520D01*
X92536893Y-34628132D01*
X92556599Y-34642747D01*
X92574777Y-34659223D01*
X92591253Y-34677401D01*
X92605868Y-34697107D01*
X92618480Y-34718150D01*
X92628970Y-34740329D01*
X92637235Y-34763428D01*
X92643196Y-34787227D01*
X92646796Y-34811495D01*
X92648000Y-34835999D01*
X92648000Y-35486001D01*
X92646796Y-35510505D01*
X92643196Y-35534773D01*
X92637235Y-35558572D01*
X92628970Y-35581671D01*
X92618480Y-35603850D01*
X92605868Y-35624893D01*
X92591253Y-35644599D01*
X92574777Y-35662777D01*
X92556599Y-35679253D01*
X92536893Y-35693868D01*
X92515850Y-35706480D01*
X92493671Y-35716970D01*
X92470572Y-35725235D01*
X92446773Y-35731196D01*
X92422505Y-35734796D01*
X92398001Y-35736000D01*
X91497999Y-35736000D01*
X91473495Y-35734796D01*
X91449227Y-35731196D01*
X91425428Y-35725235D01*
X91402329Y-35716970D01*
X91380150Y-35706480D01*
X91359107Y-35693868D01*
X91339401Y-35679253D01*
X91321223Y-35662777D01*
X91304747Y-35644599D01*
X91290132Y-35624893D01*
X91277520Y-35603850D01*
X91267030Y-35581671D01*
X91258765Y-35558572D01*
X91252804Y-35534773D01*
X91249204Y-35510505D01*
X91248000Y-35486001D01*
X91248000Y-34835999D01*
X91249204Y-34811495D01*
X91252804Y-34787227D01*
X91258765Y-34763428D01*
X91267030Y-34740329D01*
X91277520Y-34718150D01*
X91290132Y-34697107D01*
X91304747Y-34677401D01*
X91321223Y-34659223D01*
X91339401Y-34642747D01*
X91359107Y-34628132D01*
X91380150Y-34615520D01*
X91402329Y-34605030D01*
X91425428Y-34596765D01*
X91449227Y-34590804D01*
X91473495Y-34587204D01*
X91497999Y-34586000D01*
X92398001Y-34586000D01*
X92422505Y-34587204D01*
X92422505Y-34587204D01*
G37*
D11*
X91948000Y-35161000D03*
D10*
G36*
X92422505Y-36637204D02*
G01*
X92446773Y-36640804D01*
X92470572Y-36646765D01*
X92493671Y-36655030D01*
X92515850Y-36665520D01*
X92536893Y-36678132D01*
X92556599Y-36692747D01*
X92574777Y-36709223D01*
X92591253Y-36727401D01*
X92605868Y-36747107D01*
X92618480Y-36768150D01*
X92628970Y-36790329D01*
X92637235Y-36813428D01*
X92643196Y-36837227D01*
X92646796Y-36861495D01*
X92648000Y-36885999D01*
X92648000Y-37536001D01*
X92646796Y-37560505D01*
X92643196Y-37584773D01*
X92637235Y-37608572D01*
X92628970Y-37631671D01*
X92618480Y-37653850D01*
X92605868Y-37674893D01*
X92591253Y-37694599D01*
X92574777Y-37712777D01*
X92556599Y-37729253D01*
X92536893Y-37743868D01*
X92515850Y-37756480D01*
X92493671Y-37766970D01*
X92470572Y-37775235D01*
X92446773Y-37781196D01*
X92422505Y-37784796D01*
X92398001Y-37786000D01*
X91497999Y-37786000D01*
X91473495Y-37784796D01*
X91449227Y-37781196D01*
X91425428Y-37775235D01*
X91402329Y-37766970D01*
X91380150Y-37756480D01*
X91359107Y-37743868D01*
X91339401Y-37729253D01*
X91321223Y-37712777D01*
X91304747Y-37694599D01*
X91290132Y-37674893D01*
X91277520Y-37653850D01*
X91267030Y-37631671D01*
X91258765Y-37608572D01*
X91252804Y-37584773D01*
X91249204Y-37560505D01*
X91248000Y-37536001D01*
X91248000Y-36885999D01*
X91249204Y-36861495D01*
X91252804Y-36837227D01*
X91258765Y-36813428D01*
X91267030Y-36790329D01*
X91277520Y-36768150D01*
X91290132Y-36747107D01*
X91304747Y-36727401D01*
X91321223Y-36709223D01*
X91339401Y-36692747D01*
X91359107Y-36678132D01*
X91380150Y-36665520D01*
X91402329Y-36655030D01*
X91425428Y-36646765D01*
X91449227Y-36640804D01*
X91473495Y-36637204D01*
X91497999Y-36636000D01*
X92398001Y-36636000D01*
X92422505Y-36637204D01*
X92422505Y-36637204D01*
G37*
D11*
X91948000Y-37211000D03*
D10*
G36*
X117187505Y-40302204D02*
G01*
X117211773Y-40305804D01*
X117235572Y-40311765D01*
X117258671Y-40320030D01*
X117280850Y-40330520D01*
X117301893Y-40343132D01*
X117321599Y-40357747D01*
X117339777Y-40374223D01*
X117356253Y-40392401D01*
X117370868Y-40412107D01*
X117383480Y-40433150D01*
X117393970Y-40455329D01*
X117402235Y-40478428D01*
X117408196Y-40502227D01*
X117411796Y-40526495D01*
X117413000Y-40550999D01*
X117413000Y-41201001D01*
X117411796Y-41225505D01*
X117408196Y-41249773D01*
X117402235Y-41273572D01*
X117393970Y-41296671D01*
X117383480Y-41318850D01*
X117370868Y-41339893D01*
X117356253Y-41359599D01*
X117339777Y-41377777D01*
X117321599Y-41394253D01*
X117301893Y-41408868D01*
X117280850Y-41421480D01*
X117258671Y-41431970D01*
X117235572Y-41440235D01*
X117211773Y-41446196D01*
X117187505Y-41449796D01*
X117163001Y-41451000D01*
X116262999Y-41451000D01*
X116238495Y-41449796D01*
X116214227Y-41446196D01*
X116190428Y-41440235D01*
X116167329Y-41431970D01*
X116145150Y-41421480D01*
X116124107Y-41408868D01*
X116104401Y-41394253D01*
X116086223Y-41377777D01*
X116069747Y-41359599D01*
X116055132Y-41339893D01*
X116042520Y-41318850D01*
X116032030Y-41296671D01*
X116023765Y-41273572D01*
X116017804Y-41249773D01*
X116014204Y-41225505D01*
X116013000Y-41201001D01*
X116013000Y-40550999D01*
X116014204Y-40526495D01*
X116017804Y-40502227D01*
X116023765Y-40478428D01*
X116032030Y-40455329D01*
X116042520Y-40433150D01*
X116055132Y-40412107D01*
X116069747Y-40392401D01*
X116086223Y-40374223D01*
X116104401Y-40357747D01*
X116124107Y-40343132D01*
X116145150Y-40330520D01*
X116167329Y-40320030D01*
X116190428Y-40311765D01*
X116214227Y-40305804D01*
X116238495Y-40302204D01*
X116262999Y-40301000D01*
X117163001Y-40301000D01*
X117187505Y-40302204D01*
X117187505Y-40302204D01*
G37*
D11*
X116713000Y-40876000D03*
D10*
G36*
X117187505Y-42352204D02*
G01*
X117211773Y-42355804D01*
X117235572Y-42361765D01*
X117258671Y-42370030D01*
X117280850Y-42380520D01*
X117301893Y-42393132D01*
X117321599Y-42407747D01*
X117339777Y-42424223D01*
X117356253Y-42442401D01*
X117370868Y-42462107D01*
X117383480Y-42483150D01*
X117393970Y-42505329D01*
X117402235Y-42528428D01*
X117408196Y-42552227D01*
X117411796Y-42576495D01*
X117413000Y-42600999D01*
X117413000Y-43251001D01*
X117411796Y-43275505D01*
X117408196Y-43299773D01*
X117402235Y-43323572D01*
X117393970Y-43346671D01*
X117383480Y-43368850D01*
X117370868Y-43389893D01*
X117356253Y-43409599D01*
X117339777Y-43427777D01*
X117321599Y-43444253D01*
X117301893Y-43458868D01*
X117280850Y-43471480D01*
X117258671Y-43481970D01*
X117235572Y-43490235D01*
X117211773Y-43496196D01*
X117187505Y-43499796D01*
X117163001Y-43501000D01*
X116262999Y-43501000D01*
X116238495Y-43499796D01*
X116214227Y-43496196D01*
X116190428Y-43490235D01*
X116167329Y-43481970D01*
X116145150Y-43471480D01*
X116124107Y-43458868D01*
X116104401Y-43444253D01*
X116086223Y-43427777D01*
X116069747Y-43409599D01*
X116055132Y-43389893D01*
X116042520Y-43368850D01*
X116032030Y-43346671D01*
X116023765Y-43323572D01*
X116017804Y-43299773D01*
X116014204Y-43275505D01*
X116013000Y-43251001D01*
X116013000Y-42600999D01*
X116014204Y-42576495D01*
X116017804Y-42552227D01*
X116023765Y-42528428D01*
X116032030Y-42505329D01*
X116042520Y-42483150D01*
X116055132Y-42462107D01*
X116069747Y-42442401D01*
X116086223Y-42424223D01*
X116104401Y-42407747D01*
X116124107Y-42393132D01*
X116145150Y-42380520D01*
X116167329Y-42370030D01*
X116190428Y-42361765D01*
X116214227Y-42355804D01*
X116238495Y-42352204D01*
X116262999Y-42351000D01*
X117163001Y-42351000D01*
X117187505Y-42352204D01*
X117187505Y-42352204D01*
G37*
D11*
X116713000Y-42926000D03*
D10*
G36*
X92422505Y-49972204D02*
G01*
X92446773Y-49975804D01*
X92470572Y-49981765D01*
X92493671Y-49990030D01*
X92515850Y-50000520D01*
X92536893Y-50013132D01*
X92556599Y-50027747D01*
X92574777Y-50044223D01*
X92591253Y-50062401D01*
X92605868Y-50082107D01*
X92618480Y-50103150D01*
X92628970Y-50125329D01*
X92637235Y-50148428D01*
X92643196Y-50172227D01*
X92646796Y-50196495D01*
X92648000Y-50220999D01*
X92648000Y-50871001D01*
X92646796Y-50895505D01*
X92643196Y-50919773D01*
X92637235Y-50943572D01*
X92628970Y-50966671D01*
X92618480Y-50988850D01*
X92605868Y-51009893D01*
X92591253Y-51029599D01*
X92574777Y-51047777D01*
X92556599Y-51064253D01*
X92536893Y-51078868D01*
X92515850Y-51091480D01*
X92493671Y-51101970D01*
X92470572Y-51110235D01*
X92446773Y-51116196D01*
X92422505Y-51119796D01*
X92398001Y-51121000D01*
X91497999Y-51121000D01*
X91473495Y-51119796D01*
X91449227Y-51116196D01*
X91425428Y-51110235D01*
X91402329Y-51101970D01*
X91380150Y-51091480D01*
X91359107Y-51078868D01*
X91339401Y-51064253D01*
X91321223Y-51047777D01*
X91304747Y-51029599D01*
X91290132Y-51009893D01*
X91277520Y-50988850D01*
X91267030Y-50966671D01*
X91258765Y-50943572D01*
X91252804Y-50919773D01*
X91249204Y-50895505D01*
X91248000Y-50871001D01*
X91248000Y-50220999D01*
X91249204Y-50196495D01*
X91252804Y-50172227D01*
X91258765Y-50148428D01*
X91267030Y-50125329D01*
X91277520Y-50103150D01*
X91290132Y-50082107D01*
X91304747Y-50062401D01*
X91321223Y-50044223D01*
X91339401Y-50027747D01*
X91359107Y-50013132D01*
X91380150Y-50000520D01*
X91402329Y-49990030D01*
X91425428Y-49981765D01*
X91449227Y-49975804D01*
X91473495Y-49972204D01*
X91497999Y-49971000D01*
X92398001Y-49971000D01*
X92422505Y-49972204D01*
X92422505Y-49972204D01*
G37*
D11*
X91948000Y-50546000D03*
D10*
G36*
X92422505Y-47922204D02*
G01*
X92446773Y-47925804D01*
X92470572Y-47931765D01*
X92493671Y-47940030D01*
X92515850Y-47950520D01*
X92536893Y-47963132D01*
X92556599Y-47977747D01*
X92574777Y-47994223D01*
X92591253Y-48012401D01*
X92605868Y-48032107D01*
X92618480Y-48053150D01*
X92628970Y-48075329D01*
X92637235Y-48098428D01*
X92643196Y-48122227D01*
X92646796Y-48146495D01*
X92648000Y-48170999D01*
X92648000Y-48821001D01*
X92646796Y-48845505D01*
X92643196Y-48869773D01*
X92637235Y-48893572D01*
X92628970Y-48916671D01*
X92618480Y-48938850D01*
X92605868Y-48959893D01*
X92591253Y-48979599D01*
X92574777Y-48997777D01*
X92556599Y-49014253D01*
X92536893Y-49028868D01*
X92515850Y-49041480D01*
X92493671Y-49051970D01*
X92470572Y-49060235D01*
X92446773Y-49066196D01*
X92422505Y-49069796D01*
X92398001Y-49071000D01*
X91497999Y-49071000D01*
X91473495Y-49069796D01*
X91449227Y-49066196D01*
X91425428Y-49060235D01*
X91402329Y-49051970D01*
X91380150Y-49041480D01*
X91359107Y-49028868D01*
X91339401Y-49014253D01*
X91321223Y-48997777D01*
X91304747Y-48979599D01*
X91290132Y-48959893D01*
X91277520Y-48938850D01*
X91267030Y-48916671D01*
X91258765Y-48893572D01*
X91252804Y-48869773D01*
X91249204Y-48845505D01*
X91248000Y-48821001D01*
X91248000Y-48170999D01*
X91249204Y-48146495D01*
X91252804Y-48122227D01*
X91258765Y-48098428D01*
X91267030Y-48075329D01*
X91277520Y-48053150D01*
X91290132Y-48032107D01*
X91304747Y-48012401D01*
X91321223Y-47994223D01*
X91339401Y-47977747D01*
X91359107Y-47963132D01*
X91380150Y-47950520D01*
X91402329Y-47940030D01*
X91425428Y-47931765D01*
X91449227Y-47925804D01*
X91473495Y-47922204D01*
X91497999Y-47921000D01*
X92398001Y-47921000D01*
X92422505Y-47922204D01*
X92422505Y-47922204D01*
G37*
D11*
X91948000Y-48496000D03*
D10*
G36*
X105632505Y-58737204D02*
G01*
X105656773Y-58740804D01*
X105680572Y-58746765D01*
X105703671Y-58755030D01*
X105725850Y-58765520D01*
X105746893Y-58778132D01*
X105766599Y-58792747D01*
X105784777Y-58809223D01*
X105801253Y-58827401D01*
X105815868Y-58847107D01*
X105828480Y-58868150D01*
X105838970Y-58890329D01*
X105847235Y-58913428D01*
X105853196Y-58937227D01*
X105856796Y-58961495D01*
X105858000Y-58985999D01*
X105858000Y-59886001D01*
X105856796Y-59910505D01*
X105853196Y-59934773D01*
X105847235Y-59958572D01*
X105838970Y-59981671D01*
X105828480Y-60003850D01*
X105815868Y-60024893D01*
X105801253Y-60044599D01*
X105784777Y-60062777D01*
X105766599Y-60079253D01*
X105746893Y-60093868D01*
X105725850Y-60106480D01*
X105703671Y-60116970D01*
X105680572Y-60125235D01*
X105656773Y-60131196D01*
X105632505Y-60134796D01*
X105608001Y-60136000D01*
X104957999Y-60136000D01*
X104933495Y-60134796D01*
X104909227Y-60131196D01*
X104885428Y-60125235D01*
X104862329Y-60116970D01*
X104840150Y-60106480D01*
X104819107Y-60093868D01*
X104799401Y-60079253D01*
X104781223Y-60062777D01*
X104764747Y-60044599D01*
X104750132Y-60024893D01*
X104737520Y-60003850D01*
X104727030Y-59981671D01*
X104718765Y-59958572D01*
X104712804Y-59934773D01*
X104709204Y-59910505D01*
X104708000Y-59886001D01*
X104708000Y-58985999D01*
X104709204Y-58961495D01*
X104712804Y-58937227D01*
X104718765Y-58913428D01*
X104727030Y-58890329D01*
X104737520Y-58868150D01*
X104750132Y-58847107D01*
X104764747Y-58827401D01*
X104781223Y-58809223D01*
X104799401Y-58792747D01*
X104819107Y-58778132D01*
X104840150Y-58765520D01*
X104862329Y-58755030D01*
X104885428Y-58746765D01*
X104909227Y-58740804D01*
X104933495Y-58737204D01*
X104957999Y-58736000D01*
X105608001Y-58736000D01*
X105632505Y-58737204D01*
X105632505Y-58737204D01*
G37*
D11*
X105283000Y-59436000D03*
D10*
G36*
X103582505Y-58737204D02*
G01*
X103606773Y-58740804D01*
X103630572Y-58746765D01*
X103653671Y-58755030D01*
X103675850Y-58765520D01*
X103696893Y-58778132D01*
X103716599Y-58792747D01*
X103734777Y-58809223D01*
X103751253Y-58827401D01*
X103765868Y-58847107D01*
X103778480Y-58868150D01*
X103788970Y-58890329D01*
X103797235Y-58913428D01*
X103803196Y-58937227D01*
X103806796Y-58961495D01*
X103808000Y-58985999D01*
X103808000Y-59886001D01*
X103806796Y-59910505D01*
X103803196Y-59934773D01*
X103797235Y-59958572D01*
X103788970Y-59981671D01*
X103778480Y-60003850D01*
X103765868Y-60024893D01*
X103751253Y-60044599D01*
X103734777Y-60062777D01*
X103716599Y-60079253D01*
X103696893Y-60093868D01*
X103675850Y-60106480D01*
X103653671Y-60116970D01*
X103630572Y-60125235D01*
X103606773Y-60131196D01*
X103582505Y-60134796D01*
X103558001Y-60136000D01*
X102907999Y-60136000D01*
X102883495Y-60134796D01*
X102859227Y-60131196D01*
X102835428Y-60125235D01*
X102812329Y-60116970D01*
X102790150Y-60106480D01*
X102769107Y-60093868D01*
X102749401Y-60079253D01*
X102731223Y-60062777D01*
X102714747Y-60044599D01*
X102700132Y-60024893D01*
X102687520Y-60003850D01*
X102677030Y-59981671D01*
X102668765Y-59958572D01*
X102662804Y-59934773D01*
X102659204Y-59910505D01*
X102658000Y-59886001D01*
X102658000Y-58985999D01*
X102659204Y-58961495D01*
X102662804Y-58937227D01*
X102668765Y-58913428D01*
X102677030Y-58890329D01*
X102687520Y-58868150D01*
X102700132Y-58847107D01*
X102714747Y-58827401D01*
X102731223Y-58809223D01*
X102749401Y-58792747D01*
X102769107Y-58778132D01*
X102790150Y-58765520D01*
X102812329Y-58755030D01*
X102835428Y-58746765D01*
X102859227Y-58740804D01*
X102883495Y-58737204D01*
X102907999Y-58736000D01*
X103558001Y-58736000D01*
X103582505Y-58737204D01*
X103582505Y-58737204D01*
G37*
D11*
X103233000Y-59436000D03*
D10*
G36*
X89247505Y-47922204D02*
G01*
X89271773Y-47925804D01*
X89295572Y-47931765D01*
X89318671Y-47940030D01*
X89340850Y-47950520D01*
X89361893Y-47963132D01*
X89381599Y-47977747D01*
X89399777Y-47994223D01*
X89416253Y-48012401D01*
X89430868Y-48032107D01*
X89443480Y-48053150D01*
X89453970Y-48075329D01*
X89462235Y-48098428D01*
X89468196Y-48122227D01*
X89471796Y-48146495D01*
X89473000Y-48170999D01*
X89473000Y-48821001D01*
X89471796Y-48845505D01*
X89468196Y-48869773D01*
X89462235Y-48893572D01*
X89453970Y-48916671D01*
X89443480Y-48938850D01*
X89430868Y-48959893D01*
X89416253Y-48979599D01*
X89399777Y-48997777D01*
X89381599Y-49014253D01*
X89361893Y-49028868D01*
X89340850Y-49041480D01*
X89318671Y-49051970D01*
X89295572Y-49060235D01*
X89271773Y-49066196D01*
X89247505Y-49069796D01*
X89223001Y-49071000D01*
X88322999Y-49071000D01*
X88298495Y-49069796D01*
X88274227Y-49066196D01*
X88250428Y-49060235D01*
X88227329Y-49051970D01*
X88205150Y-49041480D01*
X88184107Y-49028868D01*
X88164401Y-49014253D01*
X88146223Y-48997777D01*
X88129747Y-48979599D01*
X88115132Y-48959893D01*
X88102520Y-48938850D01*
X88092030Y-48916671D01*
X88083765Y-48893572D01*
X88077804Y-48869773D01*
X88074204Y-48845505D01*
X88073000Y-48821001D01*
X88073000Y-48170999D01*
X88074204Y-48146495D01*
X88077804Y-48122227D01*
X88083765Y-48098428D01*
X88092030Y-48075329D01*
X88102520Y-48053150D01*
X88115132Y-48032107D01*
X88129747Y-48012401D01*
X88146223Y-47994223D01*
X88164401Y-47977747D01*
X88184107Y-47963132D01*
X88205150Y-47950520D01*
X88227329Y-47940030D01*
X88250428Y-47931765D01*
X88274227Y-47925804D01*
X88298495Y-47922204D01*
X88322999Y-47921000D01*
X89223001Y-47921000D01*
X89247505Y-47922204D01*
X89247505Y-47922204D01*
G37*
D11*
X88773000Y-48496000D03*
D10*
G36*
X89247505Y-49972204D02*
G01*
X89271773Y-49975804D01*
X89295572Y-49981765D01*
X89318671Y-49990030D01*
X89340850Y-50000520D01*
X89361893Y-50013132D01*
X89381599Y-50027747D01*
X89399777Y-50044223D01*
X89416253Y-50062401D01*
X89430868Y-50082107D01*
X89443480Y-50103150D01*
X89453970Y-50125329D01*
X89462235Y-50148428D01*
X89468196Y-50172227D01*
X89471796Y-50196495D01*
X89473000Y-50220999D01*
X89473000Y-50871001D01*
X89471796Y-50895505D01*
X89468196Y-50919773D01*
X89462235Y-50943572D01*
X89453970Y-50966671D01*
X89443480Y-50988850D01*
X89430868Y-51009893D01*
X89416253Y-51029599D01*
X89399777Y-51047777D01*
X89381599Y-51064253D01*
X89361893Y-51078868D01*
X89340850Y-51091480D01*
X89318671Y-51101970D01*
X89295572Y-51110235D01*
X89271773Y-51116196D01*
X89247505Y-51119796D01*
X89223001Y-51121000D01*
X88322999Y-51121000D01*
X88298495Y-51119796D01*
X88274227Y-51116196D01*
X88250428Y-51110235D01*
X88227329Y-51101970D01*
X88205150Y-51091480D01*
X88184107Y-51078868D01*
X88164401Y-51064253D01*
X88146223Y-51047777D01*
X88129747Y-51029599D01*
X88115132Y-51009893D01*
X88102520Y-50988850D01*
X88092030Y-50966671D01*
X88083765Y-50943572D01*
X88077804Y-50919773D01*
X88074204Y-50895505D01*
X88073000Y-50871001D01*
X88073000Y-50220999D01*
X88074204Y-50196495D01*
X88077804Y-50172227D01*
X88083765Y-50148428D01*
X88092030Y-50125329D01*
X88102520Y-50103150D01*
X88115132Y-50082107D01*
X88129747Y-50062401D01*
X88146223Y-50044223D01*
X88164401Y-50027747D01*
X88184107Y-50013132D01*
X88205150Y-50000520D01*
X88227329Y-49990030D01*
X88250428Y-49981765D01*
X88274227Y-49975804D01*
X88298495Y-49972204D01*
X88322999Y-49971000D01*
X89223001Y-49971000D01*
X89247505Y-49972204D01*
X89247505Y-49972204D01*
G37*
D11*
X88773000Y-50546000D03*
D10*
G36*
X89247505Y-53782204D02*
G01*
X89271773Y-53785804D01*
X89295572Y-53791765D01*
X89318671Y-53800030D01*
X89340850Y-53810520D01*
X89361893Y-53823132D01*
X89381599Y-53837747D01*
X89399777Y-53854223D01*
X89416253Y-53872401D01*
X89430868Y-53892107D01*
X89443480Y-53913150D01*
X89453970Y-53935329D01*
X89462235Y-53958428D01*
X89468196Y-53982227D01*
X89471796Y-54006495D01*
X89473000Y-54030999D01*
X89473000Y-54681001D01*
X89471796Y-54705505D01*
X89468196Y-54729773D01*
X89462235Y-54753572D01*
X89453970Y-54776671D01*
X89443480Y-54798850D01*
X89430868Y-54819893D01*
X89416253Y-54839599D01*
X89399777Y-54857777D01*
X89381599Y-54874253D01*
X89361893Y-54888868D01*
X89340850Y-54901480D01*
X89318671Y-54911970D01*
X89295572Y-54920235D01*
X89271773Y-54926196D01*
X89247505Y-54929796D01*
X89223001Y-54931000D01*
X88322999Y-54931000D01*
X88298495Y-54929796D01*
X88274227Y-54926196D01*
X88250428Y-54920235D01*
X88227329Y-54911970D01*
X88205150Y-54901480D01*
X88184107Y-54888868D01*
X88164401Y-54874253D01*
X88146223Y-54857777D01*
X88129747Y-54839599D01*
X88115132Y-54819893D01*
X88102520Y-54798850D01*
X88092030Y-54776671D01*
X88083765Y-54753572D01*
X88077804Y-54729773D01*
X88074204Y-54705505D01*
X88073000Y-54681001D01*
X88073000Y-54030999D01*
X88074204Y-54006495D01*
X88077804Y-53982227D01*
X88083765Y-53958428D01*
X88092030Y-53935329D01*
X88102520Y-53913150D01*
X88115132Y-53892107D01*
X88129747Y-53872401D01*
X88146223Y-53854223D01*
X88164401Y-53837747D01*
X88184107Y-53823132D01*
X88205150Y-53810520D01*
X88227329Y-53800030D01*
X88250428Y-53791765D01*
X88274227Y-53785804D01*
X88298495Y-53782204D01*
X88322999Y-53781000D01*
X89223001Y-53781000D01*
X89247505Y-53782204D01*
X89247505Y-53782204D01*
G37*
D11*
X88773000Y-54356000D03*
D10*
G36*
X89247505Y-51732204D02*
G01*
X89271773Y-51735804D01*
X89295572Y-51741765D01*
X89318671Y-51750030D01*
X89340850Y-51760520D01*
X89361893Y-51773132D01*
X89381599Y-51787747D01*
X89399777Y-51804223D01*
X89416253Y-51822401D01*
X89430868Y-51842107D01*
X89443480Y-51863150D01*
X89453970Y-51885329D01*
X89462235Y-51908428D01*
X89468196Y-51932227D01*
X89471796Y-51956495D01*
X89473000Y-51980999D01*
X89473000Y-52631001D01*
X89471796Y-52655505D01*
X89468196Y-52679773D01*
X89462235Y-52703572D01*
X89453970Y-52726671D01*
X89443480Y-52748850D01*
X89430868Y-52769893D01*
X89416253Y-52789599D01*
X89399777Y-52807777D01*
X89381599Y-52824253D01*
X89361893Y-52838868D01*
X89340850Y-52851480D01*
X89318671Y-52861970D01*
X89295572Y-52870235D01*
X89271773Y-52876196D01*
X89247505Y-52879796D01*
X89223001Y-52881000D01*
X88322999Y-52881000D01*
X88298495Y-52879796D01*
X88274227Y-52876196D01*
X88250428Y-52870235D01*
X88227329Y-52861970D01*
X88205150Y-52851480D01*
X88184107Y-52838868D01*
X88164401Y-52824253D01*
X88146223Y-52807777D01*
X88129747Y-52789599D01*
X88115132Y-52769893D01*
X88102520Y-52748850D01*
X88092030Y-52726671D01*
X88083765Y-52703572D01*
X88077804Y-52679773D01*
X88074204Y-52655505D01*
X88073000Y-52631001D01*
X88073000Y-51980999D01*
X88074204Y-51956495D01*
X88077804Y-51932227D01*
X88083765Y-51908428D01*
X88092030Y-51885329D01*
X88102520Y-51863150D01*
X88115132Y-51842107D01*
X88129747Y-51822401D01*
X88146223Y-51804223D01*
X88164401Y-51787747D01*
X88184107Y-51773132D01*
X88205150Y-51760520D01*
X88227329Y-51750030D01*
X88250428Y-51741765D01*
X88274227Y-51735804D01*
X88298495Y-51732204D01*
X88322999Y-51731000D01*
X89223001Y-51731000D01*
X89247505Y-51732204D01*
X89247505Y-51732204D01*
G37*
D11*
X88773000Y-52306000D03*
D10*
G36*
X99534505Y-72052204D02*
G01*
X99558773Y-72055804D01*
X99582572Y-72061765D01*
X99605671Y-72070030D01*
X99627850Y-72080520D01*
X99648893Y-72093132D01*
X99668599Y-72107747D01*
X99686777Y-72124223D01*
X99703253Y-72142401D01*
X99717868Y-72162107D01*
X99730480Y-72183150D01*
X99740970Y-72205329D01*
X99749235Y-72228428D01*
X99755196Y-72252227D01*
X99758796Y-72276495D01*
X99760000Y-72300999D01*
X99760000Y-72951001D01*
X99758796Y-72975505D01*
X99755196Y-72999773D01*
X99749235Y-73023572D01*
X99740970Y-73046671D01*
X99730480Y-73068850D01*
X99717868Y-73089893D01*
X99703253Y-73109599D01*
X99686777Y-73127777D01*
X99668599Y-73144253D01*
X99648893Y-73158868D01*
X99627850Y-73171480D01*
X99605671Y-73181970D01*
X99582572Y-73190235D01*
X99558773Y-73196196D01*
X99534505Y-73199796D01*
X99510001Y-73201000D01*
X98609999Y-73201000D01*
X98585495Y-73199796D01*
X98561227Y-73196196D01*
X98537428Y-73190235D01*
X98514329Y-73181970D01*
X98492150Y-73171480D01*
X98471107Y-73158868D01*
X98451401Y-73144253D01*
X98433223Y-73127777D01*
X98416747Y-73109599D01*
X98402132Y-73089893D01*
X98389520Y-73068850D01*
X98379030Y-73046671D01*
X98370765Y-73023572D01*
X98364804Y-72999773D01*
X98361204Y-72975505D01*
X98360000Y-72951001D01*
X98360000Y-72300999D01*
X98361204Y-72276495D01*
X98364804Y-72252227D01*
X98370765Y-72228428D01*
X98379030Y-72205329D01*
X98389520Y-72183150D01*
X98402132Y-72162107D01*
X98416747Y-72142401D01*
X98433223Y-72124223D01*
X98451401Y-72107747D01*
X98471107Y-72093132D01*
X98492150Y-72080520D01*
X98514329Y-72070030D01*
X98537428Y-72061765D01*
X98561227Y-72055804D01*
X98585495Y-72052204D01*
X98609999Y-72051000D01*
X99510001Y-72051000D01*
X99534505Y-72052204D01*
X99534505Y-72052204D01*
G37*
D11*
X99060000Y-72626000D03*
D10*
G36*
X99534505Y-74102204D02*
G01*
X99558773Y-74105804D01*
X99582572Y-74111765D01*
X99605671Y-74120030D01*
X99627850Y-74130520D01*
X99648893Y-74143132D01*
X99668599Y-74157747D01*
X99686777Y-74174223D01*
X99703253Y-74192401D01*
X99717868Y-74212107D01*
X99730480Y-74233150D01*
X99740970Y-74255329D01*
X99749235Y-74278428D01*
X99755196Y-74302227D01*
X99758796Y-74326495D01*
X99760000Y-74350999D01*
X99760000Y-75001001D01*
X99758796Y-75025505D01*
X99755196Y-75049773D01*
X99749235Y-75073572D01*
X99740970Y-75096671D01*
X99730480Y-75118850D01*
X99717868Y-75139893D01*
X99703253Y-75159599D01*
X99686777Y-75177777D01*
X99668599Y-75194253D01*
X99648893Y-75208868D01*
X99627850Y-75221480D01*
X99605671Y-75231970D01*
X99582572Y-75240235D01*
X99558773Y-75246196D01*
X99534505Y-75249796D01*
X99510001Y-75251000D01*
X98609999Y-75251000D01*
X98585495Y-75249796D01*
X98561227Y-75246196D01*
X98537428Y-75240235D01*
X98514329Y-75231970D01*
X98492150Y-75221480D01*
X98471107Y-75208868D01*
X98451401Y-75194253D01*
X98433223Y-75177777D01*
X98416747Y-75159599D01*
X98402132Y-75139893D01*
X98389520Y-75118850D01*
X98379030Y-75096671D01*
X98370765Y-75073572D01*
X98364804Y-75049773D01*
X98361204Y-75025505D01*
X98360000Y-75001001D01*
X98360000Y-74350999D01*
X98361204Y-74326495D01*
X98364804Y-74302227D01*
X98370765Y-74278428D01*
X98379030Y-74255329D01*
X98389520Y-74233150D01*
X98402132Y-74212107D01*
X98416747Y-74192401D01*
X98433223Y-74174223D01*
X98451401Y-74157747D01*
X98471107Y-74143132D01*
X98492150Y-74130520D01*
X98514329Y-74120030D01*
X98537428Y-74111765D01*
X98561227Y-74105804D01*
X98585495Y-74102204D01*
X98609999Y-74101000D01*
X99510001Y-74101000D01*
X99534505Y-74102204D01*
X99534505Y-74102204D01*
G37*
D11*
X99060000Y-74676000D03*
D10*
G36*
X99534505Y-78184204D02*
G01*
X99558773Y-78187804D01*
X99582572Y-78193765D01*
X99605671Y-78202030D01*
X99627850Y-78212520D01*
X99648893Y-78225132D01*
X99668599Y-78239747D01*
X99686777Y-78256223D01*
X99703253Y-78274401D01*
X99717868Y-78294107D01*
X99730480Y-78315150D01*
X99740970Y-78337329D01*
X99749235Y-78360428D01*
X99755196Y-78384227D01*
X99758796Y-78408495D01*
X99760000Y-78432999D01*
X99760000Y-79083001D01*
X99758796Y-79107505D01*
X99755196Y-79131773D01*
X99749235Y-79155572D01*
X99740970Y-79178671D01*
X99730480Y-79200850D01*
X99717868Y-79221893D01*
X99703253Y-79241599D01*
X99686777Y-79259777D01*
X99668599Y-79276253D01*
X99648893Y-79290868D01*
X99627850Y-79303480D01*
X99605671Y-79313970D01*
X99582572Y-79322235D01*
X99558773Y-79328196D01*
X99534505Y-79331796D01*
X99510001Y-79333000D01*
X98609999Y-79333000D01*
X98585495Y-79331796D01*
X98561227Y-79328196D01*
X98537428Y-79322235D01*
X98514329Y-79313970D01*
X98492150Y-79303480D01*
X98471107Y-79290868D01*
X98451401Y-79276253D01*
X98433223Y-79259777D01*
X98416747Y-79241599D01*
X98402132Y-79221893D01*
X98389520Y-79200850D01*
X98379030Y-79178671D01*
X98370765Y-79155572D01*
X98364804Y-79131773D01*
X98361204Y-79107505D01*
X98360000Y-79083001D01*
X98360000Y-78432999D01*
X98361204Y-78408495D01*
X98364804Y-78384227D01*
X98370765Y-78360428D01*
X98379030Y-78337329D01*
X98389520Y-78315150D01*
X98402132Y-78294107D01*
X98416747Y-78274401D01*
X98433223Y-78256223D01*
X98451401Y-78239747D01*
X98471107Y-78225132D01*
X98492150Y-78212520D01*
X98514329Y-78202030D01*
X98537428Y-78193765D01*
X98561227Y-78187804D01*
X98585495Y-78184204D01*
X98609999Y-78183000D01*
X99510001Y-78183000D01*
X99534505Y-78184204D01*
X99534505Y-78184204D01*
G37*
D11*
X99060000Y-78758000D03*
D10*
G36*
X99534505Y-76134204D02*
G01*
X99558773Y-76137804D01*
X99582572Y-76143765D01*
X99605671Y-76152030D01*
X99627850Y-76162520D01*
X99648893Y-76175132D01*
X99668599Y-76189747D01*
X99686777Y-76206223D01*
X99703253Y-76224401D01*
X99717868Y-76244107D01*
X99730480Y-76265150D01*
X99740970Y-76287329D01*
X99749235Y-76310428D01*
X99755196Y-76334227D01*
X99758796Y-76358495D01*
X99760000Y-76382999D01*
X99760000Y-77033001D01*
X99758796Y-77057505D01*
X99755196Y-77081773D01*
X99749235Y-77105572D01*
X99740970Y-77128671D01*
X99730480Y-77150850D01*
X99717868Y-77171893D01*
X99703253Y-77191599D01*
X99686777Y-77209777D01*
X99668599Y-77226253D01*
X99648893Y-77240868D01*
X99627850Y-77253480D01*
X99605671Y-77263970D01*
X99582572Y-77272235D01*
X99558773Y-77278196D01*
X99534505Y-77281796D01*
X99510001Y-77283000D01*
X98609999Y-77283000D01*
X98585495Y-77281796D01*
X98561227Y-77278196D01*
X98537428Y-77272235D01*
X98514329Y-77263970D01*
X98492150Y-77253480D01*
X98471107Y-77240868D01*
X98451401Y-77226253D01*
X98433223Y-77209777D01*
X98416747Y-77191599D01*
X98402132Y-77171893D01*
X98389520Y-77150850D01*
X98379030Y-77128671D01*
X98370765Y-77105572D01*
X98364804Y-77081773D01*
X98361204Y-77057505D01*
X98360000Y-77033001D01*
X98360000Y-76382999D01*
X98361204Y-76358495D01*
X98364804Y-76334227D01*
X98370765Y-76310428D01*
X98379030Y-76287329D01*
X98389520Y-76265150D01*
X98402132Y-76244107D01*
X98416747Y-76224401D01*
X98433223Y-76206223D01*
X98451401Y-76189747D01*
X98471107Y-76175132D01*
X98492150Y-76162520D01*
X98514329Y-76152030D01*
X98537428Y-76143765D01*
X98561227Y-76137804D01*
X98585495Y-76134204D01*
X98609999Y-76133000D01*
X99510001Y-76133000D01*
X99534505Y-76134204D01*
X99534505Y-76134204D01*
G37*
D11*
X99060000Y-76708000D03*
D10*
G36*
X102582505Y-72070204D02*
G01*
X102606773Y-72073804D01*
X102630572Y-72079765D01*
X102653671Y-72088030D01*
X102675850Y-72098520D01*
X102696893Y-72111132D01*
X102716599Y-72125747D01*
X102734777Y-72142223D01*
X102751253Y-72160401D01*
X102765868Y-72180107D01*
X102778480Y-72201150D01*
X102788970Y-72223329D01*
X102797235Y-72246428D01*
X102803196Y-72270227D01*
X102806796Y-72294495D01*
X102808000Y-72318999D01*
X102808000Y-72969001D01*
X102806796Y-72993505D01*
X102803196Y-73017773D01*
X102797235Y-73041572D01*
X102788970Y-73064671D01*
X102778480Y-73086850D01*
X102765868Y-73107893D01*
X102751253Y-73127599D01*
X102734777Y-73145777D01*
X102716599Y-73162253D01*
X102696893Y-73176868D01*
X102675850Y-73189480D01*
X102653671Y-73199970D01*
X102630572Y-73208235D01*
X102606773Y-73214196D01*
X102582505Y-73217796D01*
X102558001Y-73219000D01*
X101657999Y-73219000D01*
X101633495Y-73217796D01*
X101609227Y-73214196D01*
X101585428Y-73208235D01*
X101562329Y-73199970D01*
X101540150Y-73189480D01*
X101519107Y-73176868D01*
X101499401Y-73162253D01*
X101481223Y-73145777D01*
X101464747Y-73127599D01*
X101450132Y-73107893D01*
X101437520Y-73086850D01*
X101427030Y-73064671D01*
X101418765Y-73041572D01*
X101412804Y-73017773D01*
X101409204Y-72993505D01*
X101408000Y-72969001D01*
X101408000Y-72318999D01*
X101409204Y-72294495D01*
X101412804Y-72270227D01*
X101418765Y-72246428D01*
X101427030Y-72223329D01*
X101437520Y-72201150D01*
X101450132Y-72180107D01*
X101464747Y-72160401D01*
X101481223Y-72142223D01*
X101499401Y-72125747D01*
X101519107Y-72111132D01*
X101540150Y-72098520D01*
X101562329Y-72088030D01*
X101585428Y-72079765D01*
X101609227Y-72073804D01*
X101633495Y-72070204D01*
X101657999Y-72069000D01*
X102558001Y-72069000D01*
X102582505Y-72070204D01*
X102582505Y-72070204D01*
G37*
D11*
X102108000Y-72644000D03*
D10*
G36*
X102582505Y-74120204D02*
G01*
X102606773Y-74123804D01*
X102630572Y-74129765D01*
X102653671Y-74138030D01*
X102675850Y-74148520D01*
X102696893Y-74161132D01*
X102716599Y-74175747D01*
X102734777Y-74192223D01*
X102751253Y-74210401D01*
X102765868Y-74230107D01*
X102778480Y-74251150D01*
X102788970Y-74273329D01*
X102797235Y-74296428D01*
X102803196Y-74320227D01*
X102806796Y-74344495D01*
X102808000Y-74368999D01*
X102808000Y-75019001D01*
X102806796Y-75043505D01*
X102803196Y-75067773D01*
X102797235Y-75091572D01*
X102788970Y-75114671D01*
X102778480Y-75136850D01*
X102765868Y-75157893D01*
X102751253Y-75177599D01*
X102734777Y-75195777D01*
X102716599Y-75212253D01*
X102696893Y-75226868D01*
X102675850Y-75239480D01*
X102653671Y-75249970D01*
X102630572Y-75258235D01*
X102606773Y-75264196D01*
X102582505Y-75267796D01*
X102558001Y-75269000D01*
X101657999Y-75269000D01*
X101633495Y-75267796D01*
X101609227Y-75264196D01*
X101585428Y-75258235D01*
X101562329Y-75249970D01*
X101540150Y-75239480D01*
X101519107Y-75226868D01*
X101499401Y-75212253D01*
X101481223Y-75195777D01*
X101464747Y-75177599D01*
X101450132Y-75157893D01*
X101437520Y-75136850D01*
X101427030Y-75114671D01*
X101418765Y-75091572D01*
X101412804Y-75067773D01*
X101409204Y-75043505D01*
X101408000Y-75019001D01*
X101408000Y-74368999D01*
X101409204Y-74344495D01*
X101412804Y-74320227D01*
X101418765Y-74296428D01*
X101427030Y-74273329D01*
X101437520Y-74251150D01*
X101450132Y-74230107D01*
X101464747Y-74210401D01*
X101481223Y-74192223D01*
X101499401Y-74175747D01*
X101519107Y-74161132D01*
X101540150Y-74148520D01*
X101562329Y-74138030D01*
X101585428Y-74129765D01*
X101609227Y-74123804D01*
X101633495Y-74120204D01*
X101657999Y-74119000D01*
X102558001Y-74119000D01*
X102582505Y-74120204D01*
X102582505Y-74120204D01*
G37*
D11*
X102108000Y-74694000D03*
D10*
G36*
X127220505Y-80207204D02*
G01*
X127244773Y-80210804D01*
X127268572Y-80216765D01*
X127291671Y-80225030D01*
X127313850Y-80235520D01*
X127334893Y-80248132D01*
X127354599Y-80262747D01*
X127372777Y-80279223D01*
X127389253Y-80297401D01*
X127403868Y-80317107D01*
X127416480Y-80338150D01*
X127426970Y-80360329D01*
X127435235Y-80383428D01*
X127441196Y-80407227D01*
X127444796Y-80431495D01*
X127446000Y-80455999D01*
X127446000Y-81106001D01*
X127444796Y-81130505D01*
X127441196Y-81154773D01*
X127435235Y-81178572D01*
X127426970Y-81201671D01*
X127416480Y-81223850D01*
X127403868Y-81244893D01*
X127389253Y-81264599D01*
X127372777Y-81282777D01*
X127354599Y-81299253D01*
X127334893Y-81313868D01*
X127313850Y-81326480D01*
X127291671Y-81336970D01*
X127268572Y-81345235D01*
X127244773Y-81351196D01*
X127220505Y-81354796D01*
X127196001Y-81356000D01*
X126295999Y-81356000D01*
X126271495Y-81354796D01*
X126247227Y-81351196D01*
X126223428Y-81345235D01*
X126200329Y-81336970D01*
X126178150Y-81326480D01*
X126157107Y-81313868D01*
X126137401Y-81299253D01*
X126119223Y-81282777D01*
X126102747Y-81264599D01*
X126088132Y-81244893D01*
X126075520Y-81223850D01*
X126065030Y-81201671D01*
X126056765Y-81178572D01*
X126050804Y-81154773D01*
X126047204Y-81130505D01*
X126046000Y-81106001D01*
X126046000Y-80455999D01*
X126047204Y-80431495D01*
X126050804Y-80407227D01*
X126056765Y-80383428D01*
X126065030Y-80360329D01*
X126075520Y-80338150D01*
X126088132Y-80317107D01*
X126102747Y-80297401D01*
X126119223Y-80279223D01*
X126137401Y-80262747D01*
X126157107Y-80248132D01*
X126178150Y-80235520D01*
X126200329Y-80225030D01*
X126223428Y-80216765D01*
X126247227Y-80210804D01*
X126271495Y-80207204D01*
X126295999Y-80206000D01*
X127196001Y-80206000D01*
X127220505Y-80207204D01*
X127220505Y-80207204D01*
G37*
D11*
X126746000Y-80781000D03*
D10*
G36*
X127220505Y-78157204D02*
G01*
X127244773Y-78160804D01*
X127268572Y-78166765D01*
X127291671Y-78175030D01*
X127313850Y-78185520D01*
X127334893Y-78198132D01*
X127354599Y-78212747D01*
X127372777Y-78229223D01*
X127389253Y-78247401D01*
X127403868Y-78267107D01*
X127416480Y-78288150D01*
X127426970Y-78310329D01*
X127435235Y-78333428D01*
X127441196Y-78357227D01*
X127444796Y-78381495D01*
X127446000Y-78405999D01*
X127446000Y-79056001D01*
X127444796Y-79080505D01*
X127441196Y-79104773D01*
X127435235Y-79128572D01*
X127426970Y-79151671D01*
X127416480Y-79173850D01*
X127403868Y-79194893D01*
X127389253Y-79214599D01*
X127372777Y-79232777D01*
X127354599Y-79249253D01*
X127334893Y-79263868D01*
X127313850Y-79276480D01*
X127291671Y-79286970D01*
X127268572Y-79295235D01*
X127244773Y-79301196D01*
X127220505Y-79304796D01*
X127196001Y-79306000D01*
X126295999Y-79306000D01*
X126271495Y-79304796D01*
X126247227Y-79301196D01*
X126223428Y-79295235D01*
X126200329Y-79286970D01*
X126178150Y-79276480D01*
X126157107Y-79263868D01*
X126137401Y-79249253D01*
X126119223Y-79232777D01*
X126102747Y-79214599D01*
X126088132Y-79194893D01*
X126075520Y-79173850D01*
X126065030Y-79151671D01*
X126056765Y-79128572D01*
X126050804Y-79104773D01*
X126047204Y-79080505D01*
X126046000Y-79056001D01*
X126046000Y-78405999D01*
X126047204Y-78381495D01*
X126050804Y-78357227D01*
X126056765Y-78333428D01*
X126065030Y-78310329D01*
X126075520Y-78288150D01*
X126088132Y-78267107D01*
X126102747Y-78247401D01*
X126119223Y-78229223D01*
X126137401Y-78212747D01*
X126157107Y-78198132D01*
X126178150Y-78185520D01*
X126200329Y-78175030D01*
X126223428Y-78166765D01*
X126247227Y-78160804D01*
X126271495Y-78157204D01*
X126295999Y-78156000D01*
X127196001Y-78156000D01*
X127220505Y-78157204D01*
X127220505Y-78157204D01*
G37*
D11*
X126746000Y-78731000D03*
D10*
G36*
X102582505Y-87310204D02*
G01*
X102606773Y-87313804D01*
X102630572Y-87319765D01*
X102653671Y-87328030D01*
X102675850Y-87338520D01*
X102696893Y-87351132D01*
X102716599Y-87365747D01*
X102734777Y-87382223D01*
X102751253Y-87400401D01*
X102765868Y-87420107D01*
X102778480Y-87441150D01*
X102788970Y-87463329D01*
X102797235Y-87486428D01*
X102803196Y-87510227D01*
X102806796Y-87534495D01*
X102808000Y-87558999D01*
X102808000Y-88209001D01*
X102806796Y-88233505D01*
X102803196Y-88257773D01*
X102797235Y-88281572D01*
X102788970Y-88304671D01*
X102778480Y-88326850D01*
X102765868Y-88347893D01*
X102751253Y-88367599D01*
X102734777Y-88385777D01*
X102716599Y-88402253D01*
X102696893Y-88416868D01*
X102675850Y-88429480D01*
X102653671Y-88439970D01*
X102630572Y-88448235D01*
X102606773Y-88454196D01*
X102582505Y-88457796D01*
X102558001Y-88459000D01*
X101657999Y-88459000D01*
X101633495Y-88457796D01*
X101609227Y-88454196D01*
X101585428Y-88448235D01*
X101562329Y-88439970D01*
X101540150Y-88429480D01*
X101519107Y-88416868D01*
X101499401Y-88402253D01*
X101481223Y-88385777D01*
X101464747Y-88367599D01*
X101450132Y-88347893D01*
X101437520Y-88326850D01*
X101427030Y-88304671D01*
X101418765Y-88281572D01*
X101412804Y-88257773D01*
X101409204Y-88233505D01*
X101408000Y-88209001D01*
X101408000Y-87558999D01*
X101409204Y-87534495D01*
X101412804Y-87510227D01*
X101418765Y-87486428D01*
X101427030Y-87463329D01*
X101437520Y-87441150D01*
X101450132Y-87420107D01*
X101464747Y-87400401D01*
X101481223Y-87382223D01*
X101499401Y-87365747D01*
X101519107Y-87351132D01*
X101540150Y-87338520D01*
X101562329Y-87328030D01*
X101585428Y-87319765D01*
X101609227Y-87313804D01*
X101633495Y-87310204D01*
X101657999Y-87309000D01*
X102558001Y-87309000D01*
X102582505Y-87310204D01*
X102582505Y-87310204D01*
G37*
D11*
X102108000Y-87884000D03*
D10*
G36*
X102582505Y-85260204D02*
G01*
X102606773Y-85263804D01*
X102630572Y-85269765D01*
X102653671Y-85278030D01*
X102675850Y-85288520D01*
X102696893Y-85301132D01*
X102716599Y-85315747D01*
X102734777Y-85332223D01*
X102751253Y-85350401D01*
X102765868Y-85370107D01*
X102778480Y-85391150D01*
X102788970Y-85413329D01*
X102797235Y-85436428D01*
X102803196Y-85460227D01*
X102806796Y-85484495D01*
X102808000Y-85508999D01*
X102808000Y-86159001D01*
X102806796Y-86183505D01*
X102803196Y-86207773D01*
X102797235Y-86231572D01*
X102788970Y-86254671D01*
X102778480Y-86276850D01*
X102765868Y-86297893D01*
X102751253Y-86317599D01*
X102734777Y-86335777D01*
X102716599Y-86352253D01*
X102696893Y-86366868D01*
X102675850Y-86379480D01*
X102653671Y-86389970D01*
X102630572Y-86398235D01*
X102606773Y-86404196D01*
X102582505Y-86407796D01*
X102558001Y-86409000D01*
X101657999Y-86409000D01*
X101633495Y-86407796D01*
X101609227Y-86404196D01*
X101585428Y-86398235D01*
X101562329Y-86389970D01*
X101540150Y-86379480D01*
X101519107Y-86366868D01*
X101499401Y-86352253D01*
X101481223Y-86335777D01*
X101464747Y-86317599D01*
X101450132Y-86297893D01*
X101437520Y-86276850D01*
X101427030Y-86254671D01*
X101418765Y-86231572D01*
X101412804Y-86207773D01*
X101409204Y-86183505D01*
X101408000Y-86159001D01*
X101408000Y-85508999D01*
X101409204Y-85484495D01*
X101412804Y-85460227D01*
X101418765Y-85436428D01*
X101427030Y-85413329D01*
X101437520Y-85391150D01*
X101450132Y-85370107D01*
X101464747Y-85350401D01*
X101481223Y-85332223D01*
X101499401Y-85315747D01*
X101519107Y-85301132D01*
X101540150Y-85288520D01*
X101562329Y-85278030D01*
X101585428Y-85269765D01*
X101609227Y-85263804D01*
X101633495Y-85260204D01*
X101657999Y-85259000D01*
X102558001Y-85259000D01*
X102582505Y-85260204D01*
X102582505Y-85260204D01*
G37*
D11*
X102108000Y-85834000D03*
D10*
G36*
X114377505Y-96329204D02*
G01*
X114401773Y-96332804D01*
X114425572Y-96338765D01*
X114448671Y-96347030D01*
X114470850Y-96357520D01*
X114491893Y-96370132D01*
X114511599Y-96384747D01*
X114529777Y-96401223D01*
X114546253Y-96419401D01*
X114560868Y-96439107D01*
X114573480Y-96460150D01*
X114583970Y-96482329D01*
X114592235Y-96505428D01*
X114598196Y-96529227D01*
X114601796Y-96553495D01*
X114603000Y-96577999D01*
X114603000Y-97478001D01*
X114601796Y-97502505D01*
X114598196Y-97526773D01*
X114592235Y-97550572D01*
X114583970Y-97573671D01*
X114573480Y-97595850D01*
X114560868Y-97616893D01*
X114546253Y-97636599D01*
X114529777Y-97654777D01*
X114511599Y-97671253D01*
X114491893Y-97685868D01*
X114470850Y-97698480D01*
X114448671Y-97708970D01*
X114425572Y-97717235D01*
X114401773Y-97723196D01*
X114377505Y-97726796D01*
X114353001Y-97728000D01*
X113702999Y-97728000D01*
X113678495Y-97726796D01*
X113654227Y-97723196D01*
X113630428Y-97717235D01*
X113607329Y-97708970D01*
X113585150Y-97698480D01*
X113564107Y-97685868D01*
X113544401Y-97671253D01*
X113526223Y-97654777D01*
X113509747Y-97636599D01*
X113495132Y-97616893D01*
X113482520Y-97595850D01*
X113472030Y-97573671D01*
X113463765Y-97550572D01*
X113457804Y-97526773D01*
X113454204Y-97502505D01*
X113453000Y-97478001D01*
X113453000Y-96577999D01*
X113454204Y-96553495D01*
X113457804Y-96529227D01*
X113463765Y-96505428D01*
X113472030Y-96482329D01*
X113482520Y-96460150D01*
X113495132Y-96439107D01*
X113509747Y-96419401D01*
X113526223Y-96401223D01*
X113544401Y-96384747D01*
X113564107Y-96370132D01*
X113585150Y-96357520D01*
X113607329Y-96347030D01*
X113630428Y-96338765D01*
X113654227Y-96332804D01*
X113678495Y-96329204D01*
X113702999Y-96328000D01*
X114353001Y-96328000D01*
X114377505Y-96329204D01*
X114377505Y-96329204D01*
G37*
D11*
X114028000Y-97028000D03*
D10*
G36*
X116427505Y-96329204D02*
G01*
X116451773Y-96332804D01*
X116475572Y-96338765D01*
X116498671Y-96347030D01*
X116520850Y-96357520D01*
X116541893Y-96370132D01*
X116561599Y-96384747D01*
X116579777Y-96401223D01*
X116596253Y-96419401D01*
X116610868Y-96439107D01*
X116623480Y-96460150D01*
X116633970Y-96482329D01*
X116642235Y-96505428D01*
X116648196Y-96529227D01*
X116651796Y-96553495D01*
X116653000Y-96577999D01*
X116653000Y-97478001D01*
X116651796Y-97502505D01*
X116648196Y-97526773D01*
X116642235Y-97550572D01*
X116633970Y-97573671D01*
X116623480Y-97595850D01*
X116610868Y-97616893D01*
X116596253Y-97636599D01*
X116579777Y-97654777D01*
X116561599Y-97671253D01*
X116541893Y-97685868D01*
X116520850Y-97698480D01*
X116498671Y-97708970D01*
X116475572Y-97717235D01*
X116451773Y-97723196D01*
X116427505Y-97726796D01*
X116403001Y-97728000D01*
X115752999Y-97728000D01*
X115728495Y-97726796D01*
X115704227Y-97723196D01*
X115680428Y-97717235D01*
X115657329Y-97708970D01*
X115635150Y-97698480D01*
X115614107Y-97685868D01*
X115594401Y-97671253D01*
X115576223Y-97654777D01*
X115559747Y-97636599D01*
X115545132Y-97616893D01*
X115532520Y-97595850D01*
X115522030Y-97573671D01*
X115513765Y-97550572D01*
X115507804Y-97526773D01*
X115504204Y-97502505D01*
X115503000Y-97478001D01*
X115503000Y-96577999D01*
X115504204Y-96553495D01*
X115507804Y-96529227D01*
X115513765Y-96505428D01*
X115522030Y-96482329D01*
X115532520Y-96460150D01*
X115545132Y-96439107D01*
X115559747Y-96419401D01*
X115576223Y-96401223D01*
X115594401Y-96384747D01*
X115614107Y-96370132D01*
X115635150Y-96357520D01*
X115657329Y-96347030D01*
X115680428Y-96338765D01*
X115704227Y-96332804D01*
X115728495Y-96329204D01*
X115752999Y-96328000D01*
X116403001Y-96328000D01*
X116427505Y-96329204D01*
X116427505Y-96329204D01*
G37*
D11*
X116078000Y-97028000D03*
D10*
G36*
X99534505Y-85260204D02*
G01*
X99558773Y-85263804D01*
X99582572Y-85269765D01*
X99605671Y-85278030D01*
X99627850Y-85288520D01*
X99648893Y-85301132D01*
X99668599Y-85315747D01*
X99686777Y-85332223D01*
X99703253Y-85350401D01*
X99717868Y-85370107D01*
X99730480Y-85391150D01*
X99740970Y-85413329D01*
X99749235Y-85436428D01*
X99755196Y-85460227D01*
X99758796Y-85484495D01*
X99760000Y-85508999D01*
X99760000Y-86159001D01*
X99758796Y-86183505D01*
X99755196Y-86207773D01*
X99749235Y-86231572D01*
X99740970Y-86254671D01*
X99730480Y-86276850D01*
X99717868Y-86297893D01*
X99703253Y-86317599D01*
X99686777Y-86335777D01*
X99668599Y-86352253D01*
X99648893Y-86366868D01*
X99627850Y-86379480D01*
X99605671Y-86389970D01*
X99582572Y-86398235D01*
X99558773Y-86404196D01*
X99534505Y-86407796D01*
X99510001Y-86409000D01*
X98609999Y-86409000D01*
X98585495Y-86407796D01*
X98561227Y-86404196D01*
X98537428Y-86398235D01*
X98514329Y-86389970D01*
X98492150Y-86379480D01*
X98471107Y-86366868D01*
X98451401Y-86352253D01*
X98433223Y-86335777D01*
X98416747Y-86317599D01*
X98402132Y-86297893D01*
X98389520Y-86276850D01*
X98379030Y-86254671D01*
X98370765Y-86231572D01*
X98364804Y-86207773D01*
X98361204Y-86183505D01*
X98360000Y-86159001D01*
X98360000Y-85508999D01*
X98361204Y-85484495D01*
X98364804Y-85460227D01*
X98370765Y-85436428D01*
X98379030Y-85413329D01*
X98389520Y-85391150D01*
X98402132Y-85370107D01*
X98416747Y-85350401D01*
X98433223Y-85332223D01*
X98451401Y-85315747D01*
X98471107Y-85301132D01*
X98492150Y-85288520D01*
X98514329Y-85278030D01*
X98537428Y-85269765D01*
X98561227Y-85263804D01*
X98585495Y-85260204D01*
X98609999Y-85259000D01*
X99510001Y-85259000D01*
X99534505Y-85260204D01*
X99534505Y-85260204D01*
G37*
D11*
X99060000Y-85834000D03*
D10*
G36*
X99534505Y-87310204D02*
G01*
X99558773Y-87313804D01*
X99582572Y-87319765D01*
X99605671Y-87328030D01*
X99627850Y-87338520D01*
X99648893Y-87351132D01*
X99668599Y-87365747D01*
X99686777Y-87382223D01*
X99703253Y-87400401D01*
X99717868Y-87420107D01*
X99730480Y-87441150D01*
X99740970Y-87463329D01*
X99749235Y-87486428D01*
X99755196Y-87510227D01*
X99758796Y-87534495D01*
X99760000Y-87558999D01*
X99760000Y-88209001D01*
X99758796Y-88233505D01*
X99755196Y-88257773D01*
X99749235Y-88281572D01*
X99740970Y-88304671D01*
X99730480Y-88326850D01*
X99717868Y-88347893D01*
X99703253Y-88367599D01*
X99686777Y-88385777D01*
X99668599Y-88402253D01*
X99648893Y-88416868D01*
X99627850Y-88429480D01*
X99605671Y-88439970D01*
X99582572Y-88448235D01*
X99558773Y-88454196D01*
X99534505Y-88457796D01*
X99510001Y-88459000D01*
X98609999Y-88459000D01*
X98585495Y-88457796D01*
X98561227Y-88454196D01*
X98537428Y-88448235D01*
X98514329Y-88439970D01*
X98492150Y-88429480D01*
X98471107Y-88416868D01*
X98451401Y-88402253D01*
X98433223Y-88385777D01*
X98416747Y-88367599D01*
X98402132Y-88347893D01*
X98389520Y-88326850D01*
X98379030Y-88304671D01*
X98370765Y-88281572D01*
X98364804Y-88257773D01*
X98361204Y-88233505D01*
X98360000Y-88209001D01*
X98360000Y-87558999D01*
X98361204Y-87534495D01*
X98364804Y-87510227D01*
X98370765Y-87486428D01*
X98379030Y-87463329D01*
X98389520Y-87441150D01*
X98402132Y-87420107D01*
X98416747Y-87400401D01*
X98433223Y-87382223D01*
X98451401Y-87365747D01*
X98471107Y-87351132D01*
X98492150Y-87338520D01*
X98514329Y-87328030D01*
X98537428Y-87319765D01*
X98561227Y-87313804D01*
X98585495Y-87310204D01*
X98609999Y-87309000D01*
X99510001Y-87309000D01*
X99534505Y-87310204D01*
X99534505Y-87310204D01*
G37*
D11*
X99060000Y-87884000D03*
D10*
G36*
X99534505Y-91374204D02*
G01*
X99558773Y-91377804D01*
X99582572Y-91383765D01*
X99605671Y-91392030D01*
X99627850Y-91402520D01*
X99648893Y-91415132D01*
X99668599Y-91429747D01*
X99686777Y-91446223D01*
X99703253Y-91464401D01*
X99717868Y-91484107D01*
X99730480Y-91505150D01*
X99740970Y-91527329D01*
X99749235Y-91550428D01*
X99755196Y-91574227D01*
X99758796Y-91598495D01*
X99760000Y-91622999D01*
X99760000Y-92273001D01*
X99758796Y-92297505D01*
X99755196Y-92321773D01*
X99749235Y-92345572D01*
X99740970Y-92368671D01*
X99730480Y-92390850D01*
X99717868Y-92411893D01*
X99703253Y-92431599D01*
X99686777Y-92449777D01*
X99668599Y-92466253D01*
X99648893Y-92480868D01*
X99627850Y-92493480D01*
X99605671Y-92503970D01*
X99582572Y-92512235D01*
X99558773Y-92518196D01*
X99534505Y-92521796D01*
X99510001Y-92523000D01*
X98609999Y-92523000D01*
X98585495Y-92521796D01*
X98561227Y-92518196D01*
X98537428Y-92512235D01*
X98514329Y-92503970D01*
X98492150Y-92493480D01*
X98471107Y-92480868D01*
X98451401Y-92466253D01*
X98433223Y-92449777D01*
X98416747Y-92431599D01*
X98402132Y-92411893D01*
X98389520Y-92390850D01*
X98379030Y-92368671D01*
X98370765Y-92345572D01*
X98364804Y-92321773D01*
X98361204Y-92297505D01*
X98360000Y-92273001D01*
X98360000Y-91622999D01*
X98361204Y-91598495D01*
X98364804Y-91574227D01*
X98370765Y-91550428D01*
X98379030Y-91527329D01*
X98389520Y-91505150D01*
X98402132Y-91484107D01*
X98416747Y-91464401D01*
X98433223Y-91446223D01*
X98451401Y-91429747D01*
X98471107Y-91415132D01*
X98492150Y-91402520D01*
X98514329Y-91392030D01*
X98537428Y-91383765D01*
X98561227Y-91377804D01*
X98585495Y-91374204D01*
X98609999Y-91373000D01*
X99510001Y-91373000D01*
X99534505Y-91374204D01*
X99534505Y-91374204D01*
G37*
D11*
X99060000Y-91948000D03*
D10*
G36*
X99534505Y-89324204D02*
G01*
X99558773Y-89327804D01*
X99582572Y-89333765D01*
X99605671Y-89342030D01*
X99627850Y-89352520D01*
X99648893Y-89365132D01*
X99668599Y-89379747D01*
X99686777Y-89396223D01*
X99703253Y-89414401D01*
X99717868Y-89434107D01*
X99730480Y-89455150D01*
X99740970Y-89477329D01*
X99749235Y-89500428D01*
X99755196Y-89524227D01*
X99758796Y-89548495D01*
X99760000Y-89572999D01*
X99760000Y-90223001D01*
X99758796Y-90247505D01*
X99755196Y-90271773D01*
X99749235Y-90295572D01*
X99740970Y-90318671D01*
X99730480Y-90340850D01*
X99717868Y-90361893D01*
X99703253Y-90381599D01*
X99686777Y-90399777D01*
X99668599Y-90416253D01*
X99648893Y-90430868D01*
X99627850Y-90443480D01*
X99605671Y-90453970D01*
X99582572Y-90462235D01*
X99558773Y-90468196D01*
X99534505Y-90471796D01*
X99510001Y-90473000D01*
X98609999Y-90473000D01*
X98585495Y-90471796D01*
X98561227Y-90468196D01*
X98537428Y-90462235D01*
X98514329Y-90453970D01*
X98492150Y-90443480D01*
X98471107Y-90430868D01*
X98451401Y-90416253D01*
X98433223Y-90399777D01*
X98416747Y-90381599D01*
X98402132Y-90361893D01*
X98389520Y-90340850D01*
X98379030Y-90318671D01*
X98370765Y-90295572D01*
X98364804Y-90271773D01*
X98361204Y-90247505D01*
X98360000Y-90223001D01*
X98360000Y-89572999D01*
X98361204Y-89548495D01*
X98364804Y-89524227D01*
X98370765Y-89500428D01*
X98379030Y-89477329D01*
X98389520Y-89455150D01*
X98402132Y-89434107D01*
X98416747Y-89414401D01*
X98433223Y-89396223D01*
X98451401Y-89379747D01*
X98471107Y-89365132D01*
X98492150Y-89352520D01*
X98514329Y-89342030D01*
X98537428Y-89333765D01*
X98561227Y-89327804D01*
X98585495Y-89324204D01*
X98609999Y-89323000D01*
X99510001Y-89323000D01*
X99534505Y-89324204D01*
X99534505Y-89324204D01*
G37*
D11*
X99060000Y-89898000D03*
D10*
G36*
X26128505Y-74102204D02*
G01*
X26152773Y-74105804D01*
X26176572Y-74111765D01*
X26199671Y-74120030D01*
X26221850Y-74130520D01*
X26242893Y-74143132D01*
X26262599Y-74157747D01*
X26280777Y-74174223D01*
X26297253Y-74192401D01*
X26311868Y-74212107D01*
X26324480Y-74233150D01*
X26334970Y-74255329D01*
X26343235Y-74278428D01*
X26349196Y-74302227D01*
X26352796Y-74326495D01*
X26354000Y-74350999D01*
X26354000Y-75001001D01*
X26352796Y-75025505D01*
X26349196Y-75049773D01*
X26343235Y-75073572D01*
X26334970Y-75096671D01*
X26324480Y-75118850D01*
X26311868Y-75139893D01*
X26297253Y-75159599D01*
X26280777Y-75177777D01*
X26262599Y-75194253D01*
X26242893Y-75208868D01*
X26221850Y-75221480D01*
X26199671Y-75231970D01*
X26176572Y-75240235D01*
X26152773Y-75246196D01*
X26128505Y-75249796D01*
X26104001Y-75251000D01*
X25203999Y-75251000D01*
X25179495Y-75249796D01*
X25155227Y-75246196D01*
X25131428Y-75240235D01*
X25108329Y-75231970D01*
X25086150Y-75221480D01*
X25065107Y-75208868D01*
X25045401Y-75194253D01*
X25027223Y-75177777D01*
X25010747Y-75159599D01*
X24996132Y-75139893D01*
X24983520Y-75118850D01*
X24973030Y-75096671D01*
X24964765Y-75073572D01*
X24958804Y-75049773D01*
X24955204Y-75025505D01*
X24954000Y-75001001D01*
X24954000Y-74350999D01*
X24955204Y-74326495D01*
X24958804Y-74302227D01*
X24964765Y-74278428D01*
X24973030Y-74255329D01*
X24983520Y-74233150D01*
X24996132Y-74212107D01*
X25010747Y-74192401D01*
X25027223Y-74174223D01*
X25045401Y-74157747D01*
X25065107Y-74143132D01*
X25086150Y-74130520D01*
X25108329Y-74120030D01*
X25131428Y-74111765D01*
X25155227Y-74105804D01*
X25179495Y-74102204D01*
X25203999Y-74101000D01*
X26104001Y-74101000D01*
X26128505Y-74102204D01*
X26128505Y-74102204D01*
G37*
D11*
X25654000Y-74676000D03*
D10*
G36*
X26128505Y-72052204D02*
G01*
X26152773Y-72055804D01*
X26176572Y-72061765D01*
X26199671Y-72070030D01*
X26221850Y-72080520D01*
X26242893Y-72093132D01*
X26262599Y-72107747D01*
X26280777Y-72124223D01*
X26297253Y-72142401D01*
X26311868Y-72162107D01*
X26324480Y-72183150D01*
X26334970Y-72205329D01*
X26343235Y-72228428D01*
X26349196Y-72252227D01*
X26352796Y-72276495D01*
X26354000Y-72300999D01*
X26354000Y-72951001D01*
X26352796Y-72975505D01*
X26349196Y-72999773D01*
X26343235Y-73023572D01*
X26334970Y-73046671D01*
X26324480Y-73068850D01*
X26311868Y-73089893D01*
X26297253Y-73109599D01*
X26280777Y-73127777D01*
X26262599Y-73144253D01*
X26242893Y-73158868D01*
X26221850Y-73171480D01*
X26199671Y-73181970D01*
X26176572Y-73190235D01*
X26152773Y-73196196D01*
X26128505Y-73199796D01*
X26104001Y-73201000D01*
X25203999Y-73201000D01*
X25179495Y-73199796D01*
X25155227Y-73196196D01*
X25131428Y-73190235D01*
X25108329Y-73181970D01*
X25086150Y-73171480D01*
X25065107Y-73158868D01*
X25045401Y-73144253D01*
X25027223Y-73127777D01*
X25010747Y-73109599D01*
X24996132Y-73089893D01*
X24983520Y-73068850D01*
X24973030Y-73046671D01*
X24964765Y-73023572D01*
X24958804Y-72999773D01*
X24955204Y-72975505D01*
X24954000Y-72951001D01*
X24954000Y-72300999D01*
X24955204Y-72276495D01*
X24958804Y-72252227D01*
X24964765Y-72228428D01*
X24973030Y-72205329D01*
X24983520Y-72183150D01*
X24996132Y-72162107D01*
X25010747Y-72142401D01*
X25027223Y-72124223D01*
X25045401Y-72107747D01*
X25065107Y-72093132D01*
X25086150Y-72080520D01*
X25108329Y-72070030D01*
X25131428Y-72061765D01*
X25155227Y-72055804D01*
X25179495Y-72052204D01*
X25203999Y-72051000D01*
X26104001Y-72051000D01*
X26128505Y-72052204D01*
X26128505Y-72052204D01*
G37*
D11*
X25654000Y-72626000D03*
D10*
G36*
X26128505Y-78175204D02*
G01*
X26152773Y-78178804D01*
X26176572Y-78184765D01*
X26199671Y-78193030D01*
X26221850Y-78203520D01*
X26242893Y-78216132D01*
X26262599Y-78230747D01*
X26280777Y-78247223D01*
X26297253Y-78265401D01*
X26311868Y-78285107D01*
X26324480Y-78306150D01*
X26334970Y-78328329D01*
X26343235Y-78351428D01*
X26349196Y-78375227D01*
X26352796Y-78399495D01*
X26354000Y-78423999D01*
X26354000Y-79074001D01*
X26352796Y-79098505D01*
X26349196Y-79122773D01*
X26343235Y-79146572D01*
X26334970Y-79169671D01*
X26324480Y-79191850D01*
X26311868Y-79212893D01*
X26297253Y-79232599D01*
X26280777Y-79250777D01*
X26262599Y-79267253D01*
X26242893Y-79281868D01*
X26221850Y-79294480D01*
X26199671Y-79304970D01*
X26176572Y-79313235D01*
X26152773Y-79319196D01*
X26128505Y-79322796D01*
X26104001Y-79324000D01*
X25203999Y-79324000D01*
X25179495Y-79322796D01*
X25155227Y-79319196D01*
X25131428Y-79313235D01*
X25108329Y-79304970D01*
X25086150Y-79294480D01*
X25065107Y-79281868D01*
X25045401Y-79267253D01*
X25027223Y-79250777D01*
X25010747Y-79232599D01*
X24996132Y-79212893D01*
X24983520Y-79191850D01*
X24973030Y-79169671D01*
X24964765Y-79146572D01*
X24958804Y-79122773D01*
X24955204Y-79098505D01*
X24954000Y-79074001D01*
X24954000Y-78423999D01*
X24955204Y-78399495D01*
X24958804Y-78375227D01*
X24964765Y-78351428D01*
X24973030Y-78328329D01*
X24983520Y-78306150D01*
X24996132Y-78285107D01*
X25010747Y-78265401D01*
X25027223Y-78247223D01*
X25045401Y-78230747D01*
X25065107Y-78216132D01*
X25086150Y-78203520D01*
X25108329Y-78193030D01*
X25131428Y-78184765D01*
X25155227Y-78178804D01*
X25179495Y-78175204D01*
X25203999Y-78174000D01*
X26104001Y-78174000D01*
X26128505Y-78175204D01*
X26128505Y-78175204D01*
G37*
D11*
X25654000Y-78749000D03*
D10*
G36*
X26128505Y-76125204D02*
G01*
X26152773Y-76128804D01*
X26176572Y-76134765D01*
X26199671Y-76143030D01*
X26221850Y-76153520D01*
X26242893Y-76166132D01*
X26262599Y-76180747D01*
X26280777Y-76197223D01*
X26297253Y-76215401D01*
X26311868Y-76235107D01*
X26324480Y-76256150D01*
X26334970Y-76278329D01*
X26343235Y-76301428D01*
X26349196Y-76325227D01*
X26352796Y-76349495D01*
X26354000Y-76373999D01*
X26354000Y-77024001D01*
X26352796Y-77048505D01*
X26349196Y-77072773D01*
X26343235Y-77096572D01*
X26334970Y-77119671D01*
X26324480Y-77141850D01*
X26311868Y-77162893D01*
X26297253Y-77182599D01*
X26280777Y-77200777D01*
X26262599Y-77217253D01*
X26242893Y-77231868D01*
X26221850Y-77244480D01*
X26199671Y-77254970D01*
X26176572Y-77263235D01*
X26152773Y-77269196D01*
X26128505Y-77272796D01*
X26104001Y-77274000D01*
X25203999Y-77274000D01*
X25179495Y-77272796D01*
X25155227Y-77269196D01*
X25131428Y-77263235D01*
X25108329Y-77254970D01*
X25086150Y-77244480D01*
X25065107Y-77231868D01*
X25045401Y-77217253D01*
X25027223Y-77200777D01*
X25010747Y-77182599D01*
X24996132Y-77162893D01*
X24983520Y-77141850D01*
X24973030Y-77119671D01*
X24964765Y-77096572D01*
X24958804Y-77072773D01*
X24955204Y-77048505D01*
X24954000Y-77024001D01*
X24954000Y-76373999D01*
X24955204Y-76349495D01*
X24958804Y-76325227D01*
X24964765Y-76301428D01*
X24973030Y-76278329D01*
X24983520Y-76256150D01*
X24996132Y-76235107D01*
X25010747Y-76215401D01*
X25027223Y-76197223D01*
X25045401Y-76180747D01*
X25065107Y-76166132D01*
X25086150Y-76153520D01*
X25108329Y-76143030D01*
X25131428Y-76134765D01*
X25155227Y-76128804D01*
X25179495Y-76125204D01*
X25203999Y-76124000D01*
X26104001Y-76124000D01*
X26128505Y-76125204D01*
X26128505Y-76125204D01*
G37*
D11*
X25654000Y-76699000D03*
D10*
G36*
X29684505Y-72052204D02*
G01*
X29708773Y-72055804D01*
X29732572Y-72061765D01*
X29755671Y-72070030D01*
X29777850Y-72080520D01*
X29798893Y-72093132D01*
X29818599Y-72107747D01*
X29836777Y-72124223D01*
X29853253Y-72142401D01*
X29867868Y-72162107D01*
X29880480Y-72183150D01*
X29890970Y-72205329D01*
X29899235Y-72228428D01*
X29905196Y-72252227D01*
X29908796Y-72276495D01*
X29910000Y-72300999D01*
X29910000Y-72951001D01*
X29908796Y-72975505D01*
X29905196Y-72999773D01*
X29899235Y-73023572D01*
X29890970Y-73046671D01*
X29880480Y-73068850D01*
X29867868Y-73089893D01*
X29853253Y-73109599D01*
X29836777Y-73127777D01*
X29818599Y-73144253D01*
X29798893Y-73158868D01*
X29777850Y-73171480D01*
X29755671Y-73181970D01*
X29732572Y-73190235D01*
X29708773Y-73196196D01*
X29684505Y-73199796D01*
X29660001Y-73201000D01*
X28759999Y-73201000D01*
X28735495Y-73199796D01*
X28711227Y-73196196D01*
X28687428Y-73190235D01*
X28664329Y-73181970D01*
X28642150Y-73171480D01*
X28621107Y-73158868D01*
X28601401Y-73144253D01*
X28583223Y-73127777D01*
X28566747Y-73109599D01*
X28552132Y-73089893D01*
X28539520Y-73068850D01*
X28529030Y-73046671D01*
X28520765Y-73023572D01*
X28514804Y-72999773D01*
X28511204Y-72975505D01*
X28510000Y-72951001D01*
X28510000Y-72300999D01*
X28511204Y-72276495D01*
X28514804Y-72252227D01*
X28520765Y-72228428D01*
X28529030Y-72205329D01*
X28539520Y-72183150D01*
X28552132Y-72162107D01*
X28566747Y-72142401D01*
X28583223Y-72124223D01*
X28601401Y-72107747D01*
X28621107Y-72093132D01*
X28642150Y-72080520D01*
X28664329Y-72070030D01*
X28687428Y-72061765D01*
X28711227Y-72055804D01*
X28735495Y-72052204D01*
X28759999Y-72051000D01*
X29660001Y-72051000D01*
X29684505Y-72052204D01*
X29684505Y-72052204D01*
G37*
D11*
X29210000Y-72626000D03*
D10*
G36*
X29684505Y-74102204D02*
G01*
X29708773Y-74105804D01*
X29732572Y-74111765D01*
X29755671Y-74120030D01*
X29777850Y-74130520D01*
X29798893Y-74143132D01*
X29818599Y-74157747D01*
X29836777Y-74174223D01*
X29853253Y-74192401D01*
X29867868Y-74212107D01*
X29880480Y-74233150D01*
X29890970Y-74255329D01*
X29899235Y-74278428D01*
X29905196Y-74302227D01*
X29908796Y-74326495D01*
X29910000Y-74350999D01*
X29910000Y-75001001D01*
X29908796Y-75025505D01*
X29905196Y-75049773D01*
X29899235Y-75073572D01*
X29890970Y-75096671D01*
X29880480Y-75118850D01*
X29867868Y-75139893D01*
X29853253Y-75159599D01*
X29836777Y-75177777D01*
X29818599Y-75194253D01*
X29798893Y-75208868D01*
X29777850Y-75221480D01*
X29755671Y-75231970D01*
X29732572Y-75240235D01*
X29708773Y-75246196D01*
X29684505Y-75249796D01*
X29660001Y-75251000D01*
X28759999Y-75251000D01*
X28735495Y-75249796D01*
X28711227Y-75246196D01*
X28687428Y-75240235D01*
X28664329Y-75231970D01*
X28642150Y-75221480D01*
X28621107Y-75208868D01*
X28601401Y-75194253D01*
X28583223Y-75177777D01*
X28566747Y-75159599D01*
X28552132Y-75139893D01*
X28539520Y-75118850D01*
X28529030Y-75096671D01*
X28520765Y-75073572D01*
X28514804Y-75049773D01*
X28511204Y-75025505D01*
X28510000Y-75001001D01*
X28510000Y-74350999D01*
X28511204Y-74326495D01*
X28514804Y-74302227D01*
X28520765Y-74278428D01*
X28529030Y-74255329D01*
X28539520Y-74233150D01*
X28552132Y-74212107D01*
X28566747Y-74192401D01*
X28583223Y-74174223D01*
X28601401Y-74157747D01*
X28621107Y-74143132D01*
X28642150Y-74130520D01*
X28664329Y-74120030D01*
X28687428Y-74111765D01*
X28711227Y-74105804D01*
X28735495Y-74102204D01*
X28759999Y-74101000D01*
X29660001Y-74101000D01*
X29684505Y-74102204D01*
X29684505Y-74102204D01*
G37*
D11*
X29210000Y-74676000D03*
D10*
G36*
X53814505Y-77903204D02*
G01*
X53838773Y-77906804D01*
X53862572Y-77912765D01*
X53885671Y-77921030D01*
X53907850Y-77931520D01*
X53928893Y-77944132D01*
X53948599Y-77958747D01*
X53966777Y-77975223D01*
X53983253Y-77993401D01*
X53997868Y-78013107D01*
X54010480Y-78034150D01*
X54020970Y-78056329D01*
X54029235Y-78079428D01*
X54035196Y-78103227D01*
X54038796Y-78127495D01*
X54040000Y-78151999D01*
X54040000Y-78802001D01*
X54038796Y-78826505D01*
X54035196Y-78850773D01*
X54029235Y-78874572D01*
X54020970Y-78897671D01*
X54010480Y-78919850D01*
X53997868Y-78940893D01*
X53983253Y-78960599D01*
X53966777Y-78978777D01*
X53948599Y-78995253D01*
X53928893Y-79009868D01*
X53907850Y-79022480D01*
X53885671Y-79032970D01*
X53862572Y-79041235D01*
X53838773Y-79047196D01*
X53814505Y-79050796D01*
X53790001Y-79052000D01*
X52889999Y-79052000D01*
X52865495Y-79050796D01*
X52841227Y-79047196D01*
X52817428Y-79041235D01*
X52794329Y-79032970D01*
X52772150Y-79022480D01*
X52751107Y-79009868D01*
X52731401Y-78995253D01*
X52713223Y-78978777D01*
X52696747Y-78960599D01*
X52682132Y-78940893D01*
X52669520Y-78919850D01*
X52659030Y-78897671D01*
X52650765Y-78874572D01*
X52644804Y-78850773D01*
X52641204Y-78826505D01*
X52640000Y-78802001D01*
X52640000Y-78151999D01*
X52641204Y-78127495D01*
X52644804Y-78103227D01*
X52650765Y-78079428D01*
X52659030Y-78056329D01*
X52669520Y-78034150D01*
X52682132Y-78013107D01*
X52696747Y-77993401D01*
X52713223Y-77975223D01*
X52731401Y-77958747D01*
X52751107Y-77944132D01*
X52772150Y-77931520D01*
X52794329Y-77921030D01*
X52817428Y-77912765D01*
X52841227Y-77906804D01*
X52865495Y-77903204D01*
X52889999Y-77902000D01*
X53790001Y-77902000D01*
X53814505Y-77903204D01*
X53814505Y-77903204D01*
G37*
D11*
X53340000Y-78477000D03*
D10*
G36*
X53814505Y-79953204D02*
G01*
X53838773Y-79956804D01*
X53862572Y-79962765D01*
X53885671Y-79971030D01*
X53907850Y-79981520D01*
X53928893Y-79994132D01*
X53948599Y-80008747D01*
X53966777Y-80025223D01*
X53983253Y-80043401D01*
X53997868Y-80063107D01*
X54010480Y-80084150D01*
X54020970Y-80106329D01*
X54029235Y-80129428D01*
X54035196Y-80153227D01*
X54038796Y-80177495D01*
X54040000Y-80201999D01*
X54040000Y-80852001D01*
X54038796Y-80876505D01*
X54035196Y-80900773D01*
X54029235Y-80924572D01*
X54020970Y-80947671D01*
X54010480Y-80969850D01*
X53997868Y-80990893D01*
X53983253Y-81010599D01*
X53966777Y-81028777D01*
X53948599Y-81045253D01*
X53928893Y-81059868D01*
X53907850Y-81072480D01*
X53885671Y-81082970D01*
X53862572Y-81091235D01*
X53838773Y-81097196D01*
X53814505Y-81100796D01*
X53790001Y-81102000D01*
X52889999Y-81102000D01*
X52865495Y-81100796D01*
X52841227Y-81097196D01*
X52817428Y-81091235D01*
X52794329Y-81082970D01*
X52772150Y-81072480D01*
X52751107Y-81059868D01*
X52731401Y-81045253D01*
X52713223Y-81028777D01*
X52696747Y-81010599D01*
X52682132Y-80990893D01*
X52669520Y-80969850D01*
X52659030Y-80947671D01*
X52650765Y-80924572D01*
X52644804Y-80900773D01*
X52641204Y-80876505D01*
X52640000Y-80852001D01*
X52640000Y-80201999D01*
X52641204Y-80177495D01*
X52644804Y-80153227D01*
X52650765Y-80129428D01*
X52659030Y-80106329D01*
X52669520Y-80084150D01*
X52682132Y-80063107D01*
X52696747Y-80043401D01*
X52713223Y-80025223D01*
X52731401Y-80008747D01*
X52751107Y-79994132D01*
X52772150Y-79981520D01*
X52794329Y-79971030D01*
X52817428Y-79962765D01*
X52841227Y-79956804D01*
X52865495Y-79953204D01*
X52889999Y-79952000D01*
X53790001Y-79952000D01*
X53814505Y-79953204D01*
X53814505Y-79953204D01*
G37*
D11*
X53340000Y-80527000D03*
D10*
G36*
X29684505Y-86802204D02*
G01*
X29708773Y-86805804D01*
X29732572Y-86811765D01*
X29755671Y-86820030D01*
X29777850Y-86830520D01*
X29798893Y-86843132D01*
X29818599Y-86857747D01*
X29836777Y-86874223D01*
X29853253Y-86892401D01*
X29867868Y-86912107D01*
X29880480Y-86933150D01*
X29890970Y-86955329D01*
X29899235Y-86978428D01*
X29905196Y-87002227D01*
X29908796Y-87026495D01*
X29910000Y-87050999D01*
X29910000Y-87701001D01*
X29908796Y-87725505D01*
X29905196Y-87749773D01*
X29899235Y-87773572D01*
X29890970Y-87796671D01*
X29880480Y-87818850D01*
X29867868Y-87839893D01*
X29853253Y-87859599D01*
X29836777Y-87877777D01*
X29818599Y-87894253D01*
X29798893Y-87908868D01*
X29777850Y-87921480D01*
X29755671Y-87931970D01*
X29732572Y-87940235D01*
X29708773Y-87946196D01*
X29684505Y-87949796D01*
X29660001Y-87951000D01*
X28759999Y-87951000D01*
X28735495Y-87949796D01*
X28711227Y-87946196D01*
X28687428Y-87940235D01*
X28664329Y-87931970D01*
X28642150Y-87921480D01*
X28621107Y-87908868D01*
X28601401Y-87894253D01*
X28583223Y-87877777D01*
X28566747Y-87859599D01*
X28552132Y-87839893D01*
X28539520Y-87818850D01*
X28529030Y-87796671D01*
X28520765Y-87773572D01*
X28514804Y-87749773D01*
X28511204Y-87725505D01*
X28510000Y-87701001D01*
X28510000Y-87050999D01*
X28511204Y-87026495D01*
X28514804Y-87002227D01*
X28520765Y-86978428D01*
X28529030Y-86955329D01*
X28539520Y-86933150D01*
X28552132Y-86912107D01*
X28566747Y-86892401D01*
X28583223Y-86874223D01*
X28601401Y-86857747D01*
X28621107Y-86843132D01*
X28642150Y-86830520D01*
X28664329Y-86820030D01*
X28687428Y-86811765D01*
X28711227Y-86805804D01*
X28735495Y-86802204D01*
X28759999Y-86801000D01*
X29660001Y-86801000D01*
X29684505Y-86802204D01*
X29684505Y-86802204D01*
G37*
D11*
X29210000Y-87376000D03*
D10*
G36*
X29684505Y-84752204D02*
G01*
X29708773Y-84755804D01*
X29732572Y-84761765D01*
X29755671Y-84770030D01*
X29777850Y-84780520D01*
X29798893Y-84793132D01*
X29818599Y-84807747D01*
X29836777Y-84824223D01*
X29853253Y-84842401D01*
X29867868Y-84862107D01*
X29880480Y-84883150D01*
X29890970Y-84905329D01*
X29899235Y-84928428D01*
X29905196Y-84952227D01*
X29908796Y-84976495D01*
X29910000Y-85000999D01*
X29910000Y-85651001D01*
X29908796Y-85675505D01*
X29905196Y-85699773D01*
X29899235Y-85723572D01*
X29890970Y-85746671D01*
X29880480Y-85768850D01*
X29867868Y-85789893D01*
X29853253Y-85809599D01*
X29836777Y-85827777D01*
X29818599Y-85844253D01*
X29798893Y-85858868D01*
X29777850Y-85871480D01*
X29755671Y-85881970D01*
X29732572Y-85890235D01*
X29708773Y-85896196D01*
X29684505Y-85899796D01*
X29660001Y-85901000D01*
X28759999Y-85901000D01*
X28735495Y-85899796D01*
X28711227Y-85896196D01*
X28687428Y-85890235D01*
X28664329Y-85881970D01*
X28642150Y-85871480D01*
X28621107Y-85858868D01*
X28601401Y-85844253D01*
X28583223Y-85827777D01*
X28566747Y-85809599D01*
X28552132Y-85789893D01*
X28539520Y-85768850D01*
X28529030Y-85746671D01*
X28520765Y-85723572D01*
X28514804Y-85699773D01*
X28511204Y-85675505D01*
X28510000Y-85651001D01*
X28510000Y-85000999D01*
X28511204Y-84976495D01*
X28514804Y-84952227D01*
X28520765Y-84928428D01*
X28529030Y-84905329D01*
X28539520Y-84883150D01*
X28552132Y-84862107D01*
X28566747Y-84842401D01*
X28583223Y-84824223D01*
X28601401Y-84807747D01*
X28621107Y-84793132D01*
X28642150Y-84780520D01*
X28664329Y-84770030D01*
X28687428Y-84761765D01*
X28711227Y-84755804D01*
X28735495Y-84752204D01*
X28759999Y-84751000D01*
X29660001Y-84751000D01*
X29684505Y-84752204D01*
X29684505Y-84752204D01*
G37*
D11*
X29210000Y-85326000D03*
D10*
G36*
X43021505Y-96075204D02*
G01*
X43045773Y-96078804D01*
X43069572Y-96084765D01*
X43092671Y-96093030D01*
X43114850Y-96103520D01*
X43135893Y-96116132D01*
X43155599Y-96130747D01*
X43173777Y-96147223D01*
X43190253Y-96165401D01*
X43204868Y-96185107D01*
X43217480Y-96206150D01*
X43227970Y-96228329D01*
X43236235Y-96251428D01*
X43242196Y-96275227D01*
X43245796Y-96299495D01*
X43247000Y-96323999D01*
X43247000Y-97224001D01*
X43245796Y-97248505D01*
X43242196Y-97272773D01*
X43236235Y-97296572D01*
X43227970Y-97319671D01*
X43217480Y-97341850D01*
X43204868Y-97362893D01*
X43190253Y-97382599D01*
X43173777Y-97400777D01*
X43155599Y-97417253D01*
X43135893Y-97431868D01*
X43114850Y-97444480D01*
X43092671Y-97454970D01*
X43069572Y-97463235D01*
X43045773Y-97469196D01*
X43021505Y-97472796D01*
X42997001Y-97474000D01*
X42346999Y-97474000D01*
X42322495Y-97472796D01*
X42298227Y-97469196D01*
X42274428Y-97463235D01*
X42251329Y-97454970D01*
X42229150Y-97444480D01*
X42208107Y-97431868D01*
X42188401Y-97417253D01*
X42170223Y-97400777D01*
X42153747Y-97382599D01*
X42139132Y-97362893D01*
X42126520Y-97341850D01*
X42116030Y-97319671D01*
X42107765Y-97296572D01*
X42101804Y-97272773D01*
X42098204Y-97248505D01*
X42097000Y-97224001D01*
X42097000Y-96323999D01*
X42098204Y-96299495D01*
X42101804Y-96275227D01*
X42107765Y-96251428D01*
X42116030Y-96228329D01*
X42126520Y-96206150D01*
X42139132Y-96185107D01*
X42153747Y-96165401D01*
X42170223Y-96147223D01*
X42188401Y-96130747D01*
X42208107Y-96116132D01*
X42229150Y-96103520D01*
X42251329Y-96093030D01*
X42274428Y-96084765D01*
X42298227Y-96078804D01*
X42322495Y-96075204D01*
X42346999Y-96074000D01*
X42997001Y-96074000D01*
X43021505Y-96075204D01*
X43021505Y-96075204D01*
G37*
D11*
X42672000Y-96774000D03*
D10*
G36*
X40971505Y-96075204D02*
G01*
X40995773Y-96078804D01*
X41019572Y-96084765D01*
X41042671Y-96093030D01*
X41064850Y-96103520D01*
X41085893Y-96116132D01*
X41105599Y-96130747D01*
X41123777Y-96147223D01*
X41140253Y-96165401D01*
X41154868Y-96185107D01*
X41167480Y-96206150D01*
X41177970Y-96228329D01*
X41186235Y-96251428D01*
X41192196Y-96275227D01*
X41195796Y-96299495D01*
X41197000Y-96323999D01*
X41197000Y-97224001D01*
X41195796Y-97248505D01*
X41192196Y-97272773D01*
X41186235Y-97296572D01*
X41177970Y-97319671D01*
X41167480Y-97341850D01*
X41154868Y-97362893D01*
X41140253Y-97382599D01*
X41123777Y-97400777D01*
X41105599Y-97417253D01*
X41085893Y-97431868D01*
X41064850Y-97444480D01*
X41042671Y-97454970D01*
X41019572Y-97463235D01*
X40995773Y-97469196D01*
X40971505Y-97472796D01*
X40947001Y-97474000D01*
X40296999Y-97474000D01*
X40272495Y-97472796D01*
X40248227Y-97469196D01*
X40224428Y-97463235D01*
X40201329Y-97454970D01*
X40179150Y-97444480D01*
X40158107Y-97431868D01*
X40138401Y-97417253D01*
X40120223Y-97400777D01*
X40103747Y-97382599D01*
X40089132Y-97362893D01*
X40076520Y-97341850D01*
X40066030Y-97319671D01*
X40057765Y-97296572D01*
X40051804Y-97272773D01*
X40048204Y-97248505D01*
X40047000Y-97224001D01*
X40047000Y-96323999D01*
X40048204Y-96299495D01*
X40051804Y-96275227D01*
X40057765Y-96251428D01*
X40066030Y-96228329D01*
X40076520Y-96206150D01*
X40089132Y-96185107D01*
X40103747Y-96165401D01*
X40120223Y-96147223D01*
X40138401Y-96130747D01*
X40158107Y-96116132D01*
X40179150Y-96103520D01*
X40201329Y-96093030D01*
X40224428Y-96084765D01*
X40248227Y-96078804D01*
X40272495Y-96075204D01*
X40296999Y-96074000D01*
X40947001Y-96074000D01*
X40971505Y-96075204D01*
X40971505Y-96075204D01*
G37*
D11*
X40622000Y-96774000D03*
D10*
G36*
X26636505Y-84752204D02*
G01*
X26660773Y-84755804D01*
X26684572Y-84761765D01*
X26707671Y-84770030D01*
X26729850Y-84780520D01*
X26750893Y-84793132D01*
X26770599Y-84807747D01*
X26788777Y-84824223D01*
X26805253Y-84842401D01*
X26819868Y-84862107D01*
X26832480Y-84883150D01*
X26842970Y-84905329D01*
X26851235Y-84928428D01*
X26857196Y-84952227D01*
X26860796Y-84976495D01*
X26862000Y-85000999D01*
X26862000Y-85651001D01*
X26860796Y-85675505D01*
X26857196Y-85699773D01*
X26851235Y-85723572D01*
X26842970Y-85746671D01*
X26832480Y-85768850D01*
X26819868Y-85789893D01*
X26805253Y-85809599D01*
X26788777Y-85827777D01*
X26770599Y-85844253D01*
X26750893Y-85858868D01*
X26729850Y-85871480D01*
X26707671Y-85881970D01*
X26684572Y-85890235D01*
X26660773Y-85896196D01*
X26636505Y-85899796D01*
X26612001Y-85901000D01*
X25711999Y-85901000D01*
X25687495Y-85899796D01*
X25663227Y-85896196D01*
X25639428Y-85890235D01*
X25616329Y-85881970D01*
X25594150Y-85871480D01*
X25573107Y-85858868D01*
X25553401Y-85844253D01*
X25535223Y-85827777D01*
X25518747Y-85809599D01*
X25504132Y-85789893D01*
X25491520Y-85768850D01*
X25481030Y-85746671D01*
X25472765Y-85723572D01*
X25466804Y-85699773D01*
X25463204Y-85675505D01*
X25462000Y-85651001D01*
X25462000Y-85000999D01*
X25463204Y-84976495D01*
X25466804Y-84952227D01*
X25472765Y-84928428D01*
X25481030Y-84905329D01*
X25491520Y-84883150D01*
X25504132Y-84862107D01*
X25518747Y-84842401D01*
X25535223Y-84824223D01*
X25553401Y-84807747D01*
X25573107Y-84793132D01*
X25594150Y-84780520D01*
X25616329Y-84770030D01*
X25639428Y-84761765D01*
X25663227Y-84755804D01*
X25687495Y-84752204D01*
X25711999Y-84751000D01*
X26612001Y-84751000D01*
X26636505Y-84752204D01*
X26636505Y-84752204D01*
G37*
D11*
X26162000Y-85326000D03*
D10*
G36*
X26636505Y-86802204D02*
G01*
X26660773Y-86805804D01*
X26684572Y-86811765D01*
X26707671Y-86820030D01*
X26729850Y-86830520D01*
X26750893Y-86843132D01*
X26770599Y-86857747D01*
X26788777Y-86874223D01*
X26805253Y-86892401D01*
X26819868Y-86912107D01*
X26832480Y-86933150D01*
X26842970Y-86955329D01*
X26851235Y-86978428D01*
X26857196Y-87002227D01*
X26860796Y-87026495D01*
X26862000Y-87050999D01*
X26862000Y-87701001D01*
X26860796Y-87725505D01*
X26857196Y-87749773D01*
X26851235Y-87773572D01*
X26842970Y-87796671D01*
X26832480Y-87818850D01*
X26819868Y-87839893D01*
X26805253Y-87859599D01*
X26788777Y-87877777D01*
X26770599Y-87894253D01*
X26750893Y-87908868D01*
X26729850Y-87921480D01*
X26707671Y-87931970D01*
X26684572Y-87940235D01*
X26660773Y-87946196D01*
X26636505Y-87949796D01*
X26612001Y-87951000D01*
X25711999Y-87951000D01*
X25687495Y-87949796D01*
X25663227Y-87946196D01*
X25639428Y-87940235D01*
X25616329Y-87931970D01*
X25594150Y-87921480D01*
X25573107Y-87908868D01*
X25553401Y-87894253D01*
X25535223Y-87877777D01*
X25518747Y-87859599D01*
X25504132Y-87839893D01*
X25491520Y-87818850D01*
X25481030Y-87796671D01*
X25472765Y-87773572D01*
X25466804Y-87749773D01*
X25463204Y-87725505D01*
X25462000Y-87701001D01*
X25462000Y-87050999D01*
X25463204Y-87026495D01*
X25466804Y-87002227D01*
X25472765Y-86978428D01*
X25481030Y-86955329D01*
X25491520Y-86933150D01*
X25504132Y-86912107D01*
X25518747Y-86892401D01*
X25535223Y-86874223D01*
X25553401Y-86857747D01*
X25573107Y-86843132D01*
X25594150Y-86830520D01*
X25616329Y-86820030D01*
X25639428Y-86811765D01*
X25663227Y-86805804D01*
X25687495Y-86802204D01*
X25711999Y-86801000D01*
X26612001Y-86801000D01*
X26636505Y-86802204D01*
X26636505Y-86802204D01*
G37*
D11*
X26162000Y-87376000D03*
D10*
G36*
X26636505Y-90866204D02*
G01*
X26660773Y-90869804D01*
X26684572Y-90875765D01*
X26707671Y-90884030D01*
X26729850Y-90894520D01*
X26750893Y-90907132D01*
X26770599Y-90921747D01*
X26788777Y-90938223D01*
X26805253Y-90956401D01*
X26819868Y-90976107D01*
X26832480Y-90997150D01*
X26842970Y-91019329D01*
X26851235Y-91042428D01*
X26857196Y-91066227D01*
X26860796Y-91090495D01*
X26862000Y-91114999D01*
X26862000Y-91765001D01*
X26860796Y-91789505D01*
X26857196Y-91813773D01*
X26851235Y-91837572D01*
X26842970Y-91860671D01*
X26832480Y-91882850D01*
X26819868Y-91903893D01*
X26805253Y-91923599D01*
X26788777Y-91941777D01*
X26770599Y-91958253D01*
X26750893Y-91972868D01*
X26729850Y-91985480D01*
X26707671Y-91995970D01*
X26684572Y-92004235D01*
X26660773Y-92010196D01*
X26636505Y-92013796D01*
X26612001Y-92015000D01*
X25711999Y-92015000D01*
X25687495Y-92013796D01*
X25663227Y-92010196D01*
X25639428Y-92004235D01*
X25616329Y-91995970D01*
X25594150Y-91985480D01*
X25573107Y-91972868D01*
X25553401Y-91958253D01*
X25535223Y-91941777D01*
X25518747Y-91923599D01*
X25504132Y-91903893D01*
X25491520Y-91882850D01*
X25481030Y-91860671D01*
X25472765Y-91837572D01*
X25466804Y-91813773D01*
X25463204Y-91789505D01*
X25462000Y-91765001D01*
X25462000Y-91114999D01*
X25463204Y-91090495D01*
X25466804Y-91066227D01*
X25472765Y-91042428D01*
X25481030Y-91019329D01*
X25491520Y-90997150D01*
X25504132Y-90976107D01*
X25518747Y-90956401D01*
X25535223Y-90938223D01*
X25553401Y-90921747D01*
X25573107Y-90907132D01*
X25594150Y-90894520D01*
X25616329Y-90884030D01*
X25639428Y-90875765D01*
X25663227Y-90869804D01*
X25687495Y-90866204D01*
X25711999Y-90865000D01*
X26612001Y-90865000D01*
X26636505Y-90866204D01*
X26636505Y-90866204D01*
G37*
D11*
X26162000Y-91440000D03*
D10*
G36*
X26636505Y-88816204D02*
G01*
X26660773Y-88819804D01*
X26684572Y-88825765D01*
X26707671Y-88834030D01*
X26729850Y-88844520D01*
X26750893Y-88857132D01*
X26770599Y-88871747D01*
X26788777Y-88888223D01*
X26805253Y-88906401D01*
X26819868Y-88926107D01*
X26832480Y-88947150D01*
X26842970Y-88969329D01*
X26851235Y-88992428D01*
X26857196Y-89016227D01*
X26860796Y-89040495D01*
X26862000Y-89064999D01*
X26862000Y-89715001D01*
X26860796Y-89739505D01*
X26857196Y-89763773D01*
X26851235Y-89787572D01*
X26842970Y-89810671D01*
X26832480Y-89832850D01*
X26819868Y-89853893D01*
X26805253Y-89873599D01*
X26788777Y-89891777D01*
X26770599Y-89908253D01*
X26750893Y-89922868D01*
X26729850Y-89935480D01*
X26707671Y-89945970D01*
X26684572Y-89954235D01*
X26660773Y-89960196D01*
X26636505Y-89963796D01*
X26612001Y-89965000D01*
X25711999Y-89965000D01*
X25687495Y-89963796D01*
X25663227Y-89960196D01*
X25639428Y-89954235D01*
X25616329Y-89945970D01*
X25594150Y-89935480D01*
X25573107Y-89922868D01*
X25553401Y-89908253D01*
X25535223Y-89891777D01*
X25518747Y-89873599D01*
X25504132Y-89853893D01*
X25491520Y-89832850D01*
X25481030Y-89810671D01*
X25472765Y-89787572D01*
X25466804Y-89763773D01*
X25463204Y-89739505D01*
X25462000Y-89715001D01*
X25462000Y-89064999D01*
X25463204Y-89040495D01*
X25466804Y-89016227D01*
X25472765Y-88992428D01*
X25481030Y-88969329D01*
X25491520Y-88947150D01*
X25504132Y-88926107D01*
X25518747Y-88906401D01*
X25535223Y-88888223D01*
X25553401Y-88871747D01*
X25573107Y-88857132D01*
X25594150Y-88844520D01*
X25616329Y-88834030D01*
X25639428Y-88825765D01*
X25663227Y-88819804D01*
X25687495Y-88816204D01*
X25711999Y-88815000D01*
X26612001Y-88815000D01*
X26636505Y-88816204D01*
X26636505Y-88816204D01*
G37*
D11*
X26162000Y-89390000D03*
D12*
X31657000Y-56852000D03*
X31007000Y-56852000D03*
X30357000Y-56852000D03*
X29707000Y-56852000D03*
X29057000Y-56852000D03*
X28407000Y-56852000D03*
X27757000Y-56852000D03*
X27107000Y-56852000D03*
X26457000Y-56852000D03*
X25807000Y-56852000D03*
X25157000Y-56852000D03*
X24507000Y-56852000D03*
X23857000Y-56852000D03*
X23207000Y-56852000D03*
X23207000Y-64052000D03*
X23857000Y-64052000D03*
X24507000Y-64052000D03*
X25157000Y-64052000D03*
X25807000Y-64052000D03*
X26457000Y-64052000D03*
X27107000Y-64052000D03*
X27757000Y-64052000D03*
X28407000Y-64052000D03*
X29057000Y-64052000D03*
X29707000Y-64052000D03*
X30357000Y-64052000D03*
X31007000Y-64052000D03*
X31657000Y-64052000D03*
D10*
G36*
X22826505Y-71063204D02*
G01*
X22850773Y-71066804D01*
X22874572Y-71072765D01*
X22897671Y-71081030D01*
X22919850Y-71091520D01*
X22940893Y-71104132D01*
X22960599Y-71118747D01*
X22978777Y-71135223D01*
X22995253Y-71153401D01*
X23009868Y-71173107D01*
X23022480Y-71194150D01*
X23032970Y-71216329D01*
X23041235Y-71239428D01*
X23047196Y-71263227D01*
X23050796Y-71287495D01*
X23052000Y-71311999D01*
X23052000Y-71962001D01*
X23050796Y-71986505D01*
X23047196Y-72010773D01*
X23041235Y-72034572D01*
X23032970Y-72057671D01*
X23022480Y-72079850D01*
X23009868Y-72100893D01*
X22995253Y-72120599D01*
X22978777Y-72138777D01*
X22960599Y-72155253D01*
X22940893Y-72169868D01*
X22919850Y-72182480D01*
X22897671Y-72192970D01*
X22874572Y-72201235D01*
X22850773Y-72207196D01*
X22826505Y-72210796D01*
X22802001Y-72212000D01*
X21901999Y-72212000D01*
X21877495Y-72210796D01*
X21853227Y-72207196D01*
X21829428Y-72201235D01*
X21806329Y-72192970D01*
X21784150Y-72182480D01*
X21763107Y-72169868D01*
X21743401Y-72155253D01*
X21725223Y-72138777D01*
X21708747Y-72120599D01*
X21694132Y-72100893D01*
X21681520Y-72079850D01*
X21671030Y-72057671D01*
X21662765Y-72034572D01*
X21656804Y-72010773D01*
X21653204Y-71986505D01*
X21652000Y-71962001D01*
X21652000Y-71311999D01*
X21653204Y-71287495D01*
X21656804Y-71263227D01*
X21662765Y-71239428D01*
X21671030Y-71216329D01*
X21681520Y-71194150D01*
X21694132Y-71173107D01*
X21708747Y-71153401D01*
X21725223Y-71135223D01*
X21743401Y-71118747D01*
X21763107Y-71104132D01*
X21784150Y-71091520D01*
X21806329Y-71081030D01*
X21829428Y-71072765D01*
X21853227Y-71066804D01*
X21877495Y-71063204D01*
X21901999Y-71062000D01*
X22802001Y-71062000D01*
X22826505Y-71063204D01*
X22826505Y-71063204D01*
G37*
D11*
X22352000Y-71637000D03*
D10*
G36*
X22826505Y-69013204D02*
G01*
X22850773Y-69016804D01*
X22874572Y-69022765D01*
X22897671Y-69031030D01*
X22919850Y-69041520D01*
X22940893Y-69054132D01*
X22960599Y-69068747D01*
X22978777Y-69085223D01*
X22995253Y-69103401D01*
X23009868Y-69123107D01*
X23022480Y-69144150D01*
X23032970Y-69166329D01*
X23041235Y-69189428D01*
X23047196Y-69213227D01*
X23050796Y-69237495D01*
X23052000Y-69261999D01*
X23052000Y-69912001D01*
X23050796Y-69936505D01*
X23047196Y-69960773D01*
X23041235Y-69984572D01*
X23032970Y-70007671D01*
X23022480Y-70029850D01*
X23009868Y-70050893D01*
X22995253Y-70070599D01*
X22978777Y-70088777D01*
X22960599Y-70105253D01*
X22940893Y-70119868D01*
X22919850Y-70132480D01*
X22897671Y-70142970D01*
X22874572Y-70151235D01*
X22850773Y-70157196D01*
X22826505Y-70160796D01*
X22802001Y-70162000D01*
X21901999Y-70162000D01*
X21877495Y-70160796D01*
X21853227Y-70157196D01*
X21829428Y-70151235D01*
X21806329Y-70142970D01*
X21784150Y-70132480D01*
X21763107Y-70119868D01*
X21743401Y-70105253D01*
X21725223Y-70088777D01*
X21708747Y-70070599D01*
X21694132Y-70050893D01*
X21681520Y-70029850D01*
X21671030Y-70007671D01*
X21662765Y-69984572D01*
X21656804Y-69960773D01*
X21653204Y-69936505D01*
X21652000Y-69912001D01*
X21652000Y-69261999D01*
X21653204Y-69237495D01*
X21656804Y-69213227D01*
X21662765Y-69189428D01*
X21671030Y-69166329D01*
X21681520Y-69144150D01*
X21694132Y-69123107D01*
X21708747Y-69103401D01*
X21725223Y-69085223D01*
X21743401Y-69068747D01*
X21763107Y-69054132D01*
X21784150Y-69041520D01*
X21806329Y-69031030D01*
X21829428Y-69022765D01*
X21853227Y-69016804D01*
X21877495Y-69013204D01*
X21901999Y-69012000D01*
X22802001Y-69012000D01*
X22826505Y-69013204D01*
X22826505Y-69013204D01*
G37*
D11*
X22352000Y-69587000D03*
M02*
