G04 #@! TF.GenerationSoftware,KiCad,Pcbnew,(5.1.0)-1*
G04 #@! TF.CreationDate,2019-04-05T23:42:48+02:00*
G04 #@! TF.ProjectId,BT_module,42545f6d-6f64-4756-9c65-2e6b69636164,rev?*
G04 #@! TF.SameCoordinates,Original*
G04 #@! TF.FileFunction,Copper,L1,Top*
G04 #@! TF.FilePolarity,Positive*
%FSLAX46Y46*%
G04 Gerber Fmt 4.6, Leading zero omitted, Abs format (unit mm)*
G04 Created by KiCad (PCBNEW (5.1.0)-1) date 2019-04-05 23:42:48*
%MOMM*%
%LPD*%
G04 APERTURE LIST*
%ADD10C,0.100000*%
%ADD11C,1.150000*%
%ADD12R,1.200000X1.200000*%
%ADD13C,1.200000*%
%ADD14R,1.700000X1.700000*%
%ADD15O,1.700000X1.700000*%
%ADD16R,1.905000X2.000000*%
%ADD17O,1.905000X2.000000*%
%ADD18R,2.000000X1.000000*%
%ADD19R,1.000000X1.800000*%
%ADD20C,0.500000*%
%ADD21C,0.250000*%
%ADD22C,0.254000*%
G04 APERTURE END LIST*
D10*
G36*
X133570505Y-92372204D02*
G01*
X133594773Y-92375804D01*
X133618572Y-92381765D01*
X133641671Y-92390030D01*
X133663850Y-92400520D01*
X133684893Y-92413132D01*
X133704599Y-92427747D01*
X133722777Y-92444223D01*
X133739253Y-92462401D01*
X133753868Y-92482107D01*
X133766480Y-92503150D01*
X133776970Y-92525329D01*
X133785235Y-92548428D01*
X133791196Y-92572227D01*
X133794796Y-92596495D01*
X133796000Y-92620999D01*
X133796000Y-93271001D01*
X133794796Y-93295505D01*
X133791196Y-93319773D01*
X133785235Y-93343572D01*
X133776970Y-93366671D01*
X133766480Y-93388850D01*
X133753868Y-93409893D01*
X133739253Y-93429599D01*
X133722777Y-93447777D01*
X133704599Y-93464253D01*
X133684893Y-93478868D01*
X133663850Y-93491480D01*
X133641671Y-93501970D01*
X133618572Y-93510235D01*
X133594773Y-93516196D01*
X133570505Y-93519796D01*
X133546001Y-93521000D01*
X132645999Y-93521000D01*
X132621495Y-93519796D01*
X132597227Y-93516196D01*
X132573428Y-93510235D01*
X132550329Y-93501970D01*
X132528150Y-93491480D01*
X132507107Y-93478868D01*
X132487401Y-93464253D01*
X132469223Y-93447777D01*
X132452747Y-93429599D01*
X132438132Y-93409893D01*
X132425520Y-93388850D01*
X132415030Y-93366671D01*
X132406765Y-93343572D01*
X132400804Y-93319773D01*
X132397204Y-93295505D01*
X132396000Y-93271001D01*
X132396000Y-92620999D01*
X132397204Y-92596495D01*
X132400804Y-92572227D01*
X132406765Y-92548428D01*
X132415030Y-92525329D01*
X132425520Y-92503150D01*
X132438132Y-92482107D01*
X132452747Y-92462401D01*
X132469223Y-92444223D01*
X132487401Y-92427747D01*
X132507107Y-92413132D01*
X132528150Y-92400520D01*
X132550329Y-92390030D01*
X132573428Y-92381765D01*
X132597227Y-92375804D01*
X132621495Y-92372204D01*
X132645999Y-92371000D01*
X133546001Y-92371000D01*
X133570505Y-92372204D01*
X133570505Y-92372204D01*
G37*
D11*
X133096000Y-92946000D03*
D10*
G36*
X133570505Y-94422204D02*
G01*
X133594773Y-94425804D01*
X133618572Y-94431765D01*
X133641671Y-94440030D01*
X133663850Y-94450520D01*
X133684893Y-94463132D01*
X133704599Y-94477747D01*
X133722777Y-94494223D01*
X133739253Y-94512401D01*
X133753868Y-94532107D01*
X133766480Y-94553150D01*
X133776970Y-94575329D01*
X133785235Y-94598428D01*
X133791196Y-94622227D01*
X133794796Y-94646495D01*
X133796000Y-94670999D01*
X133796000Y-95321001D01*
X133794796Y-95345505D01*
X133791196Y-95369773D01*
X133785235Y-95393572D01*
X133776970Y-95416671D01*
X133766480Y-95438850D01*
X133753868Y-95459893D01*
X133739253Y-95479599D01*
X133722777Y-95497777D01*
X133704599Y-95514253D01*
X133684893Y-95528868D01*
X133663850Y-95541480D01*
X133641671Y-95551970D01*
X133618572Y-95560235D01*
X133594773Y-95566196D01*
X133570505Y-95569796D01*
X133546001Y-95571000D01*
X132645999Y-95571000D01*
X132621495Y-95569796D01*
X132597227Y-95566196D01*
X132573428Y-95560235D01*
X132550329Y-95551970D01*
X132528150Y-95541480D01*
X132507107Y-95528868D01*
X132487401Y-95514253D01*
X132469223Y-95497777D01*
X132452747Y-95479599D01*
X132438132Y-95459893D01*
X132425520Y-95438850D01*
X132415030Y-95416671D01*
X132406765Y-95393572D01*
X132400804Y-95369773D01*
X132397204Y-95345505D01*
X132396000Y-95321001D01*
X132396000Y-94670999D01*
X132397204Y-94646495D01*
X132400804Y-94622227D01*
X132406765Y-94598428D01*
X132415030Y-94575329D01*
X132425520Y-94553150D01*
X132438132Y-94532107D01*
X132452747Y-94512401D01*
X132469223Y-94494223D01*
X132487401Y-94477747D01*
X132507107Y-94463132D01*
X132528150Y-94450520D01*
X132550329Y-94440030D01*
X132573428Y-94431765D01*
X132597227Y-94425804D01*
X132621495Y-94422204D01*
X132645999Y-94421000D01*
X133546001Y-94421000D01*
X133570505Y-94422204D01*
X133570505Y-94422204D01*
G37*
D11*
X133096000Y-94996000D03*
D12*
X137160000Y-92456000D03*
D13*
X137160000Y-94456000D03*
D14*
X126238000Y-97790000D03*
D15*
X128778000Y-97790000D03*
X131318000Y-97790000D03*
X133858000Y-97790000D03*
D16*
X131826000Y-88646000D03*
D17*
X129286000Y-88646000D03*
X126746000Y-88646000D03*
D18*
X136774001Y-63940001D03*
X136774001Y-65440001D03*
X136774001Y-66940001D03*
X136774001Y-68440001D03*
X136774001Y-69940001D03*
X136774001Y-71440001D03*
X136774001Y-72940001D03*
X136774001Y-74440001D03*
X136774001Y-75940001D03*
X136774001Y-77440001D03*
X136774001Y-78940001D03*
X136774001Y-80440001D03*
X136774001Y-81940001D03*
X123774001Y-81940001D03*
X123774001Y-80440001D03*
X123774001Y-78940001D03*
X123774001Y-77440001D03*
X123774001Y-75940001D03*
X123774001Y-74440001D03*
X123774001Y-72940001D03*
X123774001Y-71440001D03*
X123774001Y-69940001D03*
X123774001Y-68440001D03*
X123774001Y-66940001D03*
X123774001Y-65440001D03*
X123774001Y-63940001D03*
D19*
X135524001Y-83690001D03*
X134024001Y-83690001D03*
X132524001Y-83690001D03*
X131024001Y-83690001D03*
X129524001Y-83690001D03*
X128024001Y-83690001D03*
X126524001Y-83690001D03*
X125024001Y-83690001D03*
D20*
X131318000Y-93980000D02*
X131318000Y-97790000D01*
X131826000Y-88646000D02*
X131318000Y-89154000D01*
X131336000Y-92946000D02*
X131318000Y-92964000D01*
X133096000Y-92946000D02*
X131336000Y-92946000D01*
X131318000Y-89154000D02*
X131318000Y-92964000D01*
X131318000Y-92964000D02*
X131318000Y-93980000D01*
X126746000Y-87122000D02*
X126746000Y-88646000D01*
X127508000Y-86360000D02*
X126746000Y-87122000D01*
X136652000Y-86360000D02*
X127508000Y-86360000D01*
X137160000Y-92456000D02*
X137160000Y-86868000D01*
X137160000Y-86868000D02*
X136652000Y-86360000D01*
X126746000Y-88646000D02*
X124206000Y-88646000D01*
X124206000Y-88646000D02*
X121158000Y-85598000D01*
X121158000Y-85598000D02*
X121158000Y-81026000D01*
X121743999Y-80440001D02*
X123774001Y-80440001D01*
X121158000Y-81026000D02*
X121743999Y-80440001D01*
D21*
X120132980Y-66331022D02*
X120132980Y-90160980D01*
X123774001Y-63940001D02*
X122524001Y-63940001D01*
X122524001Y-63940001D02*
X120132980Y-66331022D01*
X126238000Y-96266000D02*
X126238000Y-97790000D01*
X120132980Y-90160980D02*
X126238000Y-96266000D01*
X120582990Y-68046010D02*
X120582990Y-89594990D01*
X123774001Y-65440001D02*
X123188999Y-65440001D01*
X123188999Y-65440001D02*
X120582990Y-68046010D01*
X120582990Y-89594990D02*
X124206000Y-93218000D01*
X124206000Y-93218000D02*
X127000000Y-93218000D01*
X128778000Y-94996000D02*
X128778000Y-97790000D01*
X127000000Y-93218000D02*
X128778000Y-94996000D01*
D22*
G36*
X140056000Y-99416000D02*
G01*
X120040000Y-99416000D01*
X120040000Y-91142801D01*
X125223519Y-96326321D01*
X125143820Y-96350498D01*
X125033506Y-96409463D01*
X124936815Y-96488815D01*
X124857463Y-96585506D01*
X124798498Y-96695820D01*
X124762188Y-96815518D01*
X124749928Y-96940000D01*
X124749928Y-98640000D01*
X124762188Y-98764482D01*
X124798498Y-98884180D01*
X124857463Y-98994494D01*
X124936815Y-99091185D01*
X125033506Y-99170537D01*
X125143820Y-99229502D01*
X125263518Y-99265812D01*
X125388000Y-99278072D01*
X127088000Y-99278072D01*
X127212482Y-99265812D01*
X127332180Y-99229502D01*
X127442494Y-99170537D01*
X127539185Y-99091185D01*
X127618537Y-98994494D01*
X127677502Y-98884180D01*
X127698393Y-98815313D01*
X127722866Y-98845134D01*
X127948986Y-99030706D01*
X128206966Y-99168599D01*
X128486889Y-99253513D01*
X128705050Y-99275000D01*
X128850950Y-99275000D01*
X129069111Y-99253513D01*
X129349034Y-99168599D01*
X129607014Y-99030706D01*
X129833134Y-98845134D01*
X130018706Y-98619014D01*
X130048000Y-98564209D01*
X130077294Y-98619014D01*
X130262866Y-98845134D01*
X130488986Y-99030706D01*
X130746966Y-99168599D01*
X131026889Y-99253513D01*
X131245050Y-99275000D01*
X131390950Y-99275000D01*
X131609111Y-99253513D01*
X131889034Y-99168599D01*
X132147014Y-99030706D01*
X132373134Y-98845134D01*
X132558706Y-98619014D01*
X132593201Y-98554477D01*
X132662822Y-98671355D01*
X132857731Y-98887588D01*
X133091080Y-99061641D01*
X133353901Y-99186825D01*
X133501110Y-99231476D01*
X133731000Y-99110155D01*
X133731000Y-97917000D01*
X133985000Y-97917000D01*
X133985000Y-99110155D01*
X134214890Y-99231476D01*
X134362099Y-99186825D01*
X134624920Y-99061641D01*
X134858269Y-98887588D01*
X135053178Y-98671355D01*
X135202157Y-98421252D01*
X135299481Y-98146891D01*
X135178814Y-97917000D01*
X133985000Y-97917000D01*
X133731000Y-97917000D01*
X133711000Y-97917000D01*
X133711000Y-97663000D01*
X133731000Y-97663000D01*
X133731000Y-96469845D01*
X133985000Y-96469845D01*
X133985000Y-97663000D01*
X135178814Y-97663000D01*
X135299481Y-97433109D01*
X135202157Y-97158748D01*
X135053178Y-96908645D01*
X134858269Y-96692412D01*
X134624920Y-96518359D01*
X134362099Y-96393175D01*
X134214890Y-96348524D01*
X133985000Y-96469845D01*
X133731000Y-96469845D01*
X133501110Y-96348524D01*
X133353901Y-96393175D01*
X133091080Y-96518359D01*
X132857731Y-96692412D01*
X132662822Y-96908645D01*
X132593201Y-97025523D01*
X132558706Y-96960986D01*
X132373134Y-96734866D01*
X132203000Y-96595241D01*
X132203000Y-96176027D01*
X132271518Y-96196812D01*
X132396000Y-96209072D01*
X132810250Y-96206000D01*
X132969000Y-96047250D01*
X132969000Y-95123000D01*
X133223000Y-95123000D01*
X133223000Y-96047250D01*
X133381750Y-96206000D01*
X133796000Y-96209072D01*
X133920482Y-96196812D01*
X134040180Y-96160502D01*
X134150494Y-96101537D01*
X134247185Y-96022185D01*
X134326537Y-95925494D01*
X134385502Y-95815180D01*
X134421812Y-95695482D01*
X134434072Y-95571000D01*
X134431256Y-95305764D01*
X136489841Y-95305764D01*
X136537148Y-95529348D01*
X136758516Y-95630237D01*
X136995313Y-95686000D01*
X137238438Y-95694495D01*
X137478549Y-95655395D01*
X137706418Y-95570202D01*
X137782852Y-95529348D01*
X137830159Y-95305764D01*
X137160000Y-94635605D01*
X136489841Y-95305764D01*
X134431256Y-95305764D01*
X134431000Y-95281750D01*
X134272250Y-95123000D01*
X133223000Y-95123000D01*
X132969000Y-95123000D01*
X132949000Y-95123000D01*
X132949000Y-94869000D01*
X132969000Y-94869000D01*
X132969000Y-94849000D01*
X133223000Y-94849000D01*
X133223000Y-94869000D01*
X134272250Y-94869000D01*
X134431000Y-94710250D01*
X134434072Y-94421000D01*
X134421812Y-94296518D01*
X134385502Y-94176820D01*
X134326537Y-94066506D01*
X134247185Y-93969815D01*
X134167406Y-93904342D01*
X134173962Y-93898962D01*
X134284405Y-93764387D01*
X134366472Y-93610851D01*
X134417008Y-93444255D01*
X134434072Y-93271001D01*
X134434072Y-92620999D01*
X134417008Y-92447745D01*
X134366472Y-92281149D01*
X134284405Y-92127613D01*
X134173962Y-91993038D01*
X134039387Y-91882595D01*
X133885851Y-91800528D01*
X133719255Y-91749992D01*
X133546001Y-91732928D01*
X132645999Y-91732928D01*
X132472745Y-91749992D01*
X132306149Y-91800528D01*
X132203000Y-91855662D01*
X132203000Y-90284072D01*
X132778500Y-90284072D01*
X132902982Y-90271812D01*
X133022680Y-90235502D01*
X133132994Y-90176537D01*
X133229685Y-90097185D01*
X133309037Y-90000494D01*
X133368002Y-89890180D01*
X133404312Y-89770482D01*
X133416572Y-89646000D01*
X133416572Y-87646000D01*
X133404312Y-87521518D01*
X133368002Y-87401820D01*
X133309037Y-87291506D01*
X133270871Y-87245000D01*
X136275001Y-87245000D01*
X136275000Y-91288317D01*
X136205506Y-91325463D01*
X136108815Y-91404815D01*
X136029463Y-91501506D01*
X135970498Y-91611820D01*
X135934188Y-91731518D01*
X135921928Y-91856000D01*
X135921928Y-93056000D01*
X135934188Y-93180482D01*
X135970498Y-93300180D01*
X136029463Y-93410494D01*
X136108815Y-93507185D01*
X136205506Y-93586537D01*
X136251006Y-93610858D01*
X136193128Y-93668736D01*
X136310234Y-93785842D01*
X136086652Y-93833148D01*
X135985763Y-94054516D01*
X135930000Y-94291313D01*
X135921505Y-94534438D01*
X135960605Y-94774549D01*
X136045798Y-95002418D01*
X136086652Y-95078852D01*
X136310236Y-95126159D01*
X136980395Y-94456000D01*
X136966253Y-94441858D01*
X137145858Y-94262253D01*
X137160000Y-94276395D01*
X137174143Y-94262253D01*
X137353748Y-94441858D01*
X137339605Y-94456000D01*
X138009764Y-95126159D01*
X138233348Y-95078852D01*
X138334237Y-94857484D01*
X138390000Y-94620687D01*
X138398495Y-94377562D01*
X138359395Y-94137451D01*
X138274202Y-93909582D01*
X138233348Y-93833148D01*
X138009766Y-93785842D01*
X138126872Y-93668736D01*
X138068994Y-93610858D01*
X138114494Y-93586537D01*
X138211185Y-93507185D01*
X138290537Y-93410494D01*
X138349502Y-93300180D01*
X138385812Y-93180482D01*
X138398072Y-93056000D01*
X138398072Y-91856000D01*
X138385812Y-91731518D01*
X138349502Y-91611820D01*
X138290537Y-91501506D01*
X138211185Y-91404815D01*
X138114494Y-91325463D01*
X138045000Y-91288317D01*
X138045000Y-86911465D01*
X138049281Y-86867999D01*
X138045000Y-86824533D01*
X138045000Y-86824523D01*
X138032195Y-86694510D01*
X137981589Y-86527687D01*
X137899411Y-86373941D01*
X137788817Y-86239183D01*
X137755044Y-86211466D01*
X137308534Y-85764956D01*
X137280817Y-85731183D01*
X137146059Y-85620589D01*
X136992313Y-85538411D01*
X136825490Y-85487805D01*
X136695477Y-85475000D01*
X136695469Y-85475000D01*
X136652000Y-85470719D01*
X136608531Y-85475000D01*
X127551469Y-85475000D01*
X127508000Y-85470719D01*
X127464531Y-85475000D01*
X127464523Y-85475000D01*
X127334510Y-85487805D01*
X127167687Y-85538411D01*
X127056203Y-85598000D01*
X127013941Y-85620589D01*
X126912953Y-85703468D01*
X126912951Y-85703470D01*
X126879183Y-85731183D01*
X126851470Y-85764951D01*
X126150956Y-86465466D01*
X126117183Y-86493183D01*
X126006589Y-86627942D01*
X125924411Y-86781688D01*
X125873805Y-86948511D01*
X125861000Y-87078524D01*
X125861000Y-87078531D01*
X125856719Y-87122000D01*
X125861000Y-87165470D01*
X125861000Y-87271495D01*
X125859766Y-87272155D01*
X125618037Y-87470537D01*
X125419655Y-87712265D01*
X125393606Y-87761000D01*
X124572579Y-87761000D01*
X122043000Y-85231422D01*
X122043000Y-82440001D01*
X122135929Y-82440001D01*
X122148189Y-82564483D01*
X122184499Y-82684181D01*
X122243464Y-82794495D01*
X122322816Y-82891186D01*
X122419507Y-82970538D01*
X122529821Y-83029503D01*
X122649519Y-83065813D01*
X122774001Y-83078073D01*
X123488251Y-83075001D01*
X123647001Y-82916251D01*
X123647001Y-82790001D01*
X123885929Y-82790001D01*
X123885929Y-84590001D01*
X123898189Y-84714483D01*
X123934499Y-84834181D01*
X123993464Y-84944495D01*
X124072816Y-85041186D01*
X124169507Y-85120538D01*
X124279821Y-85179503D01*
X124399519Y-85215813D01*
X124524001Y-85228073D01*
X125524001Y-85228073D01*
X125648483Y-85215813D01*
X125768181Y-85179503D01*
X125774001Y-85176392D01*
X125779821Y-85179503D01*
X125899519Y-85215813D01*
X126024001Y-85228073D01*
X127024001Y-85228073D01*
X127148483Y-85215813D01*
X127268181Y-85179503D01*
X127274001Y-85176392D01*
X127279821Y-85179503D01*
X127399519Y-85215813D01*
X127524001Y-85228073D01*
X128524001Y-85228073D01*
X128648483Y-85215813D01*
X128768181Y-85179503D01*
X128774001Y-85176392D01*
X128779821Y-85179503D01*
X128899519Y-85215813D01*
X129024001Y-85228073D01*
X130024001Y-85228073D01*
X130148483Y-85215813D01*
X130268181Y-85179503D01*
X130274001Y-85176392D01*
X130279821Y-85179503D01*
X130399519Y-85215813D01*
X130524001Y-85228073D01*
X131524001Y-85228073D01*
X131648483Y-85215813D01*
X131768181Y-85179503D01*
X131774001Y-85176392D01*
X131779821Y-85179503D01*
X131899519Y-85215813D01*
X132024001Y-85228073D01*
X133024001Y-85228073D01*
X133148483Y-85215813D01*
X133268181Y-85179503D01*
X133274001Y-85176392D01*
X133279821Y-85179503D01*
X133399519Y-85215813D01*
X133524001Y-85228073D01*
X134524001Y-85228073D01*
X134648483Y-85215813D01*
X134768181Y-85179503D01*
X134774001Y-85176392D01*
X134779821Y-85179503D01*
X134899519Y-85215813D01*
X135024001Y-85228073D01*
X136024001Y-85228073D01*
X136148483Y-85215813D01*
X136268181Y-85179503D01*
X136378495Y-85120538D01*
X136475186Y-85041186D01*
X136554538Y-84944495D01*
X136613503Y-84834181D01*
X136649813Y-84714483D01*
X136662073Y-84590001D01*
X136662073Y-83078073D01*
X137774001Y-83078073D01*
X137898483Y-83065813D01*
X138018181Y-83029503D01*
X138128495Y-82970538D01*
X138225186Y-82891186D01*
X138304538Y-82794495D01*
X138363503Y-82684181D01*
X138399813Y-82564483D01*
X138412073Y-82440001D01*
X138412073Y-81440001D01*
X138399813Y-81315519D01*
X138363503Y-81195821D01*
X138360392Y-81190001D01*
X138363503Y-81184181D01*
X138399813Y-81064483D01*
X138412073Y-80940001D01*
X138412073Y-79940001D01*
X138399813Y-79815519D01*
X138363503Y-79695821D01*
X138360392Y-79690001D01*
X138363503Y-79684181D01*
X138399813Y-79564483D01*
X138412073Y-79440001D01*
X138412073Y-78440001D01*
X138399813Y-78315519D01*
X138363503Y-78195821D01*
X138360392Y-78190001D01*
X138363503Y-78184181D01*
X138399813Y-78064483D01*
X138412073Y-77940001D01*
X138412073Y-76940001D01*
X138399813Y-76815519D01*
X138363503Y-76695821D01*
X138360392Y-76690001D01*
X138363503Y-76684181D01*
X138399813Y-76564483D01*
X138412073Y-76440001D01*
X138412073Y-75440001D01*
X138399813Y-75315519D01*
X138363503Y-75195821D01*
X138360392Y-75190001D01*
X138363503Y-75184181D01*
X138399813Y-75064483D01*
X138412073Y-74940001D01*
X138412073Y-73940001D01*
X138399813Y-73815519D01*
X138363503Y-73695821D01*
X138360392Y-73690001D01*
X138363503Y-73684181D01*
X138399813Y-73564483D01*
X138412073Y-73440001D01*
X138412073Y-72440001D01*
X138399813Y-72315519D01*
X138363503Y-72195821D01*
X138360392Y-72190001D01*
X138363503Y-72184181D01*
X138399813Y-72064483D01*
X138412073Y-71940001D01*
X138412073Y-70940001D01*
X138399813Y-70815519D01*
X138363503Y-70695821D01*
X138360392Y-70690001D01*
X138363503Y-70684181D01*
X138399813Y-70564483D01*
X138412073Y-70440001D01*
X138412073Y-69440001D01*
X138399813Y-69315519D01*
X138363503Y-69195821D01*
X138360392Y-69190001D01*
X138363503Y-69184181D01*
X138399813Y-69064483D01*
X138412073Y-68940001D01*
X138412073Y-67940001D01*
X138399813Y-67815519D01*
X138363503Y-67695821D01*
X138360392Y-67690001D01*
X138363503Y-67684181D01*
X138399813Y-67564483D01*
X138412073Y-67440001D01*
X138412073Y-66440001D01*
X138399813Y-66315519D01*
X138363503Y-66195821D01*
X138360392Y-66190001D01*
X138363503Y-66184181D01*
X138399813Y-66064483D01*
X138412073Y-65940001D01*
X138412073Y-64940001D01*
X138399813Y-64815519D01*
X138363503Y-64695821D01*
X138360392Y-64690001D01*
X138363503Y-64684181D01*
X138399813Y-64564483D01*
X138412073Y-64440001D01*
X138412073Y-63440001D01*
X138399813Y-63315519D01*
X138363503Y-63195821D01*
X138304538Y-63085507D01*
X138225186Y-62988816D01*
X138128495Y-62909464D01*
X138018181Y-62850499D01*
X137898483Y-62814189D01*
X137774001Y-62801929D01*
X135774001Y-62801929D01*
X135649519Y-62814189D01*
X135529821Y-62850499D01*
X135419507Y-62909464D01*
X135322816Y-62988816D01*
X135243464Y-63085507D01*
X135184499Y-63195821D01*
X135148189Y-63315519D01*
X135135929Y-63440001D01*
X135135929Y-64440001D01*
X135148189Y-64564483D01*
X135184499Y-64684181D01*
X135187610Y-64690001D01*
X135184499Y-64695821D01*
X135148189Y-64815519D01*
X135135929Y-64940001D01*
X135135929Y-65940001D01*
X135148189Y-66064483D01*
X135184499Y-66184181D01*
X135187610Y-66190001D01*
X135184499Y-66195821D01*
X135148189Y-66315519D01*
X135135929Y-66440001D01*
X135135929Y-67440001D01*
X135148189Y-67564483D01*
X135184499Y-67684181D01*
X135187610Y-67690001D01*
X135184499Y-67695821D01*
X135148189Y-67815519D01*
X135135929Y-67940001D01*
X135135929Y-68940001D01*
X135148189Y-69064483D01*
X135184499Y-69184181D01*
X135187610Y-69190001D01*
X135184499Y-69195821D01*
X135148189Y-69315519D01*
X135135929Y-69440001D01*
X135135929Y-70440001D01*
X135148189Y-70564483D01*
X135184499Y-70684181D01*
X135187610Y-70690001D01*
X135184499Y-70695821D01*
X135148189Y-70815519D01*
X135135929Y-70940001D01*
X135135929Y-71940001D01*
X135148189Y-72064483D01*
X135184499Y-72184181D01*
X135187610Y-72190001D01*
X135184499Y-72195821D01*
X135148189Y-72315519D01*
X135135929Y-72440001D01*
X135135929Y-73440001D01*
X135148189Y-73564483D01*
X135184499Y-73684181D01*
X135187610Y-73690001D01*
X135184499Y-73695821D01*
X135148189Y-73815519D01*
X135135929Y-73940001D01*
X135135929Y-74940001D01*
X135148189Y-75064483D01*
X135184499Y-75184181D01*
X135187610Y-75190001D01*
X135184499Y-75195821D01*
X135148189Y-75315519D01*
X135135929Y-75440001D01*
X135135929Y-76440001D01*
X135148189Y-76564483D01*
X135184499Y-76684181D01*
X135187610Y-76690001D01*
X135184499Y-76695821D01*
X135148189Y-76815519D01*
X135135929Y-76940001D01*
X135135929Y-77940001D01*
X135148189Y-78064483D01*
X135184499Y-78184181D01*
X135187610Y-78190001D01*
X135184499Y-78195821D01*
X135148189Y-78315519D01*
X135135929Y-78440001D01*
X135135929Y-79440001D01*
X135148189Y-79564483D01*
X135184499Y-79684181D01*
X135187610Y-79690001D01*
X135184499Y-79695821D01*
X135148189Y-79815519D01*
X135135929Y-79940001D01*
X135135929Y-80940001D01*
X135148189Y-81064483D01*
X135184499Y-81184181D01*
X135187610Y-81190001D01*
X135184499Y-81195821D01*
X135148189Y-81315519D01*
X135135929Y-81440001D01*
X135135929Y-82151929D01*
X135024001Y-82151929D01*
X134899519Y-82164189D01*
X134779821Y-82200499D01*
X134774001Y-82203610D01*
X134768181Y-82200499D01*
X134648483Y-82164189D01*
X134524001Y-82151929D01*
X133524001Y-82151929D01*
X133399519Y-82164189D01*
X133279821Y-82200499D01*
X133274001Y-82203610D01*
X133268181Y-82200499D01*
X133148483Y-82164189D01*
X133024001Y-82151929D01*
X132024001Y-82151929D01*
X131899519Y-82164189D01*
X131779821Y-82200499D01*
X131774001Y-82203610D01*
X131768181Y-82200499D01*
X131648483Y-82164189D01*
X131524001Y-82151929D01*
X130524001Y-82151929D01*
X130399519Y-82164189D01*
X130279821Y-82200499D01*
X130274001Y-82203610D01*
X130268181Y-82200499D01*
X130148483Y-82164189D01*
X130024001Y-82151929D01*
X129024001Y-82151929D01*
X128899519Y-82164189D01*
X128779821Y-82200499D01*
X128774001Y-82203610D01*
X128768181Y-82200499D01*
X128648483Y-82164189D01*
X128524001Y-82151929D01*
X127524001Y-82151929D01*
X127399519Y-82164189D01*
X127279821Y-82200499D01*
X127274001Y-82203610D01*
X127268181Y-82200499D01*
X127148483Y-82164189D01*
X127024001Y-82151929D01*
X126024001Y-82151929D01*
X125899519Y-82164189D01*
X125779821Y-82200499D01*
X125774001Y-82203610D01*
X125768181Y-82200499D01*
X125648483Y-82164189D01*
X125524001Y-82151929D01*
X125335179Y-82151929D01*
X125250251Y-82067001D01*
X123901001Y-82067001D01*
X123901001Y-82656249D01*
X123898189Y-82665519D01*
X123885929Y-82790001D01*
X123647001Y-82790001D01*
X123647001Y-82067001D01*
X122297751Y-82067001D01*
X122139001Y-82225751D01*
X122135929Y-82440001D01*
X122043000Y-82440001D01*
X122043000Y-81392578D01*
X122110577Y-81325001D01*
X122147255Y-81325001D01*
X122135929Y-81440001D01*
X122139001Y-81654251D01*
X122297751Y-81813001D01*
X123647001Y-81813001D01*
X123647001Y-81793001D01*
X123901001Y-81793001D01*
X123901001Y-81813001D01*
X125250251Y-81813001D01*
X125409001Y-81654251D01*
X125412073Y-81440001D01*
X125399813Y-81315519D01*
X125363503Y-81195821D01*
X125360392Y-81190001D01*
X125363503Y-81184181D01*
X125399813Y-81064483D01*
X125412073Y-80940001D01*
X125412073Y-79940001D01*
X125399813Y-79815519D01*
X125363503Y-79695821D01*
X125360392Y-79690001D01*
X125363503Y-79684181D01*
X125399813Y-79564483D01*
X125412073Y-79440001D01*
X125412073Y-78440001D01*
X125399813Y-78315519D01*
X125363503Y-78195821D01*
X125360392Y-78190001D01*
X125363503Y-78184181D01*
X125399813Y-78064483D01*
X125412073Y-77940001D01*
X125412073Y-76940001D01*
X125399813Y-76815519D01*
X125363503Y-76695821D01*
X125360392Y-76690001D01*
X125363503Y-76684181D01*
X125399813Y-76564483D01*
X125412073Y-76440001D01*
X125412073Y-75440001D01*
X125399813Y-75315519D01*
X125363503Y-75195821D01*
X125360392Y-75190001D01*
X125363503Y-75184181D01*
X125399813Y-75064483D01*
X125412073Y-74940001D01*
X125412073Y-73940001D01*
X125399813Y-73815519D01*
X125363503Y-73695821D01*
X125360392Y-73690001D01*
X125363503Y-73684181D01*
X125399813Y-73564483D01*
X125412073Y-73440001D01*
X125412073Y-72440001D01*
X125399813Y-72315519D01*
X125363503Y-72195821D01*
X125360392Y-72190001D01*
X125363503Y-72184181D01*
X125399813Y-72064483D01*
X125412073Y-71940001D01*
X125412073Y-70940001D01*
X125399813Y-70815519D01*
X125363503Y-70695821D01*
X125360392Y-70690001D01*
X125363503Y-70684181D01*
X125399813Y-70564483D01*
X125412073Y-70440001D01*
X125412073Y-69440001D01*
X125399813Y-69315519D01*
X125363503Y-69195821D01*
X125360392Y-69190001D01*
X125363503Y-69184181D01*
X125399813Y-69064483D01*
X125412073Y-68940001D01*
X125412073Y-67940001D01*
X125399813Y-67815519D01*
X125363503Y-67695821D01*
X125360392Y-67690001D01*
X125363503Y-67684181D01*
X125399813Y-67564483D01*
X125412073Y-67440001D01*
X125412073Y-66440001D01*
X125399813Y-66315519D01*
X125363503Y-66195821D01*
X125360392Y-66190001D01*
X125363503Y-66184181D01*
X125399813Y-66064483D01*
X125412073Y-65940001D01*
X125412073Y-64940001D01*
X125399813Y-64815519D01*
X125363503Y-64695821D01*
X125360392Y-64690001D01*
X125363503Y-64684181D01*
X125399813Y-64564483D01*
X125412073Y-64440001D01*
X125412073Y-63440001D01*
X125399813Y-63315519D01*
X125363503Y-63195821D01*
X125304538Y-63085507D01*
X125225186Y-62988816D01*
X125128495Y-62909464D01*
X125018181Y-62850499D01*
X124898483Y-62814189D01*
X124774001Y-62801929D01*
X122774001Y-62801929D01*
X122649519Y-62814189D01*
X122529821Y-62850499D01*
X122419507Y-62909464D01*
X122322816Y-62988816D01*
X122243464Y-63085507D01*
X122184499Y-63195821D01*
X122161367Y-63272078D01*
X122099725Y-63305027D01*
X121984000Y-63400000D01*
X121960202Y-63428998D01*
X120040000Y-65349201D01*
X120040000Y-51460000D01*
X140056001Y-51460000D01*
X140056000Y-99416000D01*
X140056000Y-99416000D01*
G37*
X140056000Y-99416000D02*
X120040000Y-99416000D01*
X120040000Y-91142801D01*
X125223519Y-96326321D01*
X125143820Y-96350498D01*
X125033506Y-96409463D01*
X124936815Y-96488815D01*
X124857463Y-96585506D01*
X124798498Y-96695820D01*
X124762188Y-96815518D01*
X124749928Y-96940000D01*
X124749928Y-98640000D01*
X124762188Y-98764482D01*
X124798498Y-98884180D01*
X124857463Y-98994494D01*
X124936815Y-99091185D01*
X125033506Y-99170537D01*
X125143820Y-99229502D01*
X125263518Y-99265812D01*
X125388000Y-99278072D01*
X127088000Y-99278072D01*
X127212482Y-99265812D01*
X127332180Y-99229502D01*
X127442494Y-99170537D01*
X127539185Y-99091185D01*
X127618537Y-98994494D01*
X127677502Y-98884180D01*
X127698393Y-98815313D01*
X127722866Y-98845134D01*
X127948986Y-99030706D01*
X128206966Y-99168599D01*
X128486889Y-99253513D01*
X128705050Y-99275000D01*
X128850950Y-99275000D01*
X129069111Y-99253513D01*
X129349034Y-99168599D01*
X129607014Y-99030706D01*
X129833134Y-98845134D01*
X130018706Y-98619014D01*
X130048000Y-98564209D01*
X130077294Y-98619014D01*
X130262866Y-98845134D01*
X130488986Y-99030706D01*
X130746966Y-99168599D01*
X131026889Y-99253513D01*
X131245050Y-99275000D01*
X131390950Y-99275000D01*
X131609111Y-99253513D01*
X131889034Y-99168599D01*
X132147014Y-99030706D01*
X132373134Y-98845134D01*
X132558706Y-98619014D01*
X132593201Y-98554477D01*
X132662822Y-98671355D01*
X132857731Y-98887588D01*
X133091080Y-99061641D01*
X133353901Y-99186825D01*
X133501110Y-99231476D01*
X133731000Y-99110155D01*
X133731000Y-97917000D01*
X133985000Y-97917000D01*
X133985000Y-99110155D01*
X134214890Y-99231476D01*
X134362099Y-99186825D01*
X134624920Y-99061641D01*
X134858269Y-98887588D01*
X135053178Y-98671355D01*
X135202157Y-98421252D01*
X135299481Y-98146891D01*
X135178814Y-97917000D01*
X133985000Y-97917000D01*
X133731000Y-97917000D01*
X133711000Y-97917000D01*
X133711000Y-97663000D01*
X133731000Y-97663000D01*
X133731000Y-96469845D01*
X133985000Y-96469845D01*
X133985000Y-97663000D01*
X135178814Y-97663000D01*
X135299481Y-97433109D01*
X135202157Y-97158748D01*
X135053178Y-96908645D01*
X134858269Y-96692412D01*
X134624920Y-96518359D01*
X134362099Y-96393175D01*
X134214890Y-96348524D01*
X133985000Y-96469845D01*
X133731000Y-96469845D01*
X133501110Y-96348524D01*
X133353901Y-96393175D01*
X133091080Y-96518359D01*
X132857731Y-96692412D01*
X132662822Y-96908645D01*
X132593201Y-97025523D01*
X132558706Y-96960986D01*
X132373134Y-96734866D01*
X132203000Y-96595241D01*
X132203000Y-96176027D01*
X132271518Y-96196812D01*
X132396000Y-96209072D01*
X132810250Y-96206000D01*
X132969000Y-96047250D01*
X132969000Y-95123000D01*
X133223000Y-95123000D01*
X133223000Y-96047250D01*
X133381750Y-96206000D01*
X133796000Y-96209072D01*
X133920482Y-96196812D01*
X134040180Y-96160502D01*
X134150494Y-96101537D01*
X134247185Y-96022185D01*
X134326537Y-95925494D01*
X134385502Y-95815180D01*
X134421812Y-95695482D01*
X134434072Y-95571000D01*
X134431256Y-95305764D01*
X136489841Y-95305764D01*
X136537148Y-95529348D01*
X136758516Y-95630237D01*
X136995313Y-95686000D01*
X137238438Y-95694495D01*
X137478549Y-95655395D01*
X137706418Y-95570202D01*
X137782852Y-95529348D01*
X137830159Y-95305764D01*
X137160000Y-94635605D01*
X136489841Y-95305764D01*
X134431256Y-95305764D01*
X134431000Y-95281750D01*
X134272250Y-95123000D01*
X133223000Y-95123000D01*
X132969000Y-95123000D01*
X132949000Y-95123000D01*
X132949000Y-94869000D01*
X132969000Y-94869000D01*
X132969000Y-94849000D01*
X133223000Y-94849000D01*
X133223000Y-94869000D01*
X134272250Y-94869000D01*
X134431000Y-94710250D01*
X134434072Y-94421000D01*
X134421812Y-94296518D01*
X134385502Y-94176820D01*
X134326537Y-94066506D01*
X134247185Y-93969815D01*
X134167406Y-93904342D01*
X134173962Y-93898962D01*
X134284405Y-93764387D01*
X134366472Y-93610851D01*
X134417008Y-93444255D01*
X134434072Y-93271001D01*
X134434072Y-92620999D01*
X134417008Y-92447745D01*
X134366472Y-92281149D01*
X134284405Y-92127613D01*
X134173962Y-91993038D01*
X134039387Y-91882595D01*
X133885851Y-91800528D01*
X133719255Y-91749992D01*
X133546001Y-91732928D01*
X132645999Y-91732928D01*
X132472745Y-91749992D01*
X132306149Y-91800528D01*
X132203000Y-91855662D01*
X132203000Y-90284072D01*
X132778500Y-90284072D01*
X132902982Y-90271812D01*
X133022680Y-90235502D01*
X133132994Y-90176537D01*
X133229685Y-90097185D01*
X133309037Y-90000494D01*
X133368002Y-89890180D01*
X133404312Y-89770482D01*
X133416572Y-89646000D01*
X133416572Y-87646000D01*
X133404312Y-87521518D01*
X133368002Y-87401820D01*
X133309037Y-87291506D01*
X133270871Y-87245000D01*
X136275001Y-87245000D01*
X136275000Y-91288317D01*
X136205506Y-91325463D01*
X136108815Y-91404815D01*
X136029463Y-91501506D01*
X135970498Y-91611820D01*
X135934188Y-91731518D01*
X135921928Y-91856000D01*
X135921928Y-93056000D01*
X135934188Y-93180482D01*
X135970498Y-93300180D01*
X136029463Y-93410494D01*
X136108815Y-93507185D01*
X136205506Y-93586537D01*
X136251006Y-93610858D01*
X136193128Y-93668736D01*
X136310234Y-93785842D01*
X136086652Y-93833148D01*
X135985763Y-94054516D01*
X135930000Y-94291313D01*
X135921505Y-94534438D01*
X135960605Y-94774549D01*
X136045798Y-95002418D01*
X136086652Y-95078852D01*
X136310236Y-95126159D01*
X136980395Y-94456000D01*
X136966253Y-94441858D01*
X137145858Y-94262253D01*
X137160000Y-94276395D01*
X137174143Y-94262253D01*
X137353748Y-94441858D01*
X137339605Y-94456000D01*
X138009764Y-95126159D01*
X138233348Y-95078852D01*
X138334237Y-94857484D01*
X138390000Y-94620687D01*
X138398495Y-94377562D01*
X138359395Y-94137451D01*
X138274202Y-93909582D01*
X138233348Y-93833148D01*
X138009766Y-93785842D01*
X138126872Y-93668736D01*
X138068994Y-93610858D01*
X138114494Y-93586537D01*
X138211185Y-93507185D01*
X138290537Y-93410494D01*
X138349502Y-93300180D01*
X138385812Y-93180482D01*
X138398072Y-93056000D01*
X138398072Y-91856000D01*
X138385812Y-91731518D01*
X138349502Y-91611820D01*
X138290537Y-91501506D01*
X138211185Y-91404815D01*
X138114494Y-91325463D01*
X138045000Y-91288317D01*
X138045000Y-86911465D01*
X138049281Y-86867999D01*
X138045000Y-86824533D01*
X138045000Y-86824523D01*
X138032195Y-86694510D01*
X137981589Y-86527687D01*
X137899411Y-86373941D01*
X137788817Y-86239183D01*
X137755044Y-86211466D01*
X137308534Y-85764956D01*
X137280817Y-85731183D01*
X137146059Y-85620589D01*
X136992313Y-85538411D01*
X136825490Y-85487805D01*
X136695477Y-85475000D01*
X136695469Y-85475000D01*
X136652000Y-85470719D01*
X136608531Y-85475000D01*
X127551469Y-85475000D01*
X127508000Y-85470719D01*
X127464531Y-85475000D01*
X127464523Y-85475000D01*
X127334510Y-85487805D01*
X127167687Y-85538411D01*
X127056203Y-85598000D01*
X127013941Y-85620589D01*
X126912953Y-85703468D01*
X126912951Y-85703470D01*
X126879183Y-85731183D01*
X126851470Y-85764951D01*
X126150956Y-86465466D01*
X126117183Y-86493183D01*
X126006589Y-86627942D01*
X125924411Y-86781688D01*
X125873805Y-86948511D01*
X125861000Y-87078524D01*
X125861000Y-87078531D01*
X125856719Y-87122000D01*
X125861000Y-87165470D01*
X125861000Y-87271495D01*
X125859766Y-87272155D01*
X125618037Y-87470537D01*
X125419655Y-87712265D01*
X125393606Y-87761000D01*
X124572579Y-87761000D01*
X122043000Y-85231422D01*
X122043000Y-82440001D01*
X122135929Y-82440001D01*
X122148189Y-82564483D01*
X122184499Y-82684181D01*
X122243464Y-82794495D01*
X122322816Y-82891186D01*
X122419507Y-82970538D01*
X122529821Y-83029503D01*
X122649519Y-83065813D01*
X122774001Y-83078073D01*
X123488251Y-83075001D01*
X123647001Y-82916251D01*
X123647001Y-82790001D01*
X123885929Y-82790001D01*
X123885929Y-84590001D01*
X123898189Y-84714483D01*
X123934499Y-84834181D01*
X123993464Y-84944495D01*
X124072816Y-85041186D01*
X124169507Y-85120538D01*
X124279821Y-85179503D01*
X124399519Y-85215813D01*
X124524001Y-85228073D01*
X125524001Y-85228073D01*
X125648483Y-85215813D01*
X125768181Y-85179503D01*
X125774001Y-85176392D01*
X125779821Y-85179503D01*
X125899519Y-85215813D01*
X126024001Y-85228073D01*
X127024001Y-85228073D01*
X127148483Y-85215813D01*
X127268181Y-85179503D01*
X127274001Y-85176392D01*
X127279821Y-85179503D01*
X127399519Y-85215813D01*
X127524001Y-85228073D01*
X128524001Y-85228073D01*
X128648483Y-85215813D01*
X128768181Y-85179503D01*
X128774001Y-85176392D01*
X128779821Y-85179503D01*
X128899519Y-85215813D01*
X129024001Y-85228073D01*
X130024001Y-85228073D01*
X130148483Y-85215813D01*
X130268181Y-85179503D01*
X130274001Y-85176392D01*
X130279821Y-85179503D01*
X130399519Y-85215813D01*
X130524001Y-85228073D01*
X131524001Y-85228073D01*
X131648483Y-85215813D01*
X131768181Y-85179503D01*
X131774001Y-85176392D01*
X131779821Y-85179503D01*
X131899519Y-85215813D01*
X132024001Y-85228073D01*
X133024001Y-85228073D01*
X133148483Y-85215813D01*
X133268181Y-85179503D01*
X133274001Y-85176392D01*
X133279821Y-85179503D01*
X133399519Y-85215813D01*
X133524001Y-85228073D01*
X134524001Y-85228073D01*
X134648483Y-85215813D01*
X134768181Y-85179503D01*
X134774001Y-85176392D01*
X134779821Y-85179503D01*
X134899519Y-85215813D01*
X135024001Y-85228073D01*
X136024001Y-85228073D01*
X136148483Y-85215813D01*
X136268181Y-85179503D01*
X136378495Y-85120538D01*
X136475186Y-85041186D01*
X136554538Y-84944495D01*
X136613503Y-84834181D01*
X136649813Y-84714483D01*
X136662073Y-84590001D01*
X136662073Y-83078073D01*
X137774001Y-83078073D01*
X137898483Y-83065813D01*
X138018181Y-83029503D01*
X138128495Y-82970538D01*
X138225186Y-82891186D01*
X138304538Y-82794495D01*
X138363503Y-82684181D01*
X138399813Y-82564483D01*
X138412073Y-82440001D01*
X138412073Y-81440001D01*
X138399813Y-81315519D01*
X138363503Y-81195821D01*
X138360392Y-81190001D01*
X138363503Y-81184181D01*
X138399813Y-81064483D01*
X138412073Y-80940001D01*
X138412073Y-79940001D01*
X138399813Y-79815519D01*
X138363503Y-79695821D01*
X138360392Y-79690001D01*
X138363503Y-79684181D01*
X138399813Y-79564483D01*
X138412073Y-79440001D01*
X138412073Y-78440001D01*
X138399813Y-78315519D01*
X138363503Y-78195821D01*
X138360392Y-78190001D01*
X138363503Y-78184181D01*
X138399813Y-78064483D01*
X138412073Y-77940001D01*
X138412073Y-76940001D01*
X138399813Y-76815519D01*
X138363503Y-76695821D01*
X138360392Y-76690001D01*
X138363503Y-76684181D01*
X138399813Y-76564483D01*
X138412073Y-76440001D01*
X138412073Y-75440001D01*
X138399813Y-75315519D01*
X138363503Y-75195821D01*
X138360392Y-75190001D01*
X138363503Y-75184181D01*
X138399813Y-75064483D01*
X138412073Y-74940001D01*
X138412073Y-73940001D01*
X138399813Y-73815519D01*
X138363503Y-73695821D01*
X138360392Y-73690001D01*
X138363503Y-73684181D01*
X138399813Y-73564483D01*
X138412073Y-73440001D01*
X138412073Y-72440001D01*
X138399813Y-72315519D01*
X138363503Y-72195821D01*
X138360392Y-72190001D01*
X138363503Y-72184181D01*
X138399813Y-72064483D01*
X138412073Y-71940001D01*
X138412073Y-70940001D01*
X138399813Y-70815519D01*
X138363503Y-70695821D01*
X138360392Y-70690001D01*
X138363503Y-70684181D01*
X138399813Y-70564483D01*
X138412073Y-70440001D01*
X138412073Y-69440001D01*
X138399813Y-69315519D01*
X138363503Y-69195821D01*
X138360392Y-69190001D01*
X138363503Y-69184181D01*
X138399813Y-69064483D01*
X138412073Y-68940001D01*
X138412073Y-67940001D01*
X138399813Y-67815519D01*
X138363503Y-67695821D01*
X138360392Y-67690001D01*
X138363503Y-67684181D01*
X138399813Y-67564483D01*
X138412073Y-67440001D01*
X138412073Y-66440001D01*
X138399813Y-66315519D01*
X138363503Y-66195821D01*
X138360392Y-66190001D01*
X138363503Y-66184181D01*
X138399813Y-66064483D01*
X138412073Y-65940001D01*
X138412073Y-64940001D01*
X138399813Y-64815519D01*
X138363503Y-64695821D01*
X138360392Y-64690001D01*
X138363503Y-64684181D01*
X138399813Y-64564483D01*
X138412073Y-64440001D01*
X138412073Y-63440001D01*
X138399813Y-63315519D01*
X138363503Y-63195821D01*
X138304538Y-63085507D01*
X138225186Y-62988816D01*
X138128495Y-62909464D01*
X138018181Y-62850499D01*
X137898483Y-62814189D01*
X137774001Y-62801929D01*
X135774001Y-62801929D01*
X135649519Y-62814189D01*
X135529821Y-62850499D01*
X135419507Y-62909464D01*
X135322816Y-62988816D01*
X135243464Y-63085507D01*
X135184499Y-63195821D01*
X135148189Y-63315519D01*
X135135929Y-63440001D01*
X135135929Y-64440001D01*
X135148189Y-64564483D01*
X135184499Y-64684181D01*
X135187610Y-64690001D01*
X135184499Y-64695821D01*
X135148189Y-64815519D01*
X135135929Y-64940001D01*
X135135929Y-65940001D01*
X135148189Y-66064483D01*
X135184499Y-66184181D01*
X135187610Y-66190001D01*
X135184499Y-66195821D01*
X135148189Y-66315519D01*
X135135929Y-66440001D01*
X135135929Y-67440001D01*
X135148189Y-67564483D01*
X135184499Y-67684181D01*
X135187610Y-67690001D01*
X135184499Y-67695821D01*
X135148189Y-67815519D01*
X135135929Y-67940001D01*
X135135929Y-68940001D01*
X135148189Y-69064483D01*
X135184499Y-69184181D01*
X135187610Y-69190001D01*
X135184499Y-69195821D01*
X135148189Y-69315519D01*
X135135929Y-69440001D01*
X135135929Y-70440001D01*
X135148189Y-70564483D01*
X135184499Y-70684181D01*
X135187610Y-70690001D01*
X135184499Y-70695821D01*
X135148189Y-70815519D01*
X135135929Y-70940001D01*
X135135929Y-71940001D01*
X135148189Y-72064483D01*
X135184499Y-72184181D01*
X135187610Y-72190001D01*
X135184499Y-72195821D01*
X135148189Y-72315519D01*
X135135929Y-72440001D01*
X135135929Y-73440001D01*
X135148189Y-73564483D01*
X135184499Y-73684181D01*
X135187610Y-73690001D01*
X135184499Y-73695821D01*
X135148189Y-73815519D01*
X135135929Y-73940001D01*
X135135929Y-74940001D01*
X135148189Y-75064483D01*
X135184499Y-75184181D01*
X135187610Y-75190001D01*
X135184499Y-75195821D01*
X135148189Y-75315519D01*
X135135929Y-75440001D01*
X135135929Y-76440001D01*
X135148189Y-76564483D01*
X135184499Y-76684181D01*
X135187610Y-76690001D01*
X135184499Y-76695821D01*
X135148189Y-76815519D01*
X135135929Y-76940001D01*
X135135929Y-77940001D01*
X135148189Y-78064483D01*
X135184499Y-78184181D01*
X135187610Y-78190001D01*
X135184499Y-78195821D01*
X135148189Y-78315519D01*
X135135929Y-78440001D01*
X135135929Y-79440001D01*
X135148189Y-79564483D01*
X135184499Y-79684181D01*
X135187610Y-79690001D01*
X135184499Y-79695821D01*
X135148189Y-79815519D01*
X135135929Y-79940001D01*
X135135929Y-80940001D01*
X135148189Y-81064483D01*
X135184499Y-81184181D01*
X135187610Y-81190001D01*
X135184499Y-81195821D01*
X135148189Y-81315519D01*
X135135929Y-81440001D01*
X135135929Y-82151929D01*
X135024001Y-82151929D01*
X134899519Y-82164189D01*
X134779821Y-82200499D01*
X134774001Y-82203610D01*
X134768181Y-82200499D01*
X134648483Y-82164189D01*
X134524001Y-82151929D01*
X133524001Y-82151929D01*
X133399519Y-82164189D01*
X133279821Y-82200499D01*
X133274001Y-82203610D01*
X133268181Y-82200499D01*
X133148483Y-82164189D01*
X133024001Y-82151929D01*
X132024001Y-82151929D01*
X131899519Y-82164189D01*
X131779821Y-82200499D01*
X131774001Y-82203610D01*
X131768181Y-82200499D01*
X131648483Y-82164189D01*
X131524001Y-82151929D01*
X130524001Y-82151929D01*
X130399519Y-82164189D01*
X130279821Y-82200499D01*
X130274001Y-82203610D01*
X130268181Y-82200499D01*
X130148483Y-82164189D01*
X130024001Y-82151929D01*
X129024001Y-82151929D01*
X128899519Y-82164189D01*
X128779821Y-82200499D01*
X128774001Y-82203610D01*
X128768181Y-82200499D01*
X128648483Y-82164189D01*
X128524001Y-82151929D01*
X127524001Y-82151929D01*
X127399519Y-82164189D01*
X127279821Y-82200499D01*
X127274001Y-82203610D01*
X127268181Y-82200499D01*
X127148483Y-82164189D01*
X127024001Y-82151929D01*
X126024001Y-82151929D01*
X125899519Y-82164189D01*
X125779821Y-82200499D01*
X125774001Y-82203610D01*
X125768181Y-82200499D01*
X125648483Y-82164189D01*
X125524001Y-82151929D01*
X125335179Y-82151929D01*
X125250251Y-82067001D01*
X123901001Y-82067001D01*
X123901001Y-82656249D01*
X123898189Y-82665519D01*
X123885929Y-82790001D01*
X123647001Y-82790001D01*
X123647001Y-82067001D01*
X122297751Y-82067001D01*
X122139001Y-82225751D01*
X122135929Y-82440001D01*
X122043000Y-82440001D01*
X122043000Y-81392578D01*
X122110577Y-81325001D01*
X122147255Y-81325001D01*
X122135929Y-81440001D01*
X122139001Y-81654251D01*
X122297751Y-81813001D01*
X123647001Y-81813001D01*
X123647001Y-81793001D01*
X123901001Y-81793001D01*
X123901001Y-81813001D01*
X125250251Y-81813001D01*
X125409001Y-81654251D01*
X125412073Y-81440001D01*
X125399813Y-81315519D01*
X125363503Y-81195821D01*
X125360392Y-81190001D01*
X125363503Y-81184181D01*
X125399813Y-81064483D01*
X125412073Y-80940001D01*
X125412073Y-79940001D01*
X125399813Y-79815519D01*
X125363503Y-79695821D01*
X125360392Y-79690001D01*
X125363503Y-79684181D01*
X125399813Y-79564483D01*
X125412073Y-79440001D01*
X125412073Y-78440001D01*
X125399813Y-78315519D01*
X125363503Y-78195821D01*
X125360392Y-78190001D01*
X125363503Y-78184181D01*
X125399813Y-78064483D01*
X125412073Y-77940001D01*
X125412073Y-76940001D01*
X125399813Y-76815519D01*
X125363503Y-76695821D01*
X125360392Y-76690001D01*
X125363503Y-76684181D01*
X125399813Y-76564483D01*
X125412073Y-76440001D01*
X125412073Y-75440001D01*
X125399813Y-75315519D01*
X125363503Y-75195821D01*
X125360392Y-75190001D01*
X125363503Y-75184181D01*
X125399813Y-75064483D01*
X125412073Y-74940001D01*
X125412073Y-73940001D01*
X125399813Y-73815519D01*
X125363503Y-73695821D01*
X125360392Y-73690001D01*
X125363503Y-73684181D01*
X125399813Y-73564483D01*
X125412073Y-73440001D01*
X125412073Y-72440001D01*
X125399813Y-72315519D01*
X125363503Y-72195821D01*
X125360392Y-72190001D01*
X125363503Y-72184181D01*
X125399813Y-72064483D01*
X125412073Y-71940001D01*
X125412073Y-70940001D01*
X125399813Y-70815519D01*
X125363503Y-70695821D01*
X125360392Y-70690001D01*
X125363503Y-70684181D01*
X125399813Y-70564483D01*
X125412073Y-70440001D01*
X125412073Y-69440001D01*
X125399813Y-69315519D01*
X125363503Y-69195821D01*
X125360392Y-69190001D01*
X125363503Y-69184181D01*
X125399813Y-69064483D01*
X125412073Y-68940001D01*
X125412073Y-67940001D01*
X125399813Y-67815519D01*
X125363503Y-67695821D01*
X125360392Y-67690001D01*
X125363503Y-67684181D01*
X125399813Y-67564483D01*
X125412073Y-67440001D01*
X125412073Y-66440001D01*
X125399813Y-66315519D01*
X125363503Y-66195821D01*
X125360392Y-66190001D01*
X125363503Y-66184181D01*
X125399813Y-66064483D01*
X125412073Y-65940001D01*
X125412073Y-64940001D01*
X125399813Y-64815519D01*
X125363503Y-64695821D01*
X125360392Y-64690001D01*
X125363503Y-64684181D01*
X125399813Y-64564483D01*
X125412073Y-64440001D01*
X125412073Y-63440001D01*
X125399813Y-63315519D01*
X125363503Y-63195821D01*
X125304538Y-63085507D01*
X125225186Y-62988816D01*
X125128495Y-62909464D01*
X125018181Y-62850499D01*
X124898483Y-62814189D01*
X124774001Y-62801929D01*
X122774001Y-62801929D01*
X122649519Y-62814189D01*
X122529821Y-62850499D01*
X122419507Y-62909464D01*
X122322816Y-62988816D01*
X122243464Y-63085507D01*
X122184499Y-63195821D01*
X122161367Y-63272078D01*
X122099725Y-63305027D01*
X121984000Y-63400000D01*
X121960202Y-63428998D01*
X120040000Y-65349201D01*
X120040000Y-51460000D01*
X140056001Y-51460000D01*
X140056000Y-99416000D01*
G36*
X123549470Y-89241049D02*
G01*
X123577183Y-89274817D01*
X123610951Y-89302530D01*
X123610953Y-89302532D01*
X123641365Y-89327490D01*
X123711941Y-89385411D01*
X123865687Y-89467589D01*
X123953783Y-89494313D01*
X124032509Y-89518195D01*
X124047306Y-89519652D01*
X124162523Y-89531000D01*
X124162531Y-89531000D01*
X124206000Y-89535281D01*
X124249469Y-89531000D01*
X125393606Y-89531000D01*
X125419655Y-89579734D01*
X125618037Y-89821463D01*
X125859765Y-90019845D01*
X126135551Y-90167255D01*
X126434796Y-90258030D01*
X126746000Y-90288681D01*
X127057203Y-90258030D01*
X127356448Y-90167255D01*
X127632234Y-90019845D01*
X127873963Y-89821463D01*
X128021163Y-89642101D01*
X128176563Y-89827315D01*
X128419077Y-90021969D01*
X128694906Y-90165571D01*
X128913020Y-90236563D01*
X129159000Y-90116594D01*
X129159000Y-88773000D01*
X129139000Y-88773000D01*
X129139000Y-88519000D01*
X129159000Y-88519000D01*
X129159000Y-88499000D01*
X129413000Y-88499000D01*
X129413000Y-88519000D01*
X129433000Y-88519000D01*
X129433000Y-88773000D01*
X129413000Y-88773000D01*
X129413000Y-90116594D01*
X129658980Y-90236563D01*
X129877094Y-90165571D01*
X130152923Y-90021969D01*
X130293941Y-89908781D01*
X130342963Y-90000494D01*
X130422315Y-90097185D01*
X130433000Y-90105954D01*
X130433001Y-92920514D01*
X130433000Y-92920524D01*
X130433000Y-92920531D01*
X130428719Y-92964000D01*
X130433000Y-93007470D01*
X130433001Y-93936515D01*
X130433000Y-93936524D01*
X130433001Y-96595240D01*
X130262866Y-96734866D01*
X130077294Y-96960986D01*
X130048000Y-97015791D01*
X130018706Y-96960986D01*
X129833134Y-96734866D01*
X129607014Y-96549294D01*
X129538000Y-96512405D01*
X129538000Y-95033325D01*
X129541676Y-94996000D01*
X129538000Y-94958675D01*
X129538000Y-94958667D01*
X129527003Y-94847014D01*
X129483546Y-94703753D01*
X129412974Y-94571724D01*
X129318001Y-94455999D01*
X129289004Y-94432202D01*
X127563804Y-92707003D01*
X127540001Y-92677999D01*
X127424276Y-92583026D01*
X127292247Y-92512454D01*
X127148986Y-92468997D01*
X127037333Y-92458000D01*
X127037322Y-92458000D01*
X127000000Y-92454324D01*
X126962678Y-92458000D01*
X124520802Y-92458000D01*
X121342990Y-89280189D01*
X121342990Y-87034568D01*
X123549470Y-89241049D01*
X123549470Y-89241049D01*
G37*
X123549470Y-89241049D02*
X123577183Y-89274817D01*
X123610951Y-89302530D01*
X123610953Y-89302532D01*
X123641365Y-89327490D01*
X123711941Y-89385411D01*
X123865687Y-89467589D01*
X123953783Y-89494313D01*
X124032509Y-89518195D01*
X124047306Y-89519652D01*
X124162523Y-89531000D01*
X124162531Y-89531000D01*
X124206000Y-89535281D01*
X124249469Y-89531000D01*
X125393606Y-89531000D01*
X125419655Y-89579734D01*
X125618037Y-89821463D01*
X125859765Y-90019845D01*
X126135551Y-90167255D01*
X126434796Y-90258030D01*
X126746000Y-90288681D01*
X127057203Y-90258030D01*
X127356448Y-90167255D01*
X127632234Y-90019845D01*
X127873963Y-89821463D01*
X128021163Y-89642101D01*
X128176563Y-89827315D01*
X128419077Y-90021969D01*
X128694906Y-90165571D01*
X128913020Y-90236563D01*
X129159000Y-90116594D01*
X129159000Y-88773000D01*
X129139000Y-88773000D01*
X129139000Y-88519000D01*
X129159000Y-88519000D01*
X129159000Y-88499000D01*
X129413000Y-88499000D01*
X129413000Y-88519000D01*
X129433000Y-88519000D01*
X129433000Y-88773000D01*
X129413000Y-88773000D01*
X129413000Y-90116594D01*
X129658980Y-90236563D01*
X129877094Y-90165571D01*
X130152923Y-90021969D01*
X130293941Y-89908781D01*
X130342963Y-90000494D01*
X130422315Y-90097185D01*
X130433000Y-90105954D01*
X130433001Y-92920514D01*
X130433000Y-92920524D01*
X130433000Y-92920531D01*
X130428719Y-92964000D01*
X130433000Y-93007470D01*
X130433001Y-93936515D01*
X130433000Y-93936524D01*
X130433001Y-96595240D01*
X130262866Y-96734866D01*
X130077294Y-96960986D01*
X130048000Y-97015791D01*
X130018706Y-96960986D01*
X129833134Y-96734866D01*
X129607014Y-96549294D01*
X129538000Y-96512405D01*
X129538000Y-95033325D01*
X129541676Y-94996000D01*
X129538000Y-94958675D01*
X129538000Y-94958667D01*
X129527003Y-94847014D01*
X129483546Y-94703753D01*
X129412974Y-94571724D01*
X129318001Y-94455999D01*
X129289004Y-94432202D01*
X127563804Y-92707003D01*
X127540001Y-92677999D01*
X127424276Y-92583026D01*
X127292247Y-92512454D01*
X127148986Y-92468997D01*
X127037333Y-92458000D01*
X127037322Y-92458000D01*
X127000000Y-92454324D01*
X126962678Y-92458000D01*
X124520802Y-92458000D01*
X121342990Y-89280189D01*
X121342990Y-87034568D01*
X123549470Y-89241049D01*
M02*
